<?xml version="1.0" encoding="utf-8"?>
<!-- Generator: Adobe Illustrator 19.2.1, SVG Export Plug-In . SVG Version: 6.00 Build 0)  -->
<svg version="1.1" id="Слой_1" xmlns:ev="http://www.w3.org/2001/xml-events"
	 xmlns="http://www.w3.org/2000/svg" xmlns:xlink="http://www.w3.org/1999/xlink" x="0px" y="0px" viewBox="0 0 26 5.7"
	 style="enable-background:new 0 0 26 5.7;" xml:space="preserve">
<path d="M23.4,5.4c-1.4,0-2.6-1.1-2.6-2.5s1.2-2.5,2.6-2.5S26,1.5,26,2.9S24.8,5.4,23.4,5.4z M13,5.4c-1.4,0-2.6-1.1-2.6-2.5
	s1.2-2.5,2.6-2.5s2.6,1.1,2.6,2.5S14.4,5.4,13,5.4z M2.6,5.4C1.2,5.4,0,4.3,0,2.9s1.2-2.5,2.6-2.5s2.6,1.1,2.6,2.5S4,5.4,2.6,5.4z"
	/>
</svg>
