<svg width="100" height="113" viewBox="0 0 100 113" fill="none" xmlns="http://www.w3.org/2000/svg">
<path fill-rule="evenodd" clip-rule="evenodd" d="M48.335 109.578L48.334 109.592C48.2939 110.079 48.458 110.561 48.7871 110.919C49.1162 111.279 49.5801 111.483 50.0664 111.483H98.2617C98.748 111.483 99.2119 111.279 99.541 110.919C99.8701 110.561 100.034 110.079 99.9941 109.593L99.9932 109.58C99.9561 109.141 99.0068 97.9956 96.9688 84.3428C94.6885 69.0732 92.0049 56.7744 88.9707 47.6587L93.251 46.2261C93.9297 45.9985 94.4014 45.376 94.4365 44.6572L95.9707 13.834C96.1953 9.31982 93.0381 5.24658 88.625 4.36035L86.1436 3.86133L82.8076 0.51123C82.4688 0.169922 82.0234 0 81.5781 0H66.75C66.3047 0 65.8604 0.169922 65.5205 0.51123L62.2627 3.78369L59.3936 4.35986C54.9805 5.24658 51.8223 9.31934 52.0469 13.8335L53.582 44.6572C53.6172 45.3755 54.0879 45.9985 54.7676 46.2261L59.3262 47.752C56.3047 56.8579 53.6318 69.1255 51.3594 84.3423C49.3232 97.9795 48.375 109.116 48.335 109.578ZM65.2305 5.74023L66.749 4.21387L71.7061 9.19287L69.0527 11.8579C69.041 11.8701 69.0127 11.8984 68.957 11.8916C68.9004 11.8843 68.8809 11.8506 68.8721 11.8359L65.2305 5.74023ZM74.1641 6.7251L70.9453 3.49121H77.3838L74.1641 6.7251ZM76.6221 9.19336L81.5791 4.21387L83.0986 5.74023L79.457 11.8364C79.4482 11.8511 79.4277 11.8848 79.3711 11.8921C79.3154 11.8984 79.2871 11.8706 79.2754 11.8584L76.6221 9.19336ZM92.5 13.6597L91.0244 43.2915L87.8076 44.3677C87.5488 43.6782 87.2871 43.0103 87.0234 42.3652V35.3589L88.8672 18.6953C88.9727 17.7373 88.2852 16.874 87.3311 16.7676C86.377 16.6611 85.5186 17.3511 85.4121 18.3096L83.7305 33.5142H64.5967L62.915 18.3091C62.8096 17.3511 61.9482 16.6611 60.9961 16.7671C60.042 16.8735 59.3545 17.7363 59.4609 18.6948L61.3037 35.356V42.3652C61.0283 43.0396 60.7559 43.7373 60.4854 44.46L56.9932 43.2905L55.5186 13.6592C55.3789 10.8594 57.3379 8.33301 60.0752 7.78271L62.1484 7.36621L65.8916 13.6318C66.4639 14.5913 67.4268 15.2202 68.5322 15.3564C68.6816 15.375 68.8311 15.3843 68.9785 15.3843C69.9258 15.3843 70.8291 15.0112 71.5107 14.3271L72.4258 13.4072V20.3652C72.4258 21.3291 73.2041 22.1108 74.1641 22.1108C75.124 22.1108 75.9023 21.3291 75.9023 20.3652V13.4077L76.8174 14.3276C77.499 15.0112 78.4033 15.3848 79.3496 15.3848C79.498 15.3848 79.6465 15.376 79.7959 15.3574C80.9014 15.2202 81.8643 14.5918 82.4365 13.6323L86.1465 7.42236L87.9434 7.78369C90.6807 8.3335 92.6387 10.8594 92.5 13.6597ZM64.7793 40.9624V37.0059H83.5479V40.9624H74.1631H64.7793ZM84.1152 44.4536C91.8057 63.9565 95.5449 99.4336 96.3584 107.992L51.9697 107.992C52.7832 99.4336 56.5234 63.9565 64.2129 44.4536H66.7266L65.0166 66.7793C64.9434 67.7407 65.6592 68.5796 66.6162 68.6533C66.6611 68.6572 66.7061 68.6587 66.751 68.6587C67.6504 68.6587 68.4121 67.9629 68.4824 67.0469L70.2119 44.4536H72.4258V79.9468C72.4258 80.9111 73.2041 81.6924 74.1641 81.6924C75.124 81.6924 75.9023 80.9106 75.9023 79.9468V44.4541H78.1162L79.8457 67.0474C79.916 67.9629 80.6777 68.6592 81.5771 68.6592L81.7119 68.6538C82.6689 68.5796 83.3848 67.7407 83.3115 66.7793L81.6016 44.4536H84.1152ZM38.3936 62.9395L47.8369 107.438C48.0078 108.245 47.5459 109.051 46.7627 109.311C39.3877 111.759 31.707 113 23.9365 113C16.165 113 8.48535 111.759 1.10938 109.311C0.327148 109.051 -0.135742 108.245 0.0351562 107.438L9.47852 62.9395L7.1084 40.4668C7.06055 40.0103 7.20801 39.5547 7.51562 39.2139C7.82227 38.8726 8.25977 38.6777 8.71875 38.6777H15.1953C16.0889 38.6777 16.8145 39.4028 16.8145 40.2969C16.8145 44.2241 20.0088 47.4189 23.9365 47.4189C27.8633 47.4189 31.0586 44.2241 31.0586 40.2969C31.0586 39.4028 31.7832 38.6777 32.6777 38.6777H39.1533C39.6123 38.6777 40.0498 38.8726 40.3564 39.2139C40.6641 39.5547 40.8115 40.0103 40.7637 40.4668L38.3936 62.9395ZM12.3359 59.1582L12.5732 61.4053H35.2988L35.5361 59.1582H12.3359ZM37.1035 108.498L31.1289 64.6436H28.5898L30.6348 109.437C32.8057 109.226 34.9639 108.912 37.1035 108.498ZM17.2383 109.437L19.2822 64.6436H16.7432L10.7686 108.498C12.9092 108.912 15.0664 109.226 17.2383 109.437ZM23.9365 50.6572C18.7744 50.6572 14.4814 46.8623 13.7021 41.916H10.5176L11.9941 55.9199H35.8779L37.3545 41.916H34.1699C33.3906 46.8623 29.0986 50.6572 23.9365 50.6572ZM13.4756 64.6436H12.4277L3.50684 106.679C4.86035 107.097 6.22363 107.471 7.5957 107.804L13.4756 64.6436ZM22.5234 64.6436L20.4688 109.673C21.6221 109.73 22.7783 109.762 23.9365 109.762C25.0947 109.762 26.251 109.73 27.4043 109.673L25.3486 64.6436H22.5234ZM34.3965 64.6436L40.2773 107.804C41.6484 107.471 43.0127 107.097 44.3652 106.679L35.4453 64.6436H34.3965Z" fill="#E5E5E5"/>
</svg>
