<svg width="20" height="20" viewBox="0 0 20 20" version="1.1" xmlns="http://www.w3.org/2000/svg" xmlns:xlink="http://www.w3.org/1999/xlink">
<g id="Canvas" fill="none">
<g id="facebook-logo-button">
<g id="Vector">
<path d="M 10 0C 4.48602 0 0 4.48602 0 10C 0 15.5136 4.48602 20 10 20C 15.5136 20 20 15.5136 20 10C 20 4.48602 15.5144 0 10 0ZM 12.4869 10.3521L 10.86 10.3521C 10.86 12.9513 10.86 16.1508 10.86 16.1508L 8.44921 16.1508C 8.44921 16.1508 8.44921 12.9824 8.44921 10.3521L 7.30323 10.3521L 7.30323 8.30259L 8.44921 8.30259L 8.44921 6.97696C 8.44921 6.02755 8.90035 4.54403 10.8821 4.54403L 12.6686 4.55087L 12.6686 6.54032C 12.6686 6.54032 11.583 6.54032 11.3719 6.54032C 11.1609 6.54032 10.8608 6.64585 10.8608 7.09861L 10.8608 8.30299L 12.6976 8.30299L 12.4869 10.3521Z" fill="#333333"/>
</g>
</g>
</g>
</svg>

