<svg width="20" height="20" viewBox="0 0 20 20" version="1.1" xmlns="http://www.w3.org/2000/svg" xmlns:xlink="http://www.w3.org/1999/xlink">
<g id="instagram">
<path d="M 7.68645 -1.86999e-07L 1.72553 -1.86999e-07C 0.774081 -1.86999e-07 1.73399e-07 0.774081 1.73399e-07 1.72553L 1.73399e-07 7.68645C 1.73399e-07 8.63789 0.774081 9.4122 1.72553 9.4122L 7.68645 9.4122C 8.63789 9.4122 9.4122 8.63811 9.4122 7.68645L 9.4122 1.72553C 9.4122 0.774081 8.63812 -1.86999e-07 7.68645 -1.86999e-07ZM 4.70599 7.80454C 2.99762 7.80454 1.60766 6.41458 1.60766 4.70599C 1.60766 2.99762 2.99762 1.60766 4.70599 1.60766C 6.41458 1.60766 7.80454 2.99762 7.80454 4.70599C 7.80454 6.41436 6.41436 7.80454 4.70599 7.80454ZM 7.90414 2.24827C 7.49972 2.24827 7.17084 1.91938 7.17084 1.51519C 7.17084 1.11099 7.49972 0.782103 7.90414 0.782103C 8.30834 0.782103 8.63722 1.11099 8.63722 1.51519C 8.63722 1.91938 8.30834 2.24827 7.90414 2.24827Z" transform="translate(5.29407 5.3208)" fill="#333333"/>
<path d="M 1.78926 1.49599e-07C 0.803048 1.49599e-07 -2.17599e-07 0.802603 -2.17599e-07 1.78881C -2.17599e-07 2.77546 0.803048 3.57829 1.78926 3.57829C 2.77591 3.57829 3.57829 2.77546 3.57829 1.78881C 3.57829 0.802825 2.77569 1.49599e-07 1.78926 1.49599e-07Z" transform="translate(8.21069 8.23779)" fill="#333333"/>
<path d="M 10 0C 4.47737 0 0 4.47737 0 10C 0 15.5226 4.47737 20 10 20C 15.5226 20 20 15.5226 20 10C 20 4.47737 15.5226 0 10 0ZM 16.0153 13.0074C 16.0153 14.681 14.6541 16.0422 12.9805 16.0422L 7.01954 16.0422C 5.34615 16.0422 3.98471 14.681 3.98471 13.0074L 3.98471 7.0465C 3.98471 5.37311 5.34615 4.01168 7.01954 4.01168L 12.9805 4.01168C 14.6541 4.01168 16.0153 5.37311 16.0153 7.0465L 16.0153 13.0074Z" fill="#333333"/>
</g>

</svg>

