<svg width="22" height="20" viewBox="0 0 22 20" fill="none" xmlns="http://www.w3.org/2000/svg">
<path d="M21.9638 6.00139C21.6359 2.52388 19.0907 0.000398642 15.9111 0.000398642C14.874 0.000398642 13.8483 0.269443 12.9449 0.778503C12.1529 1.22483 11.4632 1.85289 10.9428 2.60022C10.4296 1.84446 9.75642 1.21379 8.98895 0.771054C8.11455 0.266627 7.11181 1.33066e-08 6.08912 1.33066e-08C2.90928 1.33066e-08 0.364324 2.52335 0.0368152 6.00077C0.0111986 6.15956 -0.0928305 6.9792 0.224406 8.28565C0.681739 10.1706 1.73691 11.8838 3.27586 13.2401L10.9344 20L18.7243 13.2407C20.2634 11.8837 21.3186 10.1703 21.7758 8.28572C22.092 6.98368 21.9891 6.16053 21.9638 6.00139ZM17.8781 12.3258L10.9418 18.345L4.12584 12.3285C2.77748 11.1402 1.85419 9.64455 1.45577 8.00315C1.18672 6.89543 1.27528 6.25828 1.28634 6.18871L1.2929 6.1457L1.29441 6.13332C1.55386 3.29241 3.57029 1.23041 6.08912 1.23041C7.94346 1.23041 9.57839 2.34249 10.3559 4.13263L10.9385 5.47581L11.5211 4.13268C12.2863 2.36987 14.0097 1.23081 15.9115 1.23081C18.4296 1.23081 20.4483 3.30896 20.7116 6.17219L20.7136 6.18751C20.7247 6.25621 20.8147 6.89077 20.5444 8.0036C20.1464 9.645 19.2242 11.1397 17.8781 12.3258Z" fill="#FF4062"/>
</svg>
