
<?xml version="1.0" encoding="utf-8"?>
<!-- Generator: Adobe Illustrator 16.0.0, SVG Export Plug-In . SVG Version: 6.00 Build 0)  -->
<!DOCTYPE svg PUBLIC "-//W3C//DTD SVG 1.1//EN" "http://www.w3.org/Graphics/SVG/1.1/DTD/svg11.dtd">
<svg version="1.1" id="Слой_1" xmlns="http://www.w3.org/2000/svg" xmlns:xlink="http://www.w3.org/1999/xlink" x="0px" y="0px"
     width="785.199px" height="126.891px" viewBox="0 0 785.199 126.891" enable-background="new 0 0 785.199 126.891"
     xml:space="preserve">
<path d="M302.765,70.807l-8.796-22.579l-8.801,22.579H302.765z M406.857,64.428c0-3.831-0.525-7.479-1.597-10.88
    c-1.059-3.402-2.653-6.182-4.729-8.293c-4.113-4.077-9.579-6.134-16.445-6.134h-6.186v1.966v45.44v1.965h6.432
    c7.009,0,12.42-1.825,16.199-5.513C404.781,78.858,406.857,72.721,406.857,64.428z M507.282,38.308c-0.872,0-1.889,0.14-3.099,0.377
    c-1.158,0.243-2.034,0.576-2.563,1.012c-0.482,0.381-1.206,1.195-2.126,2.445c-0.917,1.29-1.643,2.394-2.269,3.355l-12.334,19.602
    v19.892c0,0.861,0.146,1.584,0.386,2.111c0.241,0.576,0.627,1.005,1.114,1.39c0.242,0.242,1.111,0.433,2.515,0.624
    c1.405,0.191,2.806,0.285,4.301,0.285v1.536h-24.706l-0.143-1.536c1.209,0,2.416-0.047,3.578-0.19
    c1.161-0.142,1.983-0.385,2.368-0.718c0.674-0.529,1.162-0.96,1.356-1.199c0.626-0.719,0.913-1.488,0.913-2.303V66.156
    L461.69,43.624c-0.44-0.572-1.015-1.195-1.79-1.87c-0.726-0.667-1.407-1.195-2.034-1.629c-0.626-0.428-1.399-0.864-2.323-1.246
    c-0.865-0.384-1.734-0.571-2.509-0.571v-1.54h23.156v1.54c-1.885,0-3.384,0.092-4.546,0.286c-1.163,0.19-1.735,0.668-1.789,1.438
    c0,0.427,0.146,1.056,0.535,1.818c0.34,0.77,0.969,1.775,1.936,3.072l11.071,16.919l11.072-17.785
    c0.334-0.576,0.723-1.341,1.106-2.301c0.389-0.958,0.583-1.529,0.583-1.723c0-0.528-0.675-0.961-1.983-1.247
    c-1.356-0.289-2.804-0.476-4.352-0.476v-1.54h17.458V38.308z M415.901,63.71c0,8.097-2.465,14.573-7.396,19.507
    c-5.318,5.128-12.765,7.72-22.29,7.72h-23.884v-1.536c1.113,0,2.174-0.094,3.141-0.242c1.016-0.19,1.651-0.425,1.984-0.714
    c0.773-0.814,1.205-1.343,1.306-1.584c0.582-0.814,0.821-1.724,0.821-2.684v-40.07c0-0.964-0.239-1.921-0.727-2.831
    c-0.195-0.337-0.627-0.96-1.302-1.821c-0.242-0.334-0.872-0.577-1.936-0.814c-1.016-0.194-2.13-0.334-3.288-0.334v-1.54h24.123
    c7.983,0,14.649,2.064,20.016,6.137C412.76,47.7,415.901,54.604,415.901,63.71z M324.237,90.938h-21.81v-1.536
    c0.825,0,1.693-0.047,2.662-0.094c0.92-0.044,1.547-0.147,1.887-0.338c0.821-0.286,1.255-0.524,1.401-0.624
    c0.29-0.285,0.48-0.575,0.48-0.91c0-0.333-0.092-0.813-0.286-1.483c-0.194-0.719-0.727-2.205-1.596-4.557l-3.188-7.81h-19.775
    l-3.189,8.242c-0.389,0.864-0.729,1.773-1.066,2.779c-0.389,0.96-0.536,1.727-0.536,2.255c0,0.381,0.292,0.77,0.828,1.056
    c0.524,0.334,1.012,0.622,1.4,0.817c0.386,0.235,1.061,0.382,2.028,0.528c0.968,0.091,1.789,0.139,2.563,0.139v1.536h-16.876v-1.536
    c0.968,0,1.98-0.139,3.142-0.381c1.162-0.241,1.936-0.622,2.368-1.15c0.246-0.337,0.921-1.775,1.992-4.362
    c0.38-0.961,0.813-1.917,1.252-2.927l18.034-44.627h1.447l20.161,49.711c0.242,0.526,0.682,1.054,1.309,1.629
    c0.48,0.385,0.868,0.719,1.21,1.004c0.385,0.29,0.964,0.576,1.832,0.771c0.922,0.238,1.694,0.333,2.325,0.333V90.938z
     M231.649,90.938h-22.623v-1.536c1.594,0,2.753-0.094,3.427-0.242c0.731-0.19,1.31-0.425,1.643-0.714
    c0.876-0.675,1.407-1.203,1.697-1.538c0.238-0.333,0.385-0.766,0.385-1.197V42.714l-20.255,48.224h-1.167l-19.871-46.83v39.828
    c0,0.77,0.25,1.536,0.775,2.306c0.535,0.716,0.923,1.291,1.209,1.676c0.341,0.38,1.016,0.714,2.083,1.052
    c1.059,0.293,2.269,0.432,3.577,0.432v1.536h-18.279v-1.536c1.305,0,2.467-0.139,3.435-0.381c1.016-0.241,1.741-0.622,2.178-1.15
    c0.433-0.576,0.865-1.151,1.352-1.87c0.432-0.671,0.675-1.342,0.675-2.064V42.091c0-0.477-0.193-1.004-0.626-1.58
    c-0.243-0.243-0.535-0.576-0.968-0.96c-0.39-0.381-1.21-0.672-2.325-0.909c-1.154-0.194-2.321-0.334-3.383-0.334v-1.54h15.86
    l17.597,40.746l17.407-40.746h16.196v1.54c-1.595,0-2.756,0.092-3.53,0.286c-0.773,0.19-1.4,0.476-1.79,0.814
    c-0.384,0.382-0.772,0.718-1.161,1.051c-0.528,0.528-0.775,1.056-0.775,1.538V85.71c0,0.579,0.247,1.059,0.636,1.485
    c0.432,0.436,0.821,0.817,1.205,1.103c0.39,0.29,1.163,0.576,2.273,0.771c1.158,0.238,2.223,0.333,3.142,0.333V90.938z"/>
<path d="M569.597,70.805l-8.795-22.576l-8.75,22.576H569.597z M591.066,90.938h-21.803v-1.535c0.82,0,1.734-0.049,2.653-0.096
    c0.925-0.048,1.552-0.147,1.89-0.336c0.82-0.286,1.305-0.525,1.403-0.624c0.333-0.29,0.479-0.576,0.479-0.91
    s-0.096-0.817-0.285-1.485c-0.194-0.723-0.729-2.203-1.551-4.557l-3.188-7.812h-19.823l-3.142,8.245
    c-0.434,0.865-0.774,1.774-1.116,2.779c-0.333,0.956-0.534,1.726-0.534,2.254c0,0.382,0.293,0.771,0.828,1.056
    c0.575,0.334,1.017,0.624,1.401,0.814c0.388,0.239,1.063,0.381,2.03,0.528c0.968,0.095,1.834,0.144,2.61,0.144v1.535h-16.871v-1.535
    c0.913,0,1.979-0.144,3.09-0.383c1.159-0.241,1.979-0.626,2.42-1.154c0.194-0.338,0.869-1.775,1.983-4.359
    c0.385-0.96,0.773-1.917,1.206-2.925l18.034-44.628h1.447l20.207,49.713c0.195,0.524,0.635,1.052,1.31,1.627
    c0.437,0.381,0.822,0.719,1.162,1.005c0.389,0.286,1.016,0.576,1.881,0.766c0.877,0.242,1.65,0.338,2.277,0.338V90.938z
     M654.061,68.694c-0.774-0.958-1.789-1.725-3.043-2.445c-1.253-0.668-2.13-1.005-2.563-1.005h-4.351V83.75
    c0,0.667,0.091,1.58,0.285,2.679c0.195,1.1,0.441,1.774,0.682,2.064c0.288,0.286,1.163,0.527,2.658,0.766
    c1.452,0.187,2.705,0.29,3.77,0.29v1.389h-22.817v-1.389h1.353c0.968,0,1.69,0,2.078-0.104c0.434-0.091,0.968-0.381,1.646-0.861
    c0.675-0.476,1.21-0.909,1.551-1.291c0.385-0.337,0.571-0.816,0.571-1.439V42.763c0-0.671-0.286-1.343-0.772-1.965
    c-0.723-0.722-1.207-1.199-1.449-1.49c-0.285-0.285-0.868-0.524-1.789-0.715c-0.92-0.193-1.983-0.288-3.188-0.288v-1.537h23.305
    c6.038,0,10.778,1.25,14.261,3.691c3.432,2.445,5.174,5.943,5.174,10.5c0,3.498-1.21,6.375-3.579,8.673
    c-2.415,2.255-5.994,3.835-10.829,4.697c0.434,0.146,1.4,0.862,2.948,2.302c1.551,1.342,2.661,2.544,3.292,3.545
    c0.19,0.146,1.789,2.735,4.783,7.769c1.017,1.627,2.516,4.124,4.547,7.526c0.432,0.667,1.158,1.294,2.222,1.965
    c0.678,0.429,1.4,0.861,2.13,1.294c0.385,0.239,0.821,0.429,1.302,0.528c0.483,0.144,1.066,0.238,1.74,0.29v1.389h-18.274v-1.389
    c1.11,0,2.031-0.242,2.852-0.723c0.773-0.479,1.162-1.103,1.162-1.87c0-0.479-0.143-1.103-0.528-1.869
    c-0.34-0.767-0.876-1.728-1.502-2.874c-1.694-2.783-3.043-4.848-3.964-6.284C656.918,71.618,655.028,69.222,654.061,68.694z
     M649.375,39.214c-0.968,0-1.742,0.048-2.467,0.094c-0.675,0.048-1.163,0.194-1.404,0.434c-0.287,0.243-0.579,0.576-0.92,0.96
    c-0.335,0.382-0.48,0.814-0.48,1.291v20.71h1.162h0.865h1.016c6.287,0,10.592-0.91,12.813-2.828
    c1.887-1.631,2.804-4.458,2.804-8.581c0-3.692-1.016-6.519-3.143-8.627C657.353,40.364,653.921,39.214,649.375,39.214z
     M763.766,51.198h-1.889c-0.674-2.877-1.547-5.272-2.706-7.189c-1.111-1.968-2.372-3.117-3.82-3.497
    c-0.483-0.29-1.737-0.575-3.771-0.77c-2.028-0.194-4.443-0.286-7.255-0.286v46.211c0,0.811,0.098,1.389,0.341,1.675
    c0.245,0.333,0.579,0.671,1.113,0.957c0.528,0.286,1.401,0.576,2.61,0.766c1.255,0.242,2.417,0.338,3.53,0.338v1.535H728.52v-1.535
    c1.154,0,2.225-0.096,3.145-0.243c0.913-0.189,1.686-0.381,2.27-0.619c0.58-0.242,1.115-0.624,1.546-1.151
    c0.481-0.529,0.727-1.057,0.727-1.68V39.456c-3.482,0-5.997,0.046-7.543,0.143c-1.545,0.095-2.806,0.386-3.773,0.957
    c-1.016,0.576-1.642,1.008-1.928,1.294c-0.536,0.48-1.114,1.247-1.742,2.255c-1.015,1.822-1.936,4.171-2.617,7.094h-1.929
    l0.675-11.742c0-0.481,0.047-1.056,0.099-1.679c0.095-0.624,0.243-0.959,0.382-1.008h44.675c0.194,0,0.341,0.623,0.534,1.87
    c0,0.242,0,0.527,0.045,0.909L763.766,51.198z"/>
<rect x="164.25" y="11.841" width="599.511" height="1.536"/>
<rect x="164.25" y="114.421" width="599.511" height="1.537"/>
<path fill-rule="evenodd" clip-rule="evenodd" d="M134.068,53.049c0.103,0.731,0.103,1.302,0.103,1.775
    c0,1.928-0.63,3.546-1.997,4.951c-1.371,1.409-3.001,2.503-4.891,3.388c-1.895,0.885-3.895,1.516-5.999,1.984
    c-2.104,0.412-3.943,0.625-5.522,0.625L98.88,64.363c-1.208,0-2.632,0.052-4.206,0.265c-1.58,0.152-3.104,0.412-4.631,0.83
    c-1.474,0.365-2.895,0.94-4.262,1.719c-1.367,0.733-2.418,1.619-3.206,2.661c-0.37,0.367-0.893,1.098-1.527,2.188
    c-0.682,1.15-1,1.934-1,2.401c0,0.835,0.421,1.512,1.263,1.929c0.843,0.417,1.581,0.682,2.315,0.682
    c1.108-0.992,2.262-2.036,3.369-3.235c1.051-1.15,2.259-2.296,3.469-3.337c1.209-1.045,2.525-1.929,3.891-2.661
    c1.367-0.728,2.84-1.095,4.419-1.095c1.895,0,3.892,0.259,5.999,0.834c2.047,0.575,3.942,1.409,5.624,2.554
    c1.737,1.15,3.159,2.555,4.316,4.227c1.104,1.721,1.683,3.649,1.683,5.837c0,1.725-0.528,3.286-1.579,4.695
    c-1.052,1.41-2.159,2.814-3.415,4.33c-1.214,1.46-2.371,3.078-3.424,4.849c-1.051,1.822-1.578,4.014-1.578,6.62
    c0,1.566,0.42,3.342,1.212,5.372c0.787,1.985,1.158,3.963,1.158,5.999c0,0.886-0.162,1.776-0.477,2.712
    c-0.316,0.988-0.737,1.876-1.315,2.661c-0.578,0.783-1.261,1.409-2.049,1.928c-0.786,0.519-1.63,0.783-2.63,0.783
    c-0.949-2.243-2.155-4.172-3.681-5.687c-1.474-1.511-3.104-2.866-4.785-4.117c-1.739-1.2-3.418-2.4-5.156-3.495
    c-1.681-1.149-3.261-2.452-4.683-3.908c-1.417-1.514-2.523-3.286-3.418-5.372c-0.894-2.084-1.314-4.64-1.314-7.717V85.64
    c0-2.244-0.315-4.065-0.895-5.423c-0.63-1.355-1.365-2.556-2.154-3.653c-0.792-1.094-1.477-2.188-2.106-3.282
    c-0.574-1.098-0.895-2.453-0.895-4.121c0-4.955,0.636-9.543,1.895-13.817c1.266-4.278,3.053-8.288,5.262-12.099
    c2.259-3.754,4.892-7.352,7.939-10.69c2.997-3.387,6.257-6.675,9.782-9.854c5.892-5.317,12.154-9.285,18.779-11.839
    C123.495,8.307,131.017,7,139.321,7c0.899,0,1.636,0.157,2.316,0.421c0.686,0.259,1,0.886,1,1.928
    c-2.101,1.511-3.787,3.231-5.103,5.216c-1.261,2.034-2.262,4.12-2.942,6.364c-0.685,2.188-1.212,4.534-1.528,6.934
    C132.013,36.203,133.064,44.756,134.068,53.049 M104.142,52.524c1.469-1.145,3.205-2.346,5.202-3.491
    c1.945-1.145,4.052-2.086,6.207-2.818c2.158-0.729,4.367-1.197,6.573-1.354c2.159-0.158,4.21,0.101,6.155,0.834
    c0.475,0.209,1.053,0.626,1.738,1.251c0.682,0.625,0.893,1.302,0.63,2.035c-0.158,0.417-0.524,0.677-1.154,0.779
    c-2.056,0.259-4.16,0.314-6.37,0.208c-2.205-0.153-4.414-0.208-6.573-0.153c-2.209,0.051-4.367,0.26-6.522,0.626
    C107.871,50.753,105.926,51.481,104.142,52.524z M88.884,43.193c1.316-2.035,2.946-4.227,4.948-6.726
    c1.945-2.503,4.099-4.798,6.465-6.991c2.315-2.188,4.79-4.013,7.365-5.474c2.58-1.512,5.154-2.244,7.676-2.244
    c1.001,0,1.843,0.261,2.58,0.784c0.736,0.522,1.106,1.307,1.106,2.345c0,0.783-0.634,1.512-1.894,2.245
    c-1.265,0.675-2.737,1.352-4.419,1.928c-1.682,0.625-3.312,1.199-4.943,1.668c-1.63,0.468-2.787,0.89-3.473,1.2
    c-2.895,1.512-5.572,3.235-7.994,5.266C93.884,39.179,91.409,41.158,88.884,43.193z M85.729,53.517
    c0.789-1.304,1.789-2.712,2.947-4.118c1.209-1.464,2.524-2.767,3.942-3.912c1.473-1.2,3-2.138,4.627-2.868
    c1.634-0.784,3.265-1.145,4.946-1.145c0.421,0,1,0.153,1.682,0.467c0.74,0.311,1.054,0.783,1.054,1.353
    c0,0.367-0.212,0.676-0.633,0.941c-1.468,0.783-3.104,1.41-4.837,1.98c-1.685,0.523-3.366,1.094-5.049,1.72
    c-1.685,0.681-3.265,1.408-4.788,2.299C88.046,51.12,86.782,52.213,85.729,53.517z M8.568,53.049
    c-0.102,0.731-0.153,1.302-0.153,1.775c0,1.928,0.683,3.546,2.053,4.951c1.366,1.409,2.997,2.503,4.888,3.388
    c1.898,0.885,3.895,1.516,5.998,1.984c2.103,0.412,3.941,0.625,5.522,0.625l16.883-1.409c1.208,0,2.63,0.052,4.204,0.265
    c1.581,0.152,3.104,0.412,4.581,0.83c1.524,0.365,2.948,0.94,4.313,1.719c1.367,0.733,2.418,1.619,3.206,2.661
    c0.37,0.367,0.895,1.098,1.529,2.188c0.68,1.15,1,1.934,1,2.401c0,0.835-0.42,1.512-1.264,1.929
    c-0.842,0.417-1.579,0.682-2.315,0.682c-1.158-0.992-2.259-2.036-3.367-3.235c-1.104-1.15-2.261-2.296-3.471-3.337
    c-1.208-1.045-2.523-1.929-3.891-2.661c-1.367-0.728-2.84-1.095-4.419-1.095c-1.945,0-3.941,0.259-5.996,0.834
    c-2.049,0.575-3.944,1.409-5.68,2.554c-1.681,1.15-3.103,2.555-4.262,4.227c-1.154,1.721-1.682,3.649-1.682,5.837
    c0,1.725,0.528,3.286,1.58,4.695c1.052,1.41,2.157,2.814,3.415,4.33c1.212,1.46,2.371,3.078,3.423,4.849
    c1.052,1.822,1.579,4.014,1.579,6.62c0,1.566-0.421,3.342-1.213,5.372c-0.788,1.985-1.157,3.963-1.157,5.999
    c0,0.886,0.16,1.776,0.475,2.712c0.265,0.988,0.736,1.876,1.315,2.661c0.524,0.783,1.209,1.409,1.998,1.928
    c0.786,0.519,1.68,0.783,2.681,0.783c0.951-2.243,2.155-4.172,3.683-5.687c1.473-1.511,3.104-2.866,4.786-4.117
    c1.735-1.2,3.418-2.4,5.154-3.495c1.683-1.149,3.261-2.452,4.684-3.908c1.366-1.514,2.525-3.286,3.418-5.372
    c0.894-2.084,1.317-4.64,1.317-7.717V85.64c0-2.244,0.314-4.065,0.893-5.423c0.63-1.355,1.315-2.556,2.103-3.653
    c0.789-1.094,1.529-2.188,2.159-3.282c0.574-1.098,0.894-2.453,0.894-4.121c0-4.955-0.634-9.543-1.895-13.817
    c-1.264-4.278-3.051-8.288-5.262-12.099c-2.26-3.754-4.891-7.352-7.938-10.69c-2.999-3.387-6.314-6.675-9.783-9.854
    c-5.891-5.317-12.154-9.285-18.777-11.839C19.142,8.307,11.621,7,3.315,7C2.418,7,1.63,7.157,1,7.421C0.314,7.681,0,8.307,0,9.35
    c2.103,1.511,3.789,3.231,5.104,5.216c1.259,2.034,2.26,4.12,2.94,6.364c0.686,2.188,1.214,4.534,1.529,6.934
    C10.625,36.203,9.574,44.756,8.568,53.049z M38.5,52.524c-1.473-1.145-3.21-2.346-5.207-3.491c-1.945-1.145-4.053-2.086-6.207-2.818
    c-2.21-0.729-4.368-1.197-6.574-1.354c-2.158-0.158-4.21,0.101-6.155,0.834c-0.472,0.209-1.104,0.626-1.738,1.251
    c-0.682,0.625-0.894,1.302-0.629,2.035c0.157,0.417,0.523,0.677,1.153,0.779c2.057,0.259,4.159,0.314,6.369,0.208
    c2.206-0.153,4.363-0.208,6.573-0.153c2.21,0.051,4.368,0.26,6.523,0.626C34.766,50.753,36.713,51.481,38.5,52.524z M53.753,43.193
    c-1.316-2.035-2.946-4.227-4.946-6.726c-1.945-2.503-4.1-4.798-6.467-6.991c-2.316-2.188-4.789-4.013-7.365-5.474
    c-2.581-1.512-5.155-2.244-7.675-2.244c-1.001,0-1.845,0.261-2.58,0.784c-0.738,0.522-1.159,1.307-1.159,2.345
    c0,0.783,0.686,1.512,1.946,2.245c1.264,0.675,2.737,1.352,4.418,1.928c1.631,0.625,3.312,1.199,4.943,1.668
    c1.579,0.468,2.789,0.89,3.475,1.2c2.894,1.512,5.575,3.235,7.939,5.266C48.704,39.179,51.229,41.158,53.753,43.193z M56.908,53.517
    c-0.788-1.304-1.788-2.712-2.946-4.118c-1.208-1.464-2.524-2.767-3.942-3.912c-1.472-1.2-3.001-2.138-4.627-2.868
    c-1.634-0.784-3.265-1.145-4.947-1.145c-0.421,0-1,0.153-1.736,0.467c-0.685,0.311-1.051,0.783-1.051,1.353
    c0,0.367,0.263,0.676,0.686,0.941c1.468,0.783,3.103,1.41,4.784,1.98c1.736,0.523,3.419,1.094,5.101,1.72
    c1.686,0.681,3.265,1.408,4.789,2.299C54.541,51.12,55.856,52.213,56.908,53.517z M55.856,90.332
    c-0.524,0.264-1.422,0.677-2.683,1.302c-1.264,0.631-2.578,1.308-3.894,2.086c-1.317,0.783-2.47,1.618-3.521,2.452
    c-1,0.784-1.474,1.566-1.474,2.244c0,0.728,0.264,1.303,0.788,1.822c0.529,0.524,1.107,0.783,1.843,0.783
    c0.946,0,1.946-0.366,2.89-1.093c0.951-0.729,1.845-1.668,2.682-2.712c0.845-1.094,1.529-2.294,2.103-3.546
    C55.17,92.418,55.592,91.273,55.856,90.332z M86.782,90.332c0.522,0.264,1.421,0.677,2.682,1.302
    c1.264,0.631,2.579,1.308,3.896,2.086c1.314,0.783,2.467,1.618,3.468,2.452c1.05,0.784,1.524,1.566,1.524,2.244
    c0,0.728-0.265,1.303-0.789,1.822c-0.527,0.524-1.158,0.783-1.842,0.783c-0.944,0-1.945-0.366-2.891-1.093
    c-0.95-0.729-1.843-1.668-2.682-2.712c-0.843-1.094-1.58-2.294-2.103-3.546C87.467,92.418,87.045,91.273,86.782,90.332z"/>
</svg>
