<svg width="114" height="122" viewBox="0 0 114 122" fill="none" xmlns="http://www.w3.org/2000/svg">
<path d="M-1.922e-06 2.03407C-1.922e-06 3.15682 0.909873 4.06814 2.03564 4.06814H22.3927C23.5185 4.06814 24.4284 3.15682 24.4284 2.03407C24.4284 0.911314 23.5185 -1.61187e-06 22.3927 -1.61187e-06H2.03564C0.909873 -0.000239989 -1.922e-06 0.911075 -1.922e-06 2.03407Z" transform="translate(69.2148 40.6362)" fill="#E5E5E5"/>
<path d="M9.9012e-07 2.03407C9.9012e-07 3.15682 0.909869 4.06814 2.03564 4.06814H14.2499C15.3757 4.06814 16.2856 3.15682 16.2856 2.03407C16.2856 0.911313 15.3757 1.298e-06 14.2499 1.298e-06H2.03564C0.909869 -0.000237079 9.9012e-07 0.911075 9.9012e-07 2.03407Z" transform="translate(81.4297 52.8413)" fill="#E5E5E5"/>
<path d="M6.10715 4.06814C7.23292 4.06814 8.14279 3.15682 8.14279 2.03407C8.14279 0.911314 7.23292 8.87511e-07 6.10715 8.87511e-07H2.03564C0.909868 8.87511e-07 3.49454e-07 0.911314 3.49454e-07 2.03407C3.49454e-07 3.15682 0.909868 4.06814 2.03564 4.06814H6.10715Z" transform="translate(73.2852 28.4312)" fill="#E5E5E5"/>
<path d="M2.03564 -4.36481e-07C0.90987 -4.36481e-07 -1.5143e-06 0.911315 -1.5143e-06 2.03407C-1.5143e-06 3.15682 0.90987 4.06814 2.03564 4.06814H22.3927C23.5185 4.06814 24.4284 3.15682 24.4284 2.03407C24.4284 0.911315 23.5185 -4.36481e-07 22.3927 -4.36481e-07H2.03564Z" transform="translate(52.9297 52.8408)" fill="#E5E5E5"/>
<path d="M57 101.707H18.3215C14.9544 101.707 12.2143 98.9695 12.2143 95.605V2.03407C12.2143 0.911314 11.3044 6.54721e-08 10.1787 6.54721e-08C4.56629 6.54721e-08 -1.01924e-07 4.56253 -1.01924e-07 10.1708C-1.01924e-07 11.2936 0.90987 12.2049 2.03564 12.2049C3.16141 12.2049 4.07128 11.2936 4.07128 10.1708C4.07128 7.51816 5.77317 5.25621 8.14279 4.41617V95.605C8.14279 101.213 12.7088 105.776 18.3215 105.776H57C58.1258 105.776 59.0356 104.865 59.0356 103.742C59.0356 102.619 58.1258 101.707 57 101.707Z" transform="translate(8.14258 8.08984)" fill="#E5E5E5"/>
<path d="M2.03564 4.06814H30.5358C31.6615 4.06814 32.5714 3.15682 32.5714 2.03407C32.5714 0.911314 31.6615 -1.65863e-06 30.5358 -1.65863e-06H2.03564C0.909872 -1.65863e-06 2.6209e-07 0.911314 2.6209e-07 2.03407C2.6209e-07 3.15682 0.909872 4.06814 2.03564 4.06814Z" transform="translate(32.5723 40.6362)" fill="#E5E5E5"/>
<path d="M2.03564 4.06814H10.1784C11.3042 4.06814 12.2141 3.15682 12.2141 2.03407C12.2141 0.911314 11.3042 8.87511e-07 10.1784 8.87511e-07H2.03564C0.909872 8.87511e-07 2.6209e-07 0.911314 2.6209e-07 2.03407C2.6209e-07 3.15682 0.909872 4.06814 2.03564 4.06814Z" transform="translate(32.5723 28.4312)" fill="#E5E5E5"/>
<path d="M18.3215 -8.00215e-07H2.03564C0.909869 -8.00215e-07 1.80551e-06 0.911314 1.80551e-06 2.03407C1.80551e-06 3.15682 0.909869 4.06814 2.03564 4.06814H18.3215C19.4472 4.06814 20.3571 3.15682 20.3571 2.03407C20.3573 0.911314 19.4472 -8.00215e-07 18.3215 -8.00215e-07Z" transform="translate(48.8574 28.4312)" fill="#E5E5E5"/>
<path d="M95.6788 0H18.3215C8.24251 0 0.038647 8.17513 1.67447e-07 18.2361V18.2604V18.2828V18.3073V18.3316C0.0264804 24.8186 3.52998 30.8619 9.15858 34.1167C10.1317 34.6781 11.3755 34.3465 11.9392 33.3763C12.5051 32.404 12.1692 31.1592 11.1983 30.5976C6.80947 28.0569 4.07962 23.3418 4.07151 18.283C4.08583 10.4433 10.4719 4.06838 18.3215 4.06838H95.6788C103.535 4.06838 109.929 10.4557 109.929 18.3073V103.742C109.929 104.773 109.64 105.808 109.096 106.732C108.528 107.7 108.85 108.947 109.819 109.516C110.144 109.708 110.499 109.797 110.849 109.797C111.547 109.797 112.227 109.439 112.606 108.794C113.518 107.246 114 105.499 114 103.742V18.3073C114 8.21184 105.782 0 95.6788 0Z" fill="#E5E5E5"/>
<path d="M24.4286 12.2049C24.4286 5.47385 18.9505 -1.57133e-06 12.2143 -1.57133e-06C5.47807 -1.57133e-06 -2.97036e-06 5.47385 -2.97036e-06 12.2049C-2.97036e-06 18.9359 5.47807 24.4098 12.2143 24.4098C18.9505 24.4098 24.4286 18.9359 24.4286 12.2049ZM12.2143 20.3414C7.7234 20.3414 4.07151 16.6921 4.07151 12.2049C4.07151 7.71769 7.72364 4.06838 12.2143 4.06838C16.7052 4.06838 20.3571 7.71769 20.3571 12.2049C20.3571 16.6921 16.7052 20.3414 12.2143 20.3414Z" transform="translate(77.3574 81.3193)" fill="#E5E5E5"/>
<path d="M16.1379 4.46226C15.167 3.90089 13.921 4.23437 13.357 5.20671L8.97417 12.7962L8.27805 11.7466C7.92593 11.2117 7.3417 10.8739 6.70236 10.8374L5.44419 10.7621L9.9005 3.05274C10.4623 2.0804 10.1286 0.835598 9.15548 0.273983C8.18239 -0.28954 6.93662 0.0441846 6.37267 1.01843L0.271716 11.5778C-0.0803996 12.188 -0.0906565 12.9387 0.24309 13.559C0.576836 14.1792 1.20807 14.5842 1.91445 14.6247L5.44228 14.8362L7.39036 17.7837C7.76705 18.3553 8.40616 18.6969 9.0882 18.6969H9.15142C9.85374 18.6745 10.4991 18.29 10.8533 17.6798L16.8851 7.24054C17.4469 6.26868 17.1131 5.02364 16.1379 4.46226Z" transform="translate(69.7598 103.303)" fill="#E5E5E5"/>
<path d="M10.8136 1.01843C10.2497 0.0441848 9.00176 -0.289539 8.03272 0.273983C7.05773 0.83536 6.72374 2.0804 7.28555 3.0525L11.6889 10.6663L10.4307 10.7416C9.79163 10.7802 9.2074 11.118 8.85313 11.6507L8.16107 12.7003L3.80065 5.1495C3.23479 4.17716 1.98879 3.84367 1.01785 4.40505C0.0447613 4.96643 -0.288989 6.21147 0.272821 7.18381L6.28216 17.5844C6.63643 18.1947 7.28173 18.5792 7.98406 18.6016H8.04728C8.72717 18.6016 9.36843 18.2597 9.74702 17.6884L11.6932 14.743L15.2191 14.5294C15.9255 14.4886 16.5565 14.0839 16.8905 13.4636C17.2245 12.8433 17.2121 12.0927 16.8621 11.4825L10.8136 1.01843Z" transform="translate(92.25 103.398)" fill="#E5E5E5"/>
<path d="M2.03564 4.06814H14.2499C15.3757 4.06814 16.2856 3.15682 16.2856 2.03407C16.2856 0.911313 15.3757 1.25125e-06 14.2499 1.25125e-06H2.03564C0.909872 1.25125e-06 2.6209e-07 0.911313 2.6209e-07 2.03407C2.6209e-07 3.15682 0.909872 4.06814 2.03564 4.06814Z" transform="translate(32.5723 52.8413)" fill="#E5E5E5"/>
<path d="M2.03564 4.06814H26.4642C27.59 4.06814 28.4999 3.15682 28.4999 2.03407C28.4999 0.911312 27.59 5.23777e-07 26.4642 5.23777e-07H2.03564C0.909872 5.23777e-07 2.6209e-07 0.911312 2.6209e-07 2.03407C2.6209e-07 3.15682 0.909872 4.06814 2.03564 4.06814Z" transform="translate(32.5723 65.0459)" fill="#E5E5E5"/>
<path d="M2.32901 17.1822C2.82975 18.187 4.05333 18.5939 5.05886 18.0935C6.06439 17.591 6.47376 16.3686 5.96873 15.3636C3.95337 11.336 3.50153 7.72341 4.75541 5.6953C5.42314 4.61521 6.58755 4.06789 8.22026 4.06789C9.19121 4.06789 9.55358 4.40139 9.78164 4.72701C11.2982 6.91173 9.85703 13.5653 8.34861 17.5929C8.01271 18.4899 8.34861 19.499 9.1547 20.0177C9.95675 20.5323 11.0174 20.4205 11.6954 19.7452C12.5647 18.8787 13.5072 18.0141 14.3277 17.3123V18.3071C14.3277 19.1288 14.8224 19.8713 15.5837 20.1845C16.3449 20.5018 17.2183 20.3269 17.8025 19.7452C18.7329 18.8177 19.8117 17.9083 20.7196 17.2535C20.6953 17.3042 20.6707 17.3531 20.6464 17.3998C20.3348 18.0303 20.3694 18.7791 20.7402 19.3769C21.1128 19.975 21.7662 20.3412 22.4704 20.3412H30.6132C31.739 20.3412 32.6489 19.4298 32.6489 18.3071C32.6489 17.1843 31.739 16.273 30.6132 16.273H25.3143C25.4792 15.3047 25.4386 14.3202 24.9479 13.5269C24.4288 12.6869 23.5249 12.2046 22.4704 12.2046C21.2123 12.2046 19.7325 12.9694 18.3808 13.9174C18.277 13.0304 17.7517 12.3002 16.9537 11.9708C16.4103 11.747 15.7099 11.4542 14.0101 12.4733C14.6798 8.96845 14.8754 4.92868 13.1286 2.41047C12.3653 1.30988 10.8955 3.43365e-06 8.2205 3.43365e-06C5.17098 3.43365e-06 2.70975 1.26316 1.29103 3.55777C-0.738643 6.8407 -0.362195 11.8061 2.32901 17.1822Z" transform="translate(32.4941 77.251)" fill="#E5E5E5"/>
<path d="M24.4284 2.03407C24.4284 0.911312 23.5185 5.23777e-07 22.3927 5.23777e-07H2.03564C0.909871 5.23777e-07 3.08684e-06 0.911312 3.08684e-06 2.03407C3.08684e-06 3.15682 0.909871 4.06814 2.03564 4.06814H22.3927C23.5185 4.06814 24.4284 3.15682 24.4284 2.03407Z" transform="translate(65.1426 65.0459)" fill="#E5E5E5"/>
</svg>
