<svg width="108" height="105" viewBox="0 0 108 105" fill="none" xmlns="http://www.w3.org/2000/svg">
<path d="M107.032 0.289169C106.432 -0.0783298 105.684 -0.0944835 105.066 0.23465L72 17.9089L38.936 0.23465C38.91 0.220515 38.88 0.216477 38.854 0.204361C38.758 0.157919 38.66 0.123592 38.56 0.0933041C38.504 0.0771503 38.45 0.0589773 38.394 0.046862C38.284 0.0246505 38.172 0.0165737 38.058 0.0125353C38.008 0.0105161 37.958 0.00445834 37.906 0.00647757C37.798 0.0125352 37.692 0.0327274 37.586 0.0569581C37.526 0.0690734 37.466 0.0771504 37.408 0.0953234C37.394 0.0993619 37.38 0.0993618 37.368 0.1034L1.368 12.2187C0.55 12.4934 0 13.2647 0 14.135V100.962C0 101.61 0.308 102.22 0.832 102.601C1.176 102.85 1.586 102.981 2 102.981C2.212 102.981 2.426 102.946 2.632 102.876L37.924 90.9987L71.238 104.849C71.266 104.861 71.298 104.857 71.326 104.867C71.546 104.945 71.77 105 72 105C72.18 105 72.358 104.97 72.532 104.921C72.588 104.905 72.64 104.879 72.696 104.859C72.776 104.828 72.86 104.806 72.936 104.766L106.936 86.5928C107.59 86.2434 108 85.5549 108 84.8078V2.01964C108 1.3109 107.632 0.654648 107.032 0.289169ZM4 15.5908L36 4.82232V59.3252C35.14 59.4827 34.292 59.6604 33.472 59.8784C32.404 60.1652 31.768 61.2697 32.052 62.348C32.29 63.2526 33.098 63.8503 33.984 63.8503C34.152 63.8503 34.326 63.828 34.498 63.7836C34.978 63.6544 35.502 63.5898 36 63.4848V87.3924L4 98.1589V15.5908ZM40 62.9194C40.642 62.8689 41.264 62.7861 41.922 62.772C43.026 62.7478 43.902 61.825 43.88 60.7104C43.856 59.6099 42.966 58.7335 41.88 58.7335C41.866 58.7335 41.85 58.7335 41.836 58.7335C41.216 58.7477 40.606 58.782 40 58.8244V5.37357L70 21.4082V64.2036C68.572 64.141 67.12 63.9714 65.598 63.6746C64.51 63.4585 63.464 64.1774 63.254 65.2718C63.044 66.3662 63.754 67.4263 64.838 67.6383C66.61 67.9856 68.33 68.1552 70.002 68.2219V99.9661L40 87.4933V62.9194ZM104 83.5902L74 99.6248V68.0038C74.744 67.6626 75.24 66.8953 75.174 66.025C75.116 65.2698 74.636 64.664 74 64.3672V21.4082L104 5.37357V83.5902Z" fill="#E5E5E5"/>
</svg>
