<svg width="87" height="87" viewBox="0 0 87 87" fill="none" xmlns="http://www.w3.org/2000/svg">
<path d="M83.5274 26.5571C78.9406 15.8575 71.1461 8.07596 60.3631 3.47452C54.9736 1.17472 49.3273 -3.22159e-10 43.4285 -3.22159e-10C37.5307 -3.22159e-10 31.926 1.16362 26.5425 3.47452C15.8488 8.06373 8.01978 15.8403 3.42484 26.5571C1.12233 31.9262 0 37.5512 0 43.4522C0 49.3544 1.12233 55.026 3.42484 60.3962C8.01978 71.1131 15.8498 78.9363 26.5425 83.5266C31.927 85.8375 37.5306 87 43.4285 87C49.3264 87 54.9736 85.8253 60.3622 83.5266C71.1452 78.925 78.9397 71.0949 83.5275 60.3962C85.837 55.0088 87 49.3544 87 43.4522C87 37.5512 85.838 31.9444 83.5274 26.5571ZM76.5833 62.6808C73.1686 68.5402 68.4905 73.1886 62.5986 76.6254C56.7425 80.042 50.3259 81.765 43.4295 81.765C38.245 81.765 33.298 80.766 28.5883 78.7191C23.8788 76.6732 19.8125 73.9835 16.411 70.5811C13.0095 67.1777 10.3021 63.0695 8.27765 58.3493C6.25917 53.6463 5.28098 48.6407 5.28098 43.4524C5.28098 36.5511 6.97564 30.1636 10.3712 24.3205C13.7788 18.456 18.4579 13.8026 24.3081 10.3758C30.1573 6.94903 36.5322 5.2351 43.4285 5.2351C50.3259 5.2351 56.7413 6.95913 62.5976 10.3758C68.4895 13.8127 73.1575 18.4659 76.5823 24.3203C80.0072 30.1737 81.7192 36.5511 81.7192 43.4522C81.7192 50.3536 80.0184 56.7846 76.5833 62.6808Z" fill="#E5E5E5"/>
<path d="M5.37538 27.3186V2.6652C5.37538 1.18994 4.09071 -3.38572e-07 2.61611 -3.38572e-07C1.23705 -3.38572e-07 -1.83943e-06 1.18994 -1.83943e-06 2.6652V27.6993C-1.83943e-06 27.7471 0.0953883 27.9379 0.0953883 28.0802C1.0761e-06 28.937 0.238538 29.6509 0.808871 30.2225L15.0321 44.4526C15.9838 45.4048 17.7435 45.4048 18.6945 44.4526C19.7882 43.3581 19.7163 41.77 18.6945 40.7404L5.37538 27.3186Z" transform="translate(40.8125 15.7529)" fill="#E5E5E5"/>
</svg>
