<svg width="116" height="106" viewBox="0 0 116 106" fill="none" xmlns="http://www.w3.org/2000/svg">
<path d="M1.93326 2.75699e-06C0.77326 2.75699e-06 -2.76566e-06 0.770836 -2.76566e-06 1.9272C-2.76566e-06 3.08357 0.77326 3.8544 1.93326 3.8544C3.09326 3.8544 3.86652 3.08357 3.86652 1.9272C3.86652 0.770836 3.09326 2.75699e-06 1.93326 2.75699e-06Z" transform="translate(75.3984 79.0186)" fill="#E5E5E5"/>
<path d="M1.93326 -9.92518e-07C0.77326 -9.92518e-07 -2.76566e-06 0.770836 -2.76566e-06 1.9272C-2.76566e-06 3.08357 0.77326 3.85441 1.93326 3.85441C3.09326 3.85441 3.86652 3.08357 3.86652 1.9272C3.86652 0.770836 3.09326 -9.92518e-07 1.93326 -9.92518e-07Z" transform="translate(75.3984 46.2544)" fill="#E5E5E5"/>
<path d="M1.93326 2.75699e-06C0.77326 2.75699e-06 -2.15721e-06 0.770836 -2.15721e-06 1.9272C-2.15721e-06 3.08357 0.77326 3.8544 1.93326 3.8544C3.09326 3.8544 3.86652 3.08357 3.86652 1.9272C3.86652 0.770836 3.09326 2.75699e-06 1.93326 2.75699e-06Z" transform="translate(83.1328 79.0186)" fill="#E5E5E5"/>
<path d="M110.2 84.8001C113.487 84.8001 116 82.2947 116 79.0183V55.8909C116 52.6145 113.487 50.1091 110.2 50.1091C106.913 50.1091 104.4 52.6145 104.4 55.8909V65.5274H102.467V56.0838C102.467 55.313 102.467 54.5419 102.467 53.9637C101.887 43.9419 96.6667 34.8837 88.3535 28.9092C83.2286 25.3552 77.4615 23.2127 71.5335 22.6223V15.4181H73.4667H77.3335C78.4935 15.4181 79.2667 14.6472 79.2667 13.4909C79.2667 12.3345 78.4935 11.5637 77.3335 11.5637H75.4V3.85441H77.3333C78.4933 3.85441 79.2665 3.08357 79.2665 1.9272C79.2665 0.770836 78.4933 -8.27098e-08 77.3333 -8.27098e-08H73.4665H65.7333H61.8665C60.7065 -8.27098e-08 59.9333 0.770836 59.9333 1.9272C59.9333 3.08357 60.7065 3.85441 61.8665 3.85441H63.7998V11.5634H61.8665C60.7065 11.5634 59.9333 12.3343 59.9333 13.4906C59.9333 14.647 60.7065 15.4178 61.8665 15.4178H65.7333H67.6665V22.4586C64.566 22.5051 61.4503 22.9758 58.3865 23.8979L38.0865 29.8724C35.7665 30.4506 33.4465 30.8361 30.9333 30.8361H29.58C25.7133 30.8361 22.04 29.8724 18.9467 27.9452C17.2067 26.9817 15.8533 25.4398 14.5 23.1271C12.9533 20.8144 10.44 19.2725 7.73326 19.2725C3.48 19.2727 0 22.7418 0 26.9817V71.3092C0 74.8845 2.47429 77.9113 5.8 78.7728V84.8001C5.8 85.9565 6.57326 86.7273 7.73326 86.7273C8.89326 86.7273 9.66652 85.9565 9.66652 84.8001V78.7725C12.9922 77.9111 15.4665 74.8842 15.4665 71.309V67.4546C15.4665 62.0583 19.7198 57.8181 25.1333 57.8181H52.2C54.1333 57.8181 56.26 58.3963 58 59.36C62.2533 61.8654 64.38 67.0691 63.0267 72.0801L58.3867 90.5819H7.73326C3.48 90.5819 0 94.051 0 98.291C0 102.531 3.48 106 7.73326 106H108.267C112.52 106 116 102.531 116 98.291C116 94.051 112.52 90.5819 108.267 90.5819H102.467V69.3818H104.4V79.0183C104.4 82.2947 106.913 84.8001 110.2 84.8001ZM67.6667 3.85441H71.5335V11.5634H67.6667V3.85441ZM108.267 94.4366C110.393 94.4366 112.133 96.1711 112.133 98.2912C112.133 100.411 110.393 102.146 108.267 102.146H7.73326C5.60652 102.146 3.86652 100.411 3.86652 98.2912C3.86652 96.1711 5.60652 94.4366 7.73326 94.4366H57.42H102.467H108.267ZM62.4467 90.5819L66.8935 73.0438C68.6335 66.2982 65.7335 59.36 60.1267 56.0838C57.8067 54.7348 55.1 53.9637 52.3935 53.9637H25.3267C17.7867 53.9637 11.7935 59.9382 11.7935 67.4546V71.3092C11.7935 73.4293 10.0535 75.1638 7.92674 75.1638C5.8 75.1638 4.06 73.4293 4.06 71.3092V26.9817C4.06 24.8617 5.8 23.1271 7.92674 23.1271C9.28 23.1271 10.44 23.8979 11.2135 25.0543C12.9535 27.9452 14.6935 29.8724 17.0135 31.2217C20.8802 33.5344 25.1335 34.6908 29.5802 34.6908H30.9335C33.8335 34.6908 36.5402 34.3053 39.2467 33.5344L59.5467 27.5599C68.6335 24.8617 78.3 26.5962 86.0335 31.9927C93.5735 37.1964 98.0202 45.291 98.6002 54.1564C98.6002 54.7346 98.6002 55.3127 98.6002 55.8909V90.5819H62.4467ZM112.133 69.3818V73.2364H108.267V69.3818H112.133ZM108.267 65.5274V61.6727H112.133V65.5274H108.267ZM110.2 80.9455C109.04 80.9455 108.267 80.1746 108.267 79.0183V77.091H112.133V79.0183C112.133 80.1746 111.36 80.9455 110.2 80.9455ZM110.2 53.9637C111.36 53.9637 112.133 54.7345 112.133 55.8909V57.8181H108.267V55.8909C108.267 54.7345 109.04 53.9637 110.2 53.9637Z" fill="#E5E5E5"/>
<path d="M9.66675 0C4.25349 0 -3.3741e-06 4.23994 -3.3741e-06 9.63647C-3.3741e-06 15.0328 4.25326 19.2729 9.66675 19.2729C15.08 19.2729 19.3335 15.033 19.3335 9.63647C19.3335 4.23994 15.0802 0 9.66675 0ZM9.66675 15.4183C6.38 15.4183 3.86674 12.9129 3.86674 9.63647C3.86674 6.36002 6.38 3.85463 9.66675 3.85463C12.9535 3.85463 15.4667 6.36002 15.4667 9.63647C15.4667 12.9127 12.9535 15.4183 9.66675 15.4183Z" transform="translate(67.666 38.5454)" fill="#E5E5E5"/>
<path d="M1.93326 3.85463H13.5333C14.6933 3.85463 15.4665 3.0838 15.4665 1.92743C15.4665 0.771061 14.6933 0 13.5333 0H1.93326C0.773258 0 -4.28677e-07 0.770837 -4.28677e-07 1.9272C-4.28677e-07 3.08357 0.773258 3.85463 1.93326 3.85463Z" transform="translate(25.1328 38.5454)" fill="#E5E5E5"/>
<path d="M21.2665 -9.92518e-07H1.93326C0.773259 -9.92518e-07 -4.28677e-07 0.770836 -4.28677e-07 1.9272C-4.28677e-07 3.08357 0.773259 3.85441 1.93326 3.85441H21.2665C22.4265 3.85441 23.1998 3.08357 23.1998 1.9272C23.1998 0.770836 22.4265 -9.92518e-07 21.2665 -9.92518e-07Z" transform="translate(25.1328 46.2544)" fill="#E5E5E5"/>
</svg>
