<svg width="100" height="95" viewBox="0 0 100 95" fill="none" xmlns="http://www.w3.org/2000/svg">
<path d="M99.9999 37.5105C99.9995 37.4289 99.9931 37.3496 99.9829 37.2705C99.9806 37.2514 99.9772 37.2327 99.9743 37.2143C99.9642 37.1486 99.9503 37.0836 99.9331 37.0193C99.9294 37.0054 99.9265 36.9916 99.9226 36.9777C99.9001 36.9009 99.8731 36.8247 99.8409 36.7504C99.8372 36.742 99.8327 36.7337 99.8286 36.7254C99.8003 36.6627 99.7681 36.6017 99.7327 36.5414C99.7218 36.5225 99.7103 36.5041 99.6985 36.4858C99.6661 36.435 99.6308 36.3853 99.5933 36.3366C99.5808 36.3205 99.5694 36.3041 99.5563 36.2883C99.5515 36.2823 99.5476 36.2758 99.5423 36.27C99.4954 36.2148 99.4458 36.1632 99.3944 36.1143C99.3858 36.1062 99.3763 36.0987 99.3677 36.0908C99.3153 36.0429 99.2608 35.9986 99.2048 35.9575C99.1899 35.9467 99.1749 35.9359 99.1597 35.9255C99.0964 35.8818 99.0317 35.8414 98.9646 35.806C98.9608 35.8041 98.9577 35.8016 98.9542 35.7996L98.9446 35.7946C98.9382 35.7914 98.9317 35.7879 98.9253 35.7846L86.6601 29.3697V1.94065C86.6601 0.868989 85.7783 9.10412e-08 84.6908 9.10412e-08H15.2902C14.2027 9.10412e-08 13.3209 0.868989 13.3209 1.94065V29.3701L1.07422 35.7844C1.06875 35.7871 1.06347 35.7902 1.05781 35.7929L1.04511 35.7994C1.04043 35.8018 1.03652 35.805 1.03183 35.8075C0.966208 35.8426 0.902732 35.882 0.840818 35.9247C0.824802 35.9355 0.809373 35.9467 0.793748 35.958C0.738474 35.9988 0.684568 36.0425 0.633201 36.0897C0.624022 36.0982 0.613865 36.1059 0.604686 36.1145C0.553514 36.163 0.504295 36.2142 0.457811 36.2693C0.452928 36.275 0.448827 36.2816 0.443749 36.2875C0.430272 36.3039 0.418358 36.321 0.405272 36.3378C0.367968 36.3857 0.333397 36.4346 0.301562 36.4848C0.289452 36.5037 0.277929 36.5225 0.266405 36.5416C0.231445 36.6015 0.199413 36.6621 0.171289 36.7243C0.167382 36.7331 0.162695 36.7416 0.158593 36.7504C0.126367 36.8247 0.0996091 36.9002 0.0773435 36.9772C0.073242 36.9914 0.0703123 37.0056 0.0666014 37.0199C0.0494139 37.0842 0.0359374 37.1486 0.0255859 37.2139C0.0226562 37.2329 0.0193359 37.2516 0.0169921 37.2707C0.00703123 37.3498 0.000585936 37.4293 0.000390624 37.5086C0.000390624 37.5086 0 37.5116 0 37.5132V93.059C0 93.0759 0.00214843 93.0923 0.00253905 93.1092C0.00351561 93.1483 0.00507811 93.1871 0.00839841 93.2262C0.0107422 93.253 0.0140625 93.2795 0.0175781 93.3061C0.0222656 93.3421 0.0273437 93.3779 0.0343749 93.4137C0.0398436 93.4431 0.0462889 93.4722 0.0533202 93.5011C0.060742 93.5326 0.0689451 93.5644 0.0779295 93.5958C0.0873044 93.6279 0.0978513 93.6597 0.108789 93.691C0.118359 93.7184 0.12832 93.7457 0.139062 93.773C0.152929 93.8073 0.167968 93.841 0.183789 93.8743C0.194921 93.8981 0.206249 93.9218 0.218554 93.9455C0.236913 93.9805 0.256835 94.0148 0.277148 94.0484C0.285741 94.0629 0.292773 94.0775 0.301757 94.0919C0.305663 94.0981 0.310546 94.1033 0.314843 94.1096C0.35703 94.1741 0.401952 94.2365 0.451171 94.2954C0.458397 94.3042 0.466991 94.3119 0.474413 94.3206C0.515624 94.3679 0.558983 94.4132 0.60449 94.4563C0.625193 94.4759 0.646678 94.4946 0.668162 94.5131C0.704295 94.5444 0.741795 94.5746 0.780466 94.6035C0.802146 94.6197 0.823435 94.6362 0.845701 94.6514C0.905466 94.6924 0.966794 94.7311 1.03125 94.7658C1.03222 94.7663 1.0334 94.7667 1.03437 94.7673C1.0998 94.8019 1.16777 94.8322 1.23711 94.8597C1.25429 94.8664 1.27168 94.8722 1.28906 94.8785C1.34336 94.8984 1.39882 94.9159 1.45527 94.9307C1.47519 94.9361 1.49511 94.9411 1.51523 94.9459C1.57109 94.959 1.62792 94.9692 1.68554 94.9773C1.70488 94.98 1.72382 94.9836 1.74296 94.9859C1.81523 94.994 1.88847 94.9992 1.96308 94.9996C1.96581 94.9996 1.96855 95 1.97128 95C1.97226 95 1.97324 94.9998 1.97402 94.9998H98.0255C98.0265 94.9998 98.0272 95 98.0282 95C98.031 95 98.0337 94.9996 98.0364 94.9996C98.1108 94.9994 98.1843 94.9942 98.2567 94.9859C98.2761 94.9838 98.295 94.9802 98.314 94.9775C98.3716 94.9694 98.4288 94.9588 98.4847 94.9459C98.5046 94.9413 98.5243 94.9361 98.5442 94.9307C98.6013 94.9155 98.6571 94.898 98.712 94.878C98.7288 94.872 98.7456 94.8664 98.7624 94.8597C98.9019 94.8046 99.0333 94.7346 99.1552 94.6509C99.1769 94.6358 99.1978 94.6199 99.2188 94.6041C99.2581 94.5746 99.2962 94.544 99.3331 94.5119C99.354 94.4936 99.3749 94.4755 99.395 94.4565C99.4421 94.4118 99.4872 94.365 99.5296 94.3158C99.5356 94.3087 99.5425 94.3023 99.5485 94.2952C99.5983 94.2361 99.6433 94.173 99.6856 94.1081C99.6896 94.1021 99.6944 94.0967 99.6983 94.0906C99.7069 94.0769 99.7138 94.0627 99.722 94.049C99.7429 94.0144 99.763 93.9797 99.7815 93.9437C99.7937 93.9206 99.8046 93.8974 99.8155 93.8739C99.8315 93.8402 99.8466 93.8063 99.8606 93.7715C99.8714 93.7445 99.8813 93.7174 99.8909 93.6903C99.9019 93.6587 99.9124 93.6269 99.9218 93.5948C99.931 93.5634 99.939 93.5319 99.9464 93.5001C99.9532 93.4712 99.9597 93.4426 99.9651 93.4131C99.9718 93.3771 99.9772 93.3413 99.9819 93.3053C99.9853 93.279 99.9886 93.2526 99.9909 93.2256C99.9942 93.1866 99.996 93.1479 99.997 93.1088C99.9974 93.0921 99.9995 93.0759 99.9995 93.059V37.5136C100 37.512 99.9999 37.5105 99.9999 37.5105ZM86.6597 33.7633L94.5194 37.8739L86.6597 44.3404V33.7633ZM17.2597 30.5572C17.2597 30.5534 17.2597 30.5495 17.2597 30.5457V3.88129H82.721V30.5464C82.721 30.5503 82.721 30.5541 82.721 30.5582V47.5809L58.7756 67.2819L41.188 67.2532L17.2597 47.5653V30.5572ZM13.3209 33.7656V44.3246L5.47928 37.8727L13.3209 33.7656ZM3.93886 41.6616L37.1405 68.9796L3.93886 89.5466V41.6616ZM8.8029 91.1181L41.063 71.1343L58.9201 71.1633L91.1876 91.1181H8.8029ZM96.0612 89.5501L62.8324 69.0006L96.0612 41.6614V89.5501Z" fill="#E5E5E5"/>
</svg>
