<svg width="92" height="79" viewBox="0 0 92 79" fill="none" xmlns="http://www.w3.org/2000/svg">
<path d="M18.0698 14.1345C18.0677 14.116 18.0642 14.0974 18.0614 14.0789C18.0531 14.0239 18.0427 13.9698 18.0294 13.9164C18.0249 13.8984 18.0206 13.8804 18.0155 13.8626C17.9974 13.7977 17.9764 13.7341 17.9514 13.6723C17.9496 13.6679 17.9483 13.6634 17.9465 13.6591C17.9182 13.5906 17.8853 13.5245 17.8488 13.4605C17.8463 13.456 17.8447 13.4511 17.842 13.4466L10.6047 0.902687C10.2826 0.344103 9.68708 6.58382e-08 9.04254 6.58382e-08C8.39818 6.58382e-08 7.80252 0.343924 7.48035 0.902507L0.241319 13.4465C0.238624 13.4509 0.237008 13.4558 0.234492 13.4605C0.198196 13.5243 0.165313 13.5905 0.136923 13.6588C0.135126 13.6633 0.133867 13.6678 0.13207 13.6723C0.107093 13.7337 0.086252 13.7974 0.0681036 13.8621C0.0630724 13.8801 0.0587552 13.8981 0.054263 13.916C0.0413256 13.9691 0.0305483 14.023 0.0222827 14.0777C0.0194077 14.0964 0.0159929 14.1152 0.013657 14.1341C0.00539143 14.2039 -2.63213e-06 14.2745 -2.63213e-06 14.3466C-2.63213e-06 14.3473 -2.63213e-06 14.3481 -2.63213e-06 14.3488V77.1947C-2.63213e-06 78.1914 0.807688 78.9995 1.80387 78.9995H16.2803C17.2767 78.9995 18.0842 78.1912 18.0842 77.1947V14.349C18.0836 14.2761 18.0781 14.205 18.0698 14.1345ZM9.04218 5.41486L13.1554 12.5441H4.9279L9.04218 5.41486ZM7.23849 75.3897H3.60721V16.1538H7.23849V75.3897ZM14.4759 75.3897H10.8464V16.1538H14.4759V75.3897Z" transform="translate(73.916)" fill="#E5E5E5"/>
<path d="M62.2908 -3.29191e-08H5.57405C4.57769 -3.29191e-08 3.77018 0.808301 3.77018 1.80483V14.9606H1.80387C0.807691 14.9606 0 15.7689 0 16.7656C0 17.7623 0.807691 18.5704 1.80387 18.5704H3.77018V26.3277H1.80387C0.807691 26.3275 0 27.1358 0 28.1325C0 29.1292 0.807691 29.9373 1.80387 29.9373H3.77018V37.6949H1.80387C0.807691 37.6948 0 38.5031 0 39.4996C0 40.4963 0.807691 41.3044 1.80387 41.3044H3.77018V49.0618H1.80387C0.807691 49.0618 0 49.8701 0 50.8667C0 51.8634 0.807691 52.6715 1.80387 52.6715H3.77018V60.4288H1.80387C0.807691 60.4288 0 61.2371 0 62.2336C0 63.2301 0.807691 64.0384 1.80387 64.0384H3.77018V77.1944C3.77018 78.1911 4.57787 78.9992 5.57405 78.9992H62.2908C63.2872 78.9992 64.0947 78.1909 64.0947 77.1944V1.80483C64.0947 0.808301 63.2872 -3.29191e-08 62.2908 -3.29191e-08ZM60.487 75.3895H7.37793V64.0386H9.34244C10.3388 64.0386 11.1463 63.2303 11.1463 62.2338C11.1463 61.2371 10.3386 60.4289 9.34244 60.4289H7.37793V52.6715H9.34244C10.3388 52.6715 11.1463 51.8632 11.1463 50.8667C11.1463 49.87 10.3386 49.0618 9.34244 49.0618H7.37793V41.3046H9.34244C10.3388 41.3046 11.1463 40.4963 11.1463 39.4998C11.1463 38.5031 10.3386 37.6949 9.34244 37.6949H7.37793V29.9375H9.34244C10.3388 29.9375 11.1463 29.1292 11.1463 28.1327C11.1463 27.136 10.3386 26.3278 9.34244 26.3278H7.37793V18.5704H9.34244C10.3388 18.5704 11.1463 17.7621 11.1463 16.7656C11.1463 15.7689 10.3386 14.9608 9.34244 14.9608H7.37793V3.60985H60.487V75.3895Z" transform="translate(0 0.000976562)" fill="#E5E5E5"/>
<path d="M23.4022 1.53622e-06H1.80387C0.807511 1.53622e-06 -6.14163e-07 0.808303 -6.14163e-07 1.80484C-6.14163e-07 2.80137 0.80769 3.60967 1.80387 3.60967H23.4022C24.3985 3.60967 25.2061 2.80137 25.2061 1.80484C25.2061 0.808303 24.3985 1.53622e-06 23.4022 1.53622e-06Z" transform="translate(17.9082 60.4292)" fill="#E5E5E5"/>
<path d="M30.2463 -2.10682e-06H1.80387C0.807511 -2.10682e-06 -6.14163e-07 0.808299 -6.14163e-07 1.80483C-6.14163e-07 2.80154 0.80769 3.60967 1.80387 3.60967H30.2461C31.2424 3.60967 32.05 2.80136 32.05 1.80483C32.0501 0.808299 31.2425 -2.10682e-06 30.2463 -2.10682e-06Z" transform="translate(17.9082 49.062)" fill="#E5E5E5"/>
<path d="M30.2463 -2.63353e-07H1.80387C0.807511 -2.63353e-07 -6.14163e-07 0.808301 -6.14163e-07 1.80483C-6.14163e-07 2.80155 0.80769 3.60967 1.80387 3.60967H30.2461C31.2424 3.60967 32.05 2.80137 32.05 1.80483C32.0501 0.808301 31.2425 -2.63353e-07 30.2463 -2.63353e-07Z" transform="translate(17.9082 37.6948)" fill="#E5E5E5"/>
<path d="M30.2463 -1.16314e-06H1.80387C0.807511 -1.16314e-06 -6.14163e-07 0.8083 -6.14163e-07 1.80483C-6.14163e-07 2.80155 0.80769 3.60967 1.80387 3.60967H30.2461C31.2424 3.60967 32.05 2.80137 32.05 1.80483C32.0501 0.8083 31.2425 -1.16314e-06 30.2463 -1.16314e-06Z" transform="translate(17.9082 26.3276)" fill="#E5E5E5"/>
<path d="M30.2463 6.80328e-07H1.80387C0.807511 6.80328e-07 -6.14163e-07 0.808302 -6.14163e-07 1.80483C-6.14163e-07 2.80155 0.80769 3.60967 1.80387 3.60967H30.2461C31.2424 3.60967 32.05 2.80137 32.05 1.80483C32.0501 0.808302 31.2425 6.80328e-07 30.2463 6.80328e-07Z" transform="translate(17.9082 14.9609)" fill="#E5E5E5"/>
<path d="M1.74251 5.26706e-07C-0.57886 5.26706e-07 -0.582813 3.60967 1.74251 3.60967C4.06406 3.60985 4.06783 5.26706e-07 1.74251 5.26706e-07Z" transform="translate(46.4219 60.3462)" fill="#E5E5E5"/>
</svg>
