<svg width="20" height="20" viewBox="0 0 20 20" version="1.1" xmlns="http://www.w3.org/2000/svg" xmlns:xlink="http://www.w3.org/1999/xlink">
<g id="Vector">
<path d="M 1.73427 3.44737C 2.68916 3.44389 3.44967 2.67683 3.44619 1.7199C 3.44271 0.762558 2.68056 0.000819618 1.72527 1.20409e-06C 0.761996 -0.00102181 -0.00731334 0.774835 5.23904e-05 1.74077C 0.00721352 2.69422 0.776319 3.45085 1.73427 3.44737Z" transform="translate(8.27515 4.84033)" fill="#333333"/>
</g>
<g id="Vector_2">
<path d="M 10 0C 4.47714 0 0 4.47734 0 10C 0 15.5227 4.47714 20 10 20C 15.5229 20 20 15.5227 20 10C 20 4.47734 15.5229 0 10 0ZM 10.0143 3.04102C 11.9621 3.04634 13.5255 4.63959 13.5155 6.6089C 13.5057 8.53279 11.9167 10.0921 9.97217 10.0855C 8.04747 10.079 6.46895 8.48327 6.48041 6.5555C 6.49125 4.60665 8.07059 3.0357 10.0143 3.04102ZM 13.9595 11.4695C 13.5288 11.9116 13.0103 12.2316 12.4346 12.4548C 11.8903 12.6658 11.2939 12.772 10.7034 12.8428C 10.7928 12.9397 10.8348 12.9874 10.8904 13.0431C 11.6917 13.8486 12.4968 14.65 13.2953 15.4578C 13.5675 15.7332 13.6241 16.0745 13.4744 16.3943C 13.3109 16.7441 12.944 16.9741 12.5841 16.9494C 12.3562 16.9336 12.1784 16.8205 12.0207 16.6615C 11.4159 16.053 10.7996 15.4553 10.2075 14.8354C 10.0346 14.6549 9.95192 14.6893 9.79949 14.846C 9.1912 15.4725 8.57289 16.089 7.9511 16.7022C 7.67182 16.9776 7.33954 17.0275 7.01545 16.87C 6.6711 16.7034 6.45217 16.3517 6.46895 15.998C 6.48082 15.7594 6.59826 15.5765 6.76235 15.4132C 7.5556 14.6216 8.34639 13.8275 9.13739 13.0341C 9.18997 12.9815 9.23867 12.9256 9.31499 12.8438C 8.23611 12.731 7.26322 12.4655 6.43028 11.8142C 6.32675 11.7332 6.22015 11.655 6.12604 11.5642C 5.76123 11.2141 5.7246 10.8129 6.01289 10.4C 6.25985 10.0464 6.67396 9.95192 7.10465 10.1551C 7.18813 10.1942 7.26752 10.2437 7.34363 10.2961C 8.89575 11.3627 11.0281 11.3919 12.5864 10.3437C 12.7407 10.2259 12.9058 10.1289 13.0971 10.08C 13.4686 9.98425 13.8157 10.1211 14.0149 10.4464C 14.2431 10.8182 14.2404 11.1808 13.9595 11.4695Z" fill="#333333"/>
</g>

</svg>

