<svg width="16" height="20" viewBox="0 0 16 20" version="1.1" xmlns="http://www.w3.org/2000/svg" xmlns:xlink="http://www.w3.org/1999/xlink">
<g id="Canvas" fill="none">
<g id="Group">
<g id="Vector">
<path d="M 3.99726 10.7766C 4.01673 10.7766 4.03621 10.7766 4.05958 10.7766C 4.06737 10.7766 4.07516 10.7766 4.08295 10.7766C 4.09464 10.7766 4.11022 10.7766 4.1219 10.7766C 5.26322 10.7558 6.18639 10.3293 6.86807 9.51336C 8.36774 7.71588 8.11844 4.6345 8.09118 4.34044C 7.9938 2.13295 7.01219 1.07683 6.20197 0.583972C 5.59821 0.215366 4.89317 0.0165666 4.10632 0L 4.07906 0C 4.07516 0 4.06737 0 4.06348 0L 4.0401 0C 3.60773 0 2.75856 0.0745496 1.94445 0.567405C 1.12645 1.06026 0.129259 2.11638 0.0318775 4.34044C 0.00461067 4.6345 -0.244686 7.71588 1.25499 9.51336C 1.93277 10.3293 2.85594 10.7558 3.99726 10.7766ZM 1.07191 4.44398C 1.07191 4.43156 1.07581 4.41913 1.07581 4.41085C 1.20435 1.44129 3.18704 1.12239 4.03621 1.12239L 4.05179 1.12239C 4.05958 1.12239 4.07127 1.12239 4.08295 1.12239C 5.13467 1.14724 6.9226 1.60282 7.04335 4.41085C 7.04335 4.42328 7.04335 4.4357 7.04725 4.44398C 7.05114 4.47298 7.32381 7.28929 6.08512 8.772C 5.59431 9.36012 4.93991 9.65003 4.07906 9.65831C 4.07127 9.65831 4.06737 9.65831 4.05958 9.65831C 4.05179 9.65831 4.04789 9.65831 4.0401 9.65831C 3.18315 9.65003 2.52485 9.36012 2.03794 8.772C 0.80314 7.29758 1.06802 4.46883 1.07191 4.44398Z" transform="translate(3.93452 0)" fill="#333333"/>
</g>
<g id="Vector_2">
<path d="M 15.9989 5.15038C 15.9989 5.14624 15.9989 5.14209 15.9989 5.13795C 15.9989 5.10482 15.995 5.07169 15.995 5.03441C 15.9716 4.21437 15.921 2.29679 14.2305 1.68382C 14.2188 1.67968 14.2032 1.67554 14.1915 1.6714C 12.4347 1.19511 10.974 0.11828 10.9584 0.105855C 10.7208 -0.0722356 10.3936 -0.0101101 10.2261 0.24253C 10.0586 0.49517 10.1171 0.843068 10.3547 1.02116C 10.4209 1.07086 11.9712 2.21809 13.911 2.74822C 14.8186 3.09198 14.9199 4.12325 14.9472 5.06755C 14.9472 5.10482 14.9472 5.13795 14.9511 5.17109C 14.955 5.54383 14.9316 6.11952 14.8693 6.45085C 14.2382 6.83189 11.7648 8.14893 8.00193 8.14893C 4.25469 8.14893 1.76561 6.82774 1.13069 6.44671C 1.06836 6.11538 1.0411 5.53969 1.04889 5.16694C 1.04889 5.13381 1.05278 5.10068 1.05278 5.0634C 1.08005 4.11911 1.18132 3.08784 2.08892 2.74408C 4.02876 2.21395 5.57908 1.06257 5.6453 1.01702C 5.88291 0.838926 5.94134 0.491029 5.77384 0.238388C 5.60635 -0.014252 5.27914 -0.0763762 5.04153 0.101715C 5.02595 0.114139 3.57302 1.19097 1.80846 1.66726C 1.79288 1.6714 1.7812 1.67554 1.76951 1.67968C 0.0789653 2.29678 0.028327 4.21437 0.00495545 5.03027C 0.00495545 5.06755 0.00495536 5.10068 0.0010601 5.13381C 0.0010601 5.13795 0.0010601 5.1421 0.0010601 5.14624C -0.00283517 5.3616 -0.00673035 6.46742 0.199719 7.0224C 0.238671 7.13008 0.308786 7.2212 0.402272 7.28333C 0.51913 7.36616 3.31983 9.26303 8.00583 9.26303C 12.6918 9.26303 15.4925 7.36202 15.6094 7.28333C 15.699 7.2212 15.773 7.13008 15.8119 7.0224C 16.0067 6.47156 16.0028 5.36574 15.9989 5.15038Z" transform="translate(0 10.7369)" fill="#333333"/>
</g>
</g>
</g>
</svg>

