<svg width="42" height="36" viewBox="0 0 42 36" fill="none" xmlns="http://www.w3.org/2000/svg">
<path d="M40.7067 0.0116019C39.8979 -0.0896247 39.1582 0.482728 39.0563 1.2917L38.3572 6.83639C38.1713 6.81783 37.9866 6.80665 37.8043 6.80665C36.9248 6.80665 36.0397 7.01227 35.098 7.43531C34.3004 7.79361 33.5429 8.27486 32.8104 8.74029C32.1369 9.1684 31.5008 9.57246 30.897 9.84387C30.3442 10.0923 29.8552 10.2129 29.4021 10.2129C28.9489 10.2129 28.4601 10.0923 27.9072 9.84387C27.3034 9.57267 26.6673 9.1684 25.9925 8.73966C25.2602 8.27444 24.5029 7.7934 23.7062 7.43552C23.0144 7.12467 22.1628 6.80686 21.0938 6.80686C20.1903 6.80686 19.1958 7.03019 18.2935 7.43552C17.4966 7.7934 16.7393 8.27465 16.0057 8.7405C15.3322 9.16861 14.6961 9.57267 14.0923 9.84408C13.5396 10.0925 13.0506 10.2131 12.5976 10.2131C12.1447 10.2131 11.6557 10.0925 11.1028 9.84408C10.4989 9.57288 9.86282 9.16861 9.18914 8.74071C8.45658 8.27528 7.69932 7.79403 6.90175 7.43573C5.96004 7.01269 5.07467 6.80707 4.19522 6.80707C4.01287 6.80707 3.8282 6.81846 3.64226 6.83681L2.94325 1.29212C2.84131 0.48336 2.10242 -0.0885703 1.29282 0.0120237C0.483435 0.113883 -0.0902061 0.852416 0.0117323 1.66117L2.92996 24.8058C3.28431 27.6163 5.68926 29.7358 8.52433 29.7358H33.4758C36.3109 29.7358 38.7158 27.6163 39.0702 24.8058L41.9884 1.66117C42.0897 0.851994 41.5161 0.113672 40.7067 0.0116019ZM36.138 24.4363C35.9694 25.7742 34.8246 26.7829 33.4754 26.7829H8.5239C7.17443 26.7829 6.0299 25.774 5.86127 24.4363L4.01181 9.76795C4.07323 9.76374 4.13486 9.7591 4.19501 9.7591C4.64792 9.7591 5.13693 9.87972 5.68989 10.1282C6.29329 10.3991 6.92982 10.8034 7.60329 11.2315C8.33565 11.697 9.09269 12.178 9.89089 12.5365C11.7745 13.3828 13.4207 13.3826 15.3035 12.5365C16.1017 12.178 16.859 11.6967 17.592 11.2309C18.2655 10.803 18.9018 10.3987 19.5048 10.1279C20.0191 9.89681 20.613 9.75889 21.0934 9.75889C21.5102 9.75889 21.903 9.86243 22.4943 10.1279C23.0971 10.3987 23.7334 10.8028 24.4077 11.2313C25.1401 11.6967 25.8971 12.1778 26.6953 12.5363C27.6368 12.9593 28.5222 13.165 29.4017 13.165C30.2811 13.165 31.1663 12.9593 32.108 12.5363C32.9062 12.1778 33.6634 11.6965 34.3954 11.2313C35.069 10.8032 35.7056 10.3989 36.309 10.1277C36.8617 9.8793 37.3507 9.75867 37.8039 9.75867C37.8642 9.75867 37.9256 9.76331 37.9871 9.76753L36.138 24.4363Z" fill="black"/>
<path d="M31.8675 8.23785e-07H1.47737C0.661439 8.23785e-07 -6.11877e-08 0.660927 -6.11877e-08 1.47622C-6.11877e-08 2.29152 0.661439 2.95244 1.47737 2.95244H31.8675C32.6834 2.95244 33.3448 2.29152 33.3448 1.47622C33.3448 0.660927 32.6836 8.23785e-07 31.8675 8.23785e-07Z" transform="translate(4.32715 33.0476)" fill="black"/>
</svg>
