<svg width="35" height="36" viewBox="0 0 35 36" fill="none" xmlns="http://www.w3.org/2000/svg">
<path d="M10.0907 0.36792C9.61023 -0.122639 8.83057 -0.122639 8.34972 0.36792L0.360483 8.52164C-0.120191 9.01238 -0.12019 9.80789 0.360659 10.2985C0.600908 10.5438 0.91608 10.6664 1.23108 10.6664C1.54607 10.6664 1.86125 10.5436 2.10167 10.2985L10.0909 2.14473C10.5716 1.65418 10.5716 0.858658 10.0907 0.36792Z" transform="translate(9.05029 13.3875)" fill="black"/>
<path d="M1.2311 9.84398C1.54609 9.84398 1.86127 9.7212 2.10169 9.47601L9.28523 2.14474C9.7659 1.654 9.7659 0.858478 9.28523 0.367919C8.80438 -0.122639 8.02489 -0.122639 7.54404 0.367919L0.360505 7.69919C-0.120168 8.18993 -0.120168 8.98545 0.360505 9.47601C0.600929 9.72138 0.916101 9.84398 1.2311 9.84398Z" transform="translate(12.9736 14.834)" fill="black"/>
<path d="M0.360637 19.6816C0.601061 19.927 0.916234 20.0496 1.23123 20.0496C1.54623 20.0496 1.8614 19.9268 2.10182 19.6816L9.28536 12.3503C9.31948 12.3155 9.35061 12.2787 9.37999 12.2408L9.80033 12.2518C10.4775 12.2703 11.0452 11.7219 11.0628 11.028C11.0802 10.3343 10.5434 9.75754 9.86365 9.73977L4.72134 9.60497C3.9306 9.58415 3.22709 9.15569 2.81729 8.51256L8.26457 7.12974C8.34512 7.10928 8.42339 7.08074 8.49814 7.04412L17.2556 2.77341L22.031 7.64722C18.9002 12.2157 15.3618 16.5225 11.5018 20.4619L10.0082 21.9861C9.52755 22.4767 9.52755 23.2724 10.0082 23.763C10.2486 24.0083 10.5638 24.1309 10.8788 24.1309C11.1938 24.1309 11.509 24.0082 11.7494 23.763L13.243 22.2387C17.4508 17.9443 21.2867 13.2238 24.6442 8.2085C24.978 7.70951 24.9168 7.03856 24.4982 6.61136L18.3809 0.368C18.0115 -0.00857955 17.4499 -0.106763 16.9795 0.12281L7.54892 4.72182L0.934173 6.40081C0.335486 6.55284 -0.0604138 7.13351 0.00765082 7.75923C0.271819 10.181 2.27102 12.0544 4.65785 12.1168L5.99716 12.152L0.360637 17.9046C-0.120212 18.3954 -0.120212 19.1911 0.360637 19.6816Z" transform="translate(8.43848)" fill="black"/>
<path d="M33.9223 0.00991014C33.2494 -0.0762472 32.6321 0.410902 32.547 1.09944L30.8251 15.0478H4.17459L2.45275 1.09944C2.36763 0.410902 1.75083 -0.0764267 1.07739 0.00991014C0.402725 0.096606 -0.07531 0.725017 0.00981468 1.41356L2.4415 21.1127C2.73697 23.5048 4.74109 25.3088 7.10366 25.3088H27.8964C30.259 25.3088 32.2631 23.5048 32.5586 21.1127L34.9903 1.41356C35.075 0.725017 34.597 0.096606 33.9223 0.00991014ZM27.8962 22.7958H7.10348C5.97892 22.7958 5.02496 21.9371 4.88443 20.7986L4.48484 17.5605H30.5151L30.1155 20.7986C29.9748 21.9371 29.0206 22.7958 27.8962 22.7958Z" transform="translate(0 10.6914)" fill="black"/>
</svg>
