<svg width="49" height="43" viewBox="0 0 49 43" fill="none" xmlns="http://www.w3.org/2000/svg">
<path d="M2.20721 4.43193C3.42622 4.43193 4.41442 3.43981 4.41442 2.21597C4.41442 0.992122 3.42622 0 2.20721 0C0.988201 0 0 0.992122 0 2.21597C0 3.43981 0.988201 4.43193 2.20721 4.43193Z" transform="translate(14.7881 21.1946)" fill="black"/>
<path d="M2.20721 4.43193C3.42622 4.43193 4.41442 3.43981 4.41442 2.21597C4.41442 0.992122 3.42622 0 2.20721 0C0.988201 0 0 0.992122 0 2.21597C0 3.43981 0.988201 4.43193 2.20721 4.43193Z" transform="translate(32.0044 21.1946)" fill="black"/>
<path d="M48.9569 31.3664L44.8367 14.2051C44.7826 13.9799 44.6791 13.7701 44.5337 13.5904C42.7641 11.4043 40.6349 9.61137 38.2665 8.26472L42.0892 2.40061C42.5565 1.68375 42.3565 0.72224 41.6427 0.253341C40.9289 -0.215557 39.9711 -0.0150125 39.5039 0.701631L35.4506 6.91963C32.9174 5.92466 30.1903 5.39704 27.3863 5.39704H11.833C10.9797 5.39704 10.2879 6.09153 10.2879 6.94822C10.2879 7.80491 10.9797 8.4994 11.833 8.4994H27.3863C29.5752 8.4994 31.7087 8.87567 33.7135 9.58433L31.4754 13.0178H18.5047C13.8583 13.0178 9.41874 14.7599 6.00397 17.9235C2.5892 21.087 0.503383 25.3899 0.130586 30.0399L0.0049956 31.6059C-0.0296576 32.0376 0.117122 32.4642 0.409577 32.7824C0.702032 33.1006 1.11368 33.2817 1.54519 33.2817H18.2661L13.4955 40.5992C13.0282 41.3161 13.2282 42.2776 13.942 42.7465C14.2031 42.918 14.4964 43 14.7867 43C15.2904 43 15.7846 42.7529 16.0808 42.2982L21.9588 33.2812H47.4549C47.9284 33.2812 48.3758 33.0634 48.6687 32.6898C48.9618 32.3162 49.0679 31.8286 48.9569 31.3664ZM36.5685 10.8698C37.6662 11.4785 38.7075 12.1941 39.6725 13.0173H35.1687L36.5685 10.8698ZM3.2198 30.1786C3.90911 22.2858 10.6016 16.1197 18.5047 16.1197H29.4534L20.2886 30.1786H3.2198ZM23.9815 30.1786L33.1462 16.1197H42.1179L45.4931 30.1786H23.9815Z" fill="black"/>
</svg>
