<?xml version="1.0" standalone="no"?>
<!DOCTYPE svg PUBLIC "-//W3C//DTD SVG 20010904//EN"
 "http://www.w3.org/TR/2001/REC-SVG-20010904/DTD/svg10.dtd">
<svg version="1.0" xmlns="http://www.w3.org/2000/svg"
 width="200.000000pt" height="200.000000pt" viewBox="0 0 200.000000 200.000000"
 preserveAspectRatio="xMidYMid meet">
<metadata>
Created by potrace 1.11, written by Peter Selinger 2001-2013
</metadata>
<g transform="translate(0.000000,200.000000) scale(0.100000,-0.100000)"
fill="#000000" stroke="none">
<path d="M42 1762 c-47 -5 -50 -26 -10 -64 76 -73 109 -193 102 -373 -4 -107
-9 -182 -14 -210 -11 -52 22 -106 85 -138 37 -19 133 -43 160 -41 279 24 306
24 383 -2 67 -23 90 -41 116 -92 14 -28 14 -32 0 -46 -24 -25 -36 -20 -89 35
-75 75 -107 92 -176 91 -32 0 -67 -6 -78 -12 -12 -6 -21 -8 -21 -5 0 8 -59
-32 -80 -54 -37 -37 -50 -67 -50 -111 0 -41 7 -55 60 -124 33 -43 60 -81 61
-85 0 -3 3 -15 5 -26 11 -49 10 -71 -7 -135 -24 -93 -13 -147 38 -184 l27 -20
20 30 c31 44 101 111 145 139 59 37 111 85 138 128 20 32 25 56 30 130 5 100
24 173 51 203 29 32 39 67 36 129 -4 72 -24 174 -35 181 -5 3 -9 14 -9 25 0
25 -62 138 -111 204 -80 108 -227 245 -324 305 -111 68 -213 102 -346 116 -35
3 -66 7 -69 8 -3 1 -20 0 -38 -2z m465 -253 c45 -26 183 -153 183 -170 0 -3 9
-16 20 -29 27 -31 25 -46 -2 -19 -56 54 -144 109 -210 134 -154 56 -174 68
-162 100 16 41 80 35 171 -16z m130 -250 c29 -9 133 -98 133 -113 0 -4 -19 4
-42 18 -24 13 -67 31 -97 40 -74 22 -106 43 -91 61 12 14 40 12 97 -6z m-238
-59 c44 -17 85 -38 93 -47 7 -9 8 -14 2 -10 -22 13 -112 19 -241 16 -33 -1
-66 2 -72 5 -19 12 -12 34 17 49 46 25 115 20 201 -13z m378 -617 c-2 -5 -12
-26 -22 -48 -15 -34 -58 -83 -75 -86 -3 0 -13 -2 -23 -4 -10 -2 -22 6 -28 17
-14 26 13 54 91 97 60 33 63 35 57 24z"/>
<path d="M1858 1764 c-3 -3 -21 -8 -40 -10 -39 -6 -147 -32 -168 -41 -8 -3
-17 -7 -20 -8 -20 -6 -116 -58 -162 -88 -66 -44 -232 -207 -286 -280 -56 -76
-155 -277 -137 -277 2 0 0 -12 -6 -27 -5 -14 -10 -63 -11 -108 -1 -78 1 -83
38 -139 36 -55 39 -63 44 -160 9 -154 39 -203 180 -299 75 -51 91 -65 123
-115 l28 -43 29 18 c53 31 67 97 40 184 -16 52 -18 97 -6 144 3 12 33 57 66
101 61 79 64 86 60 139 -6 91 -109 164 -235 168 -43 1 -105 -19 -105 -34 0 -5
-4 -9 -10 -9 -5 0 -30 -22 -56 -50 -50 -54 -64 -59 -88 -34 -14 14 -14 18 1
47 47 93 150 123 353 103 41 -4 93 -8 115 -9 49 -3 144 17 188 39 43 22 87 70
88 97 2 31 -2 78 -8 102 -3 11 -6 82 -8 157 -4 189 25 288 108 372 39 40 31
51 -39 51 -32 0 -62 3 -65 8 -3 4 -8 5 -11 1z m-200 -227 c35 -28 -10 -65
-123 -99 -69 -21 -168 -79 -234 -138 -18 -16 -35 -30 -37 -30 -8 0 60 87 105
135 111 119 234 175 289 132z m-191 -283 c3 -10 -26 -24 -111 -54 -32 -11 -74
-30 -94 -42 l-37 -22 22 29 c32 45 77 78 130 96 45 16 83 13 90 -7z m328 -38
c24 -10 35 -22 35 -35 0 -17 -5 -20 -30 -17 -16 2 -30 0 -30 -3 0 -4 -15 -6
-32 -4 -74 7 -197 1 -216 -11 -6 -3 -13 -3 -16 2 -5 8 60 41 129 66 54 18 118
19 160 2z m-446 -701 c35 -30 37 -37 16 -59 -34 -34 -101 20 -135 108 l-10 26
49 -24 c26 -14 62 -37 80 -51z"/>
</g>
</svg>
