<svg width="16" height="25" viewBox="0 0 16 25" version="1.1" xmlns="http://www.w3.org/2000/svg" xmlns:xlink="http://www.w3.org/1999/xlink">
<g id="Canvas" fill="none">
<g id="Vector">
<path d="M 1.70783 25C 1.6306 25 1.55336 24.9833 1.48411 24.9485C 1.29856 24.8562 1.21688 24.6646 1.29057 24.492L 5.92756 13.6216L 0.322863 12.2582C 0.178151 12.2233 0.063625 12.1279 0.0192349 12.0053C -0.0242674 11.8827 0.00680629 11.7487 0.104465 11.6503L 11.4728 0.134069C 11.6077 -0.00295645 11.8368 -0.0385376 12.0214 0.0439804C 12.2061 0.128012 12.2975 0.311975 12.2389 0.483067L 8.96118 10.1786L 14.5961 11.5496C 14.7417 11.5844 14.8562 11.6805 14.8997 11.8039C 14.9441 11.9273 14.9103 12.0621 14.8118 12.1597L 2.0452 24.8683C 1.95819 24.9538 1.8339 25 1.70783 25ZM 1.22487 11.6904L 6.62892 13.0039C 6.74789 13.0326 6.84643 13.1023 6.90325 13.1954C 6.95918 13.2893 6.96717 13.3983 6.92456 13.4967L 2.95964 22.7917L 13.6869 12.1136L 8.29 10.8016C 8.17636 10.7743 8.08048 10.7092 8.02277 10.6214C 7.96506 10.5336 7.95175 10.4299 7.9846 10.333L 10.8078 1.98353L 1.22487 11.6904Z" transform="translate(0.918945 0)" fill="#949494"/>
</g>
</g>
</svg>

