<?xml version="1.0" encoding="UTF-8"?><!DOCTYPE svg PUBLIC "-//W3C//DTD SVG 1.1//EN" "http://www.w3.org/Graphics/SVG/1.1/DTD/svg11.dtd"><svg xmlns="http://www.w3.org/2000/svg"><symbol id="icon-basket" viewBox="0 0 19 20">
    <path d="M18.994 18.702L17.71 5.85c-.061-.66-.645-1.197-1.302-1.197h-1.624C14.516 2.031 12.304 0 9.677 0S4.838 2.03 4.571 4.653H2.593c-.668 0-1.24.526-1.302 1.196L.005 18.703c-.031.341.075.665.298.913.223.248.533.384.873.384h16.649c.34 0 .65-.136.873-.384.223-.247.328-.571.296-.914zM9.677 1.071c2.04 0 3.778 1.558 4.04 3.582h-8.08c.262-2.024 2.001-3.582 4.04-3.582zm-7.33 4.88l-.025-.003.024.002a.264.264 0 0 1 .247-.226h1.95v1.17A1.607 1.607 0 0 0 3.48 8.41c0 .887.714 1.609 1.592 1.609.878 0 1.592-.722 1.592-1.61 0-.685-.43-1.29-1.062-1.515v-1.17h8.15v1.17A1.607 1.607 0 0 0 12.69 8.41c0 .887.715 1.609 1.593 1.609s1.592-.722 1.592-1.61c0-.685-.43-1.29-1.062-1.515v-1.17h1.595c.114 0 .236.112.247.227l1.285 12.852c.003.027 0 .064-.025.092-.025.028-.063.034-.09.034H1.176c-.027 0-.064-.006-.09-.034a.12.12 0 0 1-.026-.091L2.346 5.951zm2.35 2.837c.1.101.234.157.375.157.292 0 .53-.24.53-.535v-.058a.536.536 0 0 1-.53.596.536.536 0 0 1-.53-.596v.058c0 .143.055.277.156.378zm9.21 0c.1.101.233.157.375.157.292 0 .53-.24.53-.535v-.058a.536.536 0 0 1-.53.596.536.536 0 0 1-.53-.596v.058c0 .143.055.277.155.378z"/>
</symbol><symbol id="icon-buy-express" viewBox="0 0 17 18">
    <path d="M16.995 16.832l-1.15-11.567c-.055-.594-.577-1.077-1.165-1.077h-1.453C12.987 1.828 11.01 0 8.66 0 6.308 0 4.329 1.828 4.09 4.188H2.32c-.598 0-1.11.473-1.165 1.076L.005 16.833a1.07 1.07 0 0 0 .266.821c.2.223.477.346.78.346h14.897c.305 0 .582-.123.782-.345.2-.223.293-.515.265-.823zM8.66.964c1.824 0 3.38 1.402 3.614 3.224H5.044C5.278 2.366 6.834.964 8.66.964zm-6.56 4.392l-.021-.002h.021a.236.236 0 0 1 .221-.203h1.744v1.054c-.565.202-.95.747-.95 1.364 0 .798.639 1.448 1.424 1.448.786 0 1.425-.65 1.425-1.448 0-.617-.385-1.162-.95-1.364V5.15h7.292v1.054c-.566.202-.951.747-.951 1.364 0 .798.639 1.448 1.425 1.448.785 0 1.424-.65 1.424-1.448 0-.617-.385-1.162-.95-1.364V5.15h1.427c.102 0 .211.101.22.205l1.151 11.567c.002.024 0 .058-.022.083-.023.025-.057.03-.081.03H1.052c-.024 0-.057-.005-.08-.03a.108.108 0 0 1-.023-.082l1.15-11.568zM4.203 7.91c.09.09.209.14.335.14a.479.479 0 0 0 .474-.481v-.052a.481.481 0 0 1-.474.536.481.481 0 0 1-.474-.536v.052c0 .128.05.25.14.34zm8.24 0c.09.09.209.14.336.14a.479.479 0 0 0 .474-.481v-.052a.481.481 0 0 1-.474.537.481.481 0 0 1-.474-.537v.052c0 .128.049.25.138.34z"/>
</symbol><symbol id="icon-buy" viewBox="0 0 17 18">
    <path d="M16.995 16.832l-1.15-11.567c-.055-.594-.577-1.077-1.165-1.077h-1.453C12.987 1.828 11.01 0 8.66 0 6.308 0 4.329 1.828 4.09 4.188H2.32c-.598 0-1.11.473-1.165 1.076L.005 16.833a1.07 1.07 0 0 0 .266.821c.2.223.477.346.78.346h14.897c.305 0 .582-.123.782-.345.2-.223.293-.515.265-.823zM8.66.964c1.824 0 3.38 1.402 3.614 3.224H5.044C5.278 2.366 6.834.964 8.66.964zm-6.56 4.392l-.021-.002h.021a.236.236 0 0 1 .221-.203h1.744v1.054c-.565.202-.95.747-.95 1.364 0 .798.639 1.448 1.424 1.448.786 0 1.425-.65 1.425-1.448 0-.617-.385-1.162-.95-1.364V5.15h7.292v1.054c-.566.202-.951.747-.951 1.364 0 .798.639 1.448 1.425 1.448.785 0 1.424-.65 1.424-1.448 0-.617-.385-1.162-.95-1.364V5.15h1.427c.102 0 .211.101.22.205l1.151 11.567c.002.024 0 .058-.022.083-.023.025-.057.03-.081.03H1.052c-.024 0-.057-.005-.08-.03a.108.108 0 0 1-.023-.082l1.15-11.568zM4.203 7.91c.09.09.209.14.335.14a.479.479 0 0 0 .474-.481v-.052a.481.481 0 0 1-.474.536.481.481 0 0 1-.474-.536v.052c0 .128.05.25.14.34zm8.24 0c.09.09.209.14.336.14a.479.479 0 0 0 .474-.481v-.052a.481.481 0 0 1-.474.537.481.481 0 0 1-.474-.537v.052c0 .128.049.25.138.34z"/>
</symbol><symbol id="icon-dots" viewBox="0 0 26 5.7">
    <path d="M23.4 5.4c-1.4 0-2.6-1.1-2.6-2.5S22 .4 23.4.4 26 1.5 26 2.9s-1.2 2.5-2.6 2.5zM13 5.4c-1.4 0-2.6-1.1-2.6-2.5S11.6.4 13 .4s2.6 1.1 2.6 2.5-1.2 2.5-2.6 2.5zm-10.4 0C1.2 5.4 0 4.3 0 2.9S1.2.4 2.6.4s2.6 1.1 2.6 2.5S4 5.4 2.6 5.4z"/>
</symbol><symbol id="icon-facebook" viewBox="0 0 20 20">
    <path d="M10 0C4.486 0 0 4.486 0 10s4.486 10 10 10 10-4.486 10-10S15.514 0 10 0zm2.487 10.352H10.86v5.799H8.45v-5.799H7.302v-2.05H8.45V6.978c0-.95.451-2.433 2.433-2.433l1.787.007v1.99h-1.297c-.211 0-.511.105-.511.558v1.204h1.837l-.211 2.05z"/>
</symbol><symbol id="icon-fb" viewBox="0 0 20 20">
    <path d="M10 0C4.486 0 0 4.486 0 10s4.486 10 10 10 10-4.486 10-10S15.514 0 10 0zm2.487 10.352H10.86v5.799H8.45v-5.799H7.302v-2.05H8.45V6.978c0-.95.451-2.433 2.433-2.433l1.787.007v1.99h-1.297c-.211 0-.511.105-.511.558v1.204h1.837l-.211 2.05z"/>
</symbol><symbol id="icon-insta" viewBox="0 0 20 20">
    <g>
        <path d="M12.98 5.32H7.02c-.952 0-1.726.775-1.726 1.726v5.961c0 .952.774 1.726 1.726 1.726h5.96c.952 0 1.726-.774 1.726-1.726v-5.96c0-.952-.774-1.726-1.725-1.726zM10 13.126a3.102 3.102 0 0 1-3.098-3.098A3.102 3.102 0 0 1 10 6.928a3.102 3.102 0 0 1 3.099 3.099A3.102 3.102 0 0 1 10 13.125zm3.198-5.556a.734.734 0 1 1 .002-1.468.734.734 0 0 1-.002 1.468z"/>
        <path d="M10 8.238c-.986 0-1.79.802-1.79 1.789 0 .986.804 1.79 1.79 1.79.987 0 1.789-.804 1.789-1.79s-.803-1.79-1.789-1.79z"/>
        <path d="M10 0C4.477 0 0 4.477 0 10s4.477 10 10 10 10-4.477 10-10S15.523 0 10 0zm6.015 13.007a3.038 3.038 0 0 1-3.035 3.035H7.02a3.038 3.038 0 0 1-3.035-3.035v-5.96A3.038 3.038 0 0 1 7.02 4.011h5.96a3.038 3.038 0 0 1 3.035 3.035v5.96z"/>
    </g>
</symbol><symbol id="icon-ok" viewBox="0 0 20 20">
    <path d="M10.01 8.288A1.712 1.712 0 0 0 11.72 6.56a1.715 1.715 0 0 0-1.72-1.72 1.718 1.718 0 0 0-1.726 1.741c.007.954.776 1.71 1.734 1.707z"/>
    <path d="M10 0C4.477 0 0 4.477 0 10s4.477 10 10 10 10-4.477 10-10S15.523 0 10 0zm.014 3.041c1.948.005 3.511 1.599 3.502 3.568-.01 1.924-1.6 3.483-3.544 3.476-1.925-.006-3.503-1.602-3.492-3.53a3.528 3.528 0 0 1 3.534-3.514zm3.946 8.428c-.431.443-.95.763-1.525.986-.545.21-1.141.317-1.732.388.09.097.132.144.187.2.802.806 1.607 1.607 2.405 2.415.273.275.33.617.18.936-.164.35-.531.58-.89.555-.229-.015-.407-.129-.564-.288-.605-.608-1.221-1.206-1.814-1.826-.172-.18-.255-.146-.408.011-.608.627-1.226 1.243-1.848 1.856-.28.276-.611.325-.936.168-.344-.167-.563-.518-.546-.872.012-.239.13-.421.293-.585.794-.791 1.584-1.585 2.375-2.379.053-.053.102-.108.178-.19-1.079-.113-2.052-.378-2.885-1.03-.103-.08-.21-.159-.304-.25-.365-.35-.401-.751-.113-1.164.247-.354.661-.448 1.092-.245.083.04.163.089.239.141 1.552 1.067 3.684 1.096 5.242.048.155-.118.32-.215.511-.264a.8.8 0 0 1 .918.366c.228.372.225.735-.056 1.024z"/>
</symbol><symbol id="icon-sign" viewBox="0 0 16 20">
    <g>
        <path d="M7.932 10.777h.125c1.14-.021 2.064-.448 2.746-1.264 1.5-1.797 1.25-4.878 1.223-5.173-.098-2.207-1.08-3.263-1.89-3.756C9.533.215 8.828.017 8.041 0h-.066c-.433 0-1.282.075-2.096.567-.818.493-1.815 1.55-1.913 3.773-.027.295-.276 3.376 1.224 5.173.677.816 1.6 1.243 2.742 1.264zM5.006 4.444c0-.012.004-.025.004-.033.129-2.97 2.112-3.289 2.96-3.289h.047c1.052.025 2.84.48 2.96 3.289 0 .012 0 .025.005.033.004.029.276 2.845-.962 4.328-.491.588-1.146.878-2.006.886h-.04c-.856-.008-1.515-.298-2.002-.886-1.234-1.474-.97-4.303-.966-4.328z"/>
        <path d="M15.999 15.887v-.012c0-.033-.004-.066-.004-.104-.023-.82-.074-2.737-1.764-3.35l-.04-.013c-1.756-.476-3.217-1.553-3.233-1.565a.506.506 0 0 0-.732.136.581.581 0 0 0 .129.78c.066.049 1.616 1.196 3.556 1.726.908.344 1.009 1.375 1.036 2.32 0 .037 0 .07.004.103.004.373-.02.948-.082 1.28-.63.38-3.104 1.698-6.867 1.698-3.747 0-6.236-1.321-6.871-1.702-.063-.332-.09-.907-.082-1.28 0-.033.004-.066.004-.104.027-.944.128-1.975 1.036-2.319 1.94-.53 3.49-1.682 3.556-1.727a.581.581 0 0 0 .129-.779.506.506 0 0 0-.732-.136c-.016.012-1.469 1.089-3.234 1.565-.015.004-.027.008-.038.013-1.691.617-1.742 2.534-1.765 3.35 0 .037 0 .07-.004.104v.012c-.004.216-.008 1.321.199 1.876.039.108.109.2.202.261C.52 18.103 3.32 20 8.006 20s7.486-1.901 7.603-1.98a.548.548 0 0 0 .203-.26c.195-.552.19-1.657.187-1.873z"/>
    </g>
</symbol><symbol id="icon-star" viewBox="0 0 17 16">
    <path clip-rule="evenodd" d="M8.493 1.617l1.434 4.411.112.345h5.004L11.29 9.1l-.294.213.113.346 1.434 4.41-3.756-2.726-.293-.213-.294.213-3.756 2.726 1.435-4.41.112-.346-.294-.213-3.754-2.726h5.004l.112-.345 1.435-4.411z" stroke-miterlimit="8"/>
</symbol><symbol id="icon-twitter" viewBox="0 0 49.3 40">
    <path d="M49.3 4.7c-1.8.8-3.8 1.3-5.8 1.6 2.1-1.2 3.7-3.2 4.4-5.6-2 1.2-4.1 2-6.4 2.5C39.6 1.2 37 0 34.1 0 28.5 0 24 4.5 24 10.1c0 .8.1 1.6.3 2.3C15.9 12 8.4 8 3.4 1.8c-.8 1.5-1.3 3.3-1.3 5.1 0 3.5 1.8 6.6 4.5 8.4-1.7-.1-3.2-.5-4.6-1.3v.1c0 4.9 3.5 9 8.1 9.9-.8.2-1.7.4-2.7.4-.7 0-1.3-.1-1.9-.2 1.3 4 5 6.9 9.4 7-3.5 2.7-7.8 4.3-12.6 4.3-.8 0-1.6 0-2.4-.1 4.6 3 9.9 4.6 15.6 4.6 18.6 0 28.8-15.4 28.8-28.8V9.9c1.9-1.4 3.6-3.1 5-5.2z"/>
</symbol><symbol id="icon-vk" viewBox="0 0 20 20">
    <path d="M10 0C4.477 0 0 4.477 0 10s4.477 10 10 10 10-4.477 10-10S15.523 0 10 0zm5.072 11.082c.467.455.96.883 1.378 1.385.186.223.36.452.493.71.19.37.019.774-.311.795h-2.049c-.529.044-.95-.17-1.305-.531-.283-.289-.546-.597-.82-.895a1.911 1.911 0 0 0-.368-.328c-.28-.182-.522-.126-.682.166-.163.297-.2.626-.216.956-.022.483-.168.61-.653.632-1.035.049-2.018-.108-2.931-.63-.806-.461-1.43-1.111-1.973-1.847-1.058-1.435-1.869-3.01-2.597-4.63-.164-.364-.044-.56.358-.567a57.006 57.006 0 0 1 2.006 0c.272.004.453.16.557.416.361.89.804 1.735 1.36 2.52.147.208.298.417.513.564.238.163.419.11.53-.156.072-.168.103-.348.119-.529a7.896 7.896 0 0 0-.033-1.851c-.057-.385-.274-.634-.658-.707-.196-.037-.167-.11-.072-.221.165-.193.32-.313.63-.313h2.314c.365.071.446.235.496.602l.002 2.573c-.004.142.072.563.327.656.204.068.34-.096.462-.226.555-.589.95-1.284 1.305-2.003.156-.318.29-.646.422-.975.097-.244.248-.363.523-.36l2.229.004c.066 0 .132 0 .197.011.376.065.479.226.363.593-.183.576-.538 1.055-.886 1.536-.372.515-.77 1.011-1.138 1.529-.339.472-.312.71.108 1.12z"/>
</symbol></svg>