<?xml version="1.0" encoding="UTF-8"?><!DOCTYPE svg PUBLIC "-//W3C//DTD SVG 1.1//EN" "http://www.w3.org/Graphics/SVG/1.1/DTD/svg11.dtd"><svg xmlns="http://www.w3.org/2000/svg"><symbol id="icon-basket" viewBox="0 0 19 20">
    <path d="M18.994 18.702L17.71 5.85c-.061-.66-.645-1.197-1.302-1.197h-1.624C14.516 2.031 12.304 0 9.677 0S4.838 2.03 4.571 4.653H2.593c-.668 0-1.24.526-1.302 1.196L.005 18.703c-.031.341.075.665.298.913.223.248.533.384.873.384h16.649c.34 0 .65-.136.873-.384.223-.247.328-.571.296-.914zM9.677 1.071c2.04 0 3.778 1.558 4.04 3.582h-8.08c.262-2.024 2.001-3.582 4.04-3.582zm-7.33 4.88l-.025-.003.024.002a.264.264 0 0 1 .247-.226h1.95v1.17A1.607 1.607 0 0 0 3.48 8.41c0 .887.714 1.609 1.592 1.609.878 0 1.592-.722 1.592-1.61 0-.685-.43-1.29-1.062-1.515v-1.17h8.15v1.17A1.607 1.607 0 0 0 12.69 8.41c0 .887.715 1.609 1.593 1.609s1.592-.722 1.592-1.61c0-.685-.43-1.29-1.062-1.515v-1.17h1.595c.114 0 .236.112.247.227l1.285 12.852c.003.027 0 .064-.025.092-.025.028-.063.034-.09.034H1.176c-.027 0-.064-.006-.09-.034a.12.12 0 0 1-.026-.091L2.346 5.951zm2.35 2.837c.1.101.234.157.375.157.292 0 .53-.24.53-.535v-.058a.536.536 0 0 1-.53.596.536.536 0 0 1-.53-.596v.058c0 .143.055.277.156.378zm9.21 0c.1.101.233.157.375.157.292 0 .53-.24.53-.535v-.058a.536.536 0 0 1-.53.596.536.536 0 0 1-.53-.596v.058c0 .143.055.277.155.378z"/>
</symbol><symbol id="icon-buy-express" viewBox="0 0 17 18">
    <path d="M16.995 16.832l-1.15-11.567c-.055-.594-.577-1.077-1.165-1.077h-1.453C12.987 1.828 11.01 0 8.66 0 6.308 0 4.329 1.828 4.09 4.188H2.32c-.598 0-1.11.473-1.165 1.076L.005 16.833a1.07 1.07 0 0 0 .266.821c.2.223.477.346.78.346h14.897c.305 0 .582-.123.782-.345.2-.223.293-.515.265-.823zM8.66.964c1.824 0 3.38 1.402 3.614 3.224H5.044C5.278 2.366 6.834.964 8.66.964zm-6.56 4.392l-.021-.002h.021a.236.236 0 0 1 .221-.203h1.744v1.054c-.565.202-.95.747-.95 1.364 0 .798.639 1.448 1.424 1.448.786 0 1.425-.65 1.425-1.448 0-.617-.385-1.162-.95-1.364V5.15h7.292v1.054c-.566.202-.951.747-.951 1.364 0 .798.639 1.448 1.425 1.448.785 0 1.424-.65 1.424-1.448 0-.617-.385-1.162-.95-1.364V5.15h1.427c.102 0 .211.101.22.205l1.151 11.567c.002.024 0 .058-.022.083-.023.025-.057.03-.081.03H1.052c-.024 0-.057-.005-.08-.03a.108.108 0 0 1-.023-.082l1.15-11.568zM4.203 7.91c.09.09.209.14.335.14a.479.479 0 0 0 .474-.481v-.052a.481.481 0 0 1-.474.536.481.481 0 0 1-.474-.536v.052c0 .128.05.25.14.34zm8.24 0c.09.09.209.14.336.14a.479.479 0 0 0 .474-.481v-.052a.481.481 0 0 1-.474.537.481.481 0 0 1-.474-.537v.052c0 .128.049.25.138.34z"/>
</symbol><symbol id="icon-buy" viewBox="0 0 17 18">
    <path d="M16.995 16.832l-1.15-11.567c-.055-.594-.577-1.077-1.165-1.077h-1.453C12.987 1.828 11.01 0 8.66 0 6.308 0 4.329 1.828 4.09 4.188H2.32c-.598 0-1.11.473-1.165 1.076L.005 16.833a1.07 1.07 0 0 0 .266.821c.2.223.477.346.78.346h14.897c.305 0 .582-.123.782-.345.2-.223.293-.515.265-.823zM8.66.964c1.824 0 3.38 1.402 3.614 3.224H5.044C5.278 2.366 6.834.964 8.66.964zm-6.56 4.392l-.021-.002h.021a.236.236 0 0 1 .221-.203h1.744v1.054c-.565.202-.95.747-.95 1.364 0 .798.639 1.448 1.424 1.448.786 0 1.425-.65 1.425-1.448 0-.617-.385-1.162-.95-1.364V5.15h7.292v1.054c-.566.202-.951.747-.951 1.364 0 .798.639 1.448 1.425 1.448.785 0 1.424-.65 1.424-1.448 0-.617-.385-1.162-.95-1.364V5.15h1.427c.102 0 .211.101.22.205l1.151 11.567c.002.024 0 .058-.022.083-.023.025-.057.03-.081.03H1.052c-.024 0-.057-.005-.08-.03a.108.108 0 0 1-.023-.082l1.15-11.568zM4.203 7.91c.09.09.209.14.335.14a.479.479 0 0 0 .474-.481v-.052a.481.481 0 0 1-.474.536.481.481 0 0 1-.474-.536v.052c0 .128.05.25.14.34zm8.24 0c.09.09.209.14.336.14a.479.479 0 0 0 .474-.481v-.052a.481.481 0 0 1-.474.537.481.481 0 0 1-.474-.537v.052c0 .128.049.25.138.34z"/>
</symbol><symbol id="icon-dots" viewBox="0 0 26 5.7">
    <path d="M23.4 5.4c-1.4 0-2.6-1.1-2.6-2.5S22 .4 23.4.4 26 1.5 26 2.9s-1.2 2.5-2.6 2.5zM13 5.4c-1.4 0-2.6-1.1-2.6-2.5S11.6.4 13 .4s2.6 1.1 2.6 2.5-1.2 2.5-2.6 2.5zm-10.4 0C1.2 5.4 0 4.3 0 2.9S1.2.4 2.6.4s2.6 1.1 2.6 2.5S4 5.4 2.6 5.4z"/>
</symbol><symbol id="icon-dress" viewBox="0 0 100 113">
    <path fill-rule="evenodd" clip-rule="evenodd" d="M48.335 109.578l-.001.014c-.04.487.124.969.453 1.327.33.36.793.564 1.28.564h48.195c.486 0 .95-.204 1.279-.564.33-.358.493-.84.453-1.326v-.013c-.038-.439-.987-11.584-3.025-25.237-2.28-15.27-4.964-27.569-7.998-36.684l4.28-1.433a1.744 1.744 0 0 0 1.185-1.569l1.535-30.823c.224-4.514-2.933-8.587-7.346-9.474l-2.481-.499-3.336-3.35A1.726 1.726 0 0 0 81.578 0H66.75c-.445 0-.89.17-1.23.511l-3.257 3.273-2.87.576c-4.413.887-7.57 4.96-7.346 9.473l1.535 30.824a1.743 1.743 0 0 0 1.186 1.57l4.558 1.525c-3.021 9.106-5.694 21.373-7.967 36.59-2.036 13.638-2.984 24.774-3.024 25.236zM65.231 5.74l1.518-1.526 4.957 4.979-2.653 2.665a.105.105 0 0 1-.096.034c-.057-.008-.076-.041-.085-.056L65.231 5.74zm8.933.985l-3.219-3.234h6.439l-3.22 3.234zm2.458 2.468l4.957-4.98L83.1 5.74l-3.642 6.096a.108.108 0 0 1-.086.056.107.107 0 0 1-.096-.034l-2.653-2.665zM92.5 13.66L91.024 43.29l-3.216 1.077c-.26-.69-.52-1.358-.785-2.003V35.36l1.844-16.664a1.745 1.745 0 0 0-1.536-1.927 1.74 1.74 0 0 0-1.919 1.542l-1.681 15.204H64.597L62.915 18.31a1.74 1.74 0 0 0-1.919-1.542 1.743 1.743 0 0 0-1.535 1.928l1.843 16.661v7.01a76.142 76.142 0 0 0-.819 2.094l-3.492-1.17-1.474-29.63c-.14-2.8 1.819-5.327 4.556-5.877l2.073-.417 3.744 6.266a3.564 3.564 0 0 0 3.087 1.752c.947 0 1.85-.373 2.532-1.057l.915-.92v6.958c0 .964.778 1.746 1.738 1.746s1.738-.782 1.738-1.746v-6.957l.915.92a3.562 3.562 0 0 0 2.979 1.03 3.567 3.567 0 0 0 2.64-1.726l3.71-6.21 1.797.362c2.738.55 4.696 3.075 4.557 5.876zM64.78 40.962v-3.956h18.768v3.956H64.779zm19.335 3.492c7.69 19.502 11.43 54.98 12.243 63.538H51.97c.813-8.558 4.553-44.036 12.243-63.538h2.514l-1.71 22.325a1.743 1.743 0 0 0 1.734 1.88c.9 0 1.661-.696 1.731-1.612l1.73-22.593h2.214v35.493c0 .964.778 1.745 1.738 1.745s1.738-.781 1.738-1.745V44.454h2.214l1.73 22.593c.07.916.832 1.612 1.731 1.612l.135-.005a1.744 1.744 0 0 0 1.6-1.875l-1.71-22.325h2.513zM38.394 62.94l9.443 44.498a1.62 1.62 0 0 1-1.074 1.873A72.333 72.333 0 0 1 23.937 113a72.339 72.339 0 0 1-22.828-3.689 1.62 1.62 0 0 1-1.074-1.873L9.48 62.94l-2.37-22.473a1.618 1.618 0 0 1 1.61-1.79h6.476c.894 0 1.62.726 1.62 1.62a7.13 7.13 0 0 0 7.121 7.122c3.927 0 7.123-3.195 7.123-7.122 0-.894.724-1.62 1.619-1.62h6.475a1.617 1.617 0 0 1 1.61 1.79l-2.37 22.473zm-26.058-3.782l.237 2.247H35.3l.237-2.247h-23.2zm24.767 49.34L31.13 64.644h-2.54l2.046 44.793a69.38 69.38 0 0 0 6.468-.939zm-19.865.939l2.044-44.793h-2.539l-5.974 43.854a69.4 69.4 0 0 0 6.47.939zm6.698-58.78c-5.162 0-9.455-3.795-10.234-8.741h-3.184l1.476 14.004h23.884l1.477-14.004H34.17c-.78 4.946-5.071 8.741-10.234 8.741zm-10.46 13.987h-1.048l-8.921 42.035c1.353.418 2.717.792 4.089 1.125l5.88-43.16zm9.047 0l-2.054 45.029c1.153.057 2.31.089 3.467.089a70.25 70.25 0 0 0 3.468-.089l-2.055-45.03h-2.826zm11.874 0l5.88 43.16a68.98 68.98 0 0 0 4.088-1.125l-8.92-42.035h-1.048z"/>
</symbol><symbol id="icon-facebook" viewBox="0 0 20 20">
    <path d="M10 0C4.486 0 0 4.486 0 10s4.486 10 10 10 10-4.486 10-10S15.514 0 10 0zm2.487 10.352H10.86v5.799H8.45v-5.799H7.302v-2.05H8.45V6.978c0-.95.451-2.433 2.433-2.433l1.787.007v1.99h-1.297c-.211 0-.511.105-.511.558v1.204h1.837l-.211 2.05z"/>
</symbol><symbol id="icon-fb" viewBox="0 0 20 20">
    <path d="M10 0C4.486 0 0 4.486 0 10s4.486 10 10 10 10-4.486 10-10S15.514 0 10 0zm2.487 10.352H10.86v5.799H8.45v-5.799H7.302v-2.05H8.45V6.978c0-.95.451-2.433 2.433-2.433l1.787.007v1.99h-1.297c-.211 0-.511.105-.511.558v1.204h1.837l-.211 2.05z"/>
</symbol><symbol id="icon-insta" viewBox="0 0 20 20">
    <g>
        <path d="M12.98 5.32H7.02c-.952 0-1.726.775-1.726 1.726v5.961c0 .952.774 1.726 1.726 1.726h5.96c.952 0 1.726-.774 1.726-1.726v-5.96c0-.952-.774-1.726-1.725-1.726zM10 13.126a3.102 3.102 0 0 1-3.098-3.098A3.102 3.102 0 0 1 10 6.928a3.102 3.102 0 0 1 3.099 3.099A3.102 3.102 0 0 1 10 13.125zm3.198-5.556a.734.734 0 1 1 .002-1.468.734.734 0 0 1-.002 1.468z"/>
        <path d="M10 8.238c-.986 0-1.79.802-1.79 1.789 0 .986.804 1.79 1.79 1.79.987 0 1.789-.804 1.789-1.79s-.803-1.79-1.789-1.79z"/>
        <path d="M10 0C4.477 0 0 4.477 0 10s4.477 10 10 10 10-4.477 10-10S15.523 0 10 0zm6.015 13.007a3.038 3.038 0 0 1-3.035 3.035H7.02a3.038 3.038 0 0 1-3.035-3.035v-5.96A3.038 3.038 0 0 1 7.02 4.011h5.96a3.038 3.038 0 0 1 3.035 3.035v5.96z"/>
    </g>
</symbol><symbol id="icon-like" viewBox="0 0 22 20">
    <path d="M21.964 6.001c-.328-3.477-2.873-6-6.053-6a6.054 6.054 0 0 0-4.968 2.6A6.01 6.01 0 0 0 8.989.77 5.809 5.809 0 0 0 6.089 0C2.91 0 .364 2.523.037 6c-.026.16-.13.98.187 2.286.458 1.885 1.513 3.598 3.052 4.954L10.934 20l7.79-6.76c1.54-1.356 2.595-3.07 3.052-4.954.316-1.302.213-2.125.188-2.285zm-4.086 6.325l-6.936 6.019-6.816-6.016c-1.349-1.189-2.272-2.684-2.67-4.326-.27-1.108-.18-1.745-.17-1.814l.007-.043.001-.013C1.554 3.293 3.57 1.23 6.09 1.23c1.854 0 3.49 1.112 4.267 2.903l.582 1.343.583-1.343a4.795 4.795 0 0 1 4.39-2.902c2.519 0 4.537 2.078 4.8 4.941l.003.016c.01.068.1.703-.17 1.816-.398 1.641-1.32 3.136-2.666 4.322z"/>
</symbol><symbol id="icon-logo" viewBox="0 0 785.199 126.891">
    <path d="M302.765 70.807l-8.796-22.579-8.801 22.579h17.597zm104.092-6.379c0-3.831-.525-7.479-1.597-10.88-1.059-3.402-2.653-6.182-4.729-8.293-4.113-4.077-9.579-6.134-16.445-6.134H377.9v49.371h6.432c7.009 0 12.42-1.825 16.199-5.513 4.25-4.121 6.326-10.258 6.326-18.551zm100.425-26.12c-.872 0-1.889.14-3.099.377-1.158.243-2.034.576-2.563 1.012-.482.381-1.206 1.195-2.126 2.445a95.758 95.758 0 0 0-2.269 3.355l-12.334 19.602v19.892c0 .861.146 1.584.386 2.111.241.576.627 1.005 1.114 1.39.242.242 1.111.433 2.515.624 1.405.191 2.806.285 4.301.285v1.536h-24.706l-.143-1.536c1.209 0 2.416-.047 3.578-.19 1.161-.142 1.983-.385 2.368-.718.674-.529 1.162-.96 1.356-1.199.626-.719.913-1.488.913-2.303V66.156L461.69 43.624a13.01 13.01 0 0 0-1.79-1.87 18.812 18.812 0 0 0-2.034-1.629 12.744 12.744 0 0 0-2.323-1.246c-.865-.384-1.734-.571-2.509-.571v-1.54h23.156v1.54c-1.885 0-3.384.092-4.546.286-1.163.19-1.735.668-1.789 1.438 0 .427.146 1.056.535 1.818.34.77.969 1.775 1.936 3.072l11.071 16.919 11.072-17.785c.334-.576.723-1.341 1.106-2.301.389-.958.583-1.529.583-1.723 0-.528-.675-.961-1.983-1.247a20.774 20.774 0 0 0-4.352-.476v-1.54h17.458v1.539zM415.901 63.71c0 8.097-2.465 14.573-7.396 19.507-5.318 5.128-12.765 7.72-22.29 7.72h-23.884v-1.536c1.113 0 2.174-.094 3.141-.242 1.016-.19 1.651-.425 1.984-.714.773-.814 1.205-1.343 1.306-1.584.582-.814.821-1.724.821-2.684v-40.07c0-.964-.239-1.921-.727-2.831-.195-.337-.627-.96-1.302-1.821-.242-.334-.872-.577-1.936-.814a17.584 17.584 0 0 0-3.288-.334v-1.54h24.123c7.983 0 14.649 2.064 20.016 6.137 6.291 4.796 9.432 11.7 9.432 20.806zm-91.664 27.228h-21.81v-1.536c.825 0 1.693-.047 2.662-.094.92-.044 1.547-.147 1.887-.338.821-.286 1.255-.524 1.401-.624.29-.285.48-.575.48-.91 0-.333-.092-.813-.286-1.483-.194-.719-.727-2.205-1.596-4.557l-3.188-7.81h-19.775l-3.189 8.242a29.7 29.7 0 0 0-1.066 2.779c-.389.96-.536 1.727-.536 2.255 0 .381.292.77.828 1.056.524.334 1.012.622 1.4.817.386.235 1.061.382 2.028.528.968.091 1.789.139 2.563.139v1.536h-16.876v-1.536c.968 0 1.98-.139 3.142-.381 1.162-.241 1.936-.622 2.368-1.15.246-.337.921-1.775 1.992-4.362.38-.961.813-1.917 1.252-2.927l18.034-44.627h1.447l20.161 49.711c.242.526.682 1.054 1.309 1.629.48.385.868.719 1.21 1.004.385.29.964.576 1.832.771.922.238 1.694.333 2.325.333v1.535zm-92.588 0h-22.623v-1.536c1.594 0 2.753-.094 3.427-.242.731-.19 1.31-.425 1.643-.714.876-.675 1.407-1.203 1.697-1.538.238-.333.385-.766.385-1.197V42.714l-20.255 48.224h-1.167l-19.871-46.83v39.828c0 .77.25 1.536.775 2.306.535.716.923 1.291 1.209 1.676.341.38 1.016.714 2.083 1.052 1.059.293 2.269.432 3.577.432v1.536H164.25v-1.536c1.305 0 2.467-.139 3.435-.381 1.016-.241 1.741-.622 2.178-1.15.433-.576.865-1.151 1.352-1.87.432-.671.675-1.342.675-2.064V42.091c0-.477-.193-1.004-.626-1.58-.243-.243-.535-.576-.968-.96-.39-.381-1.21-.672-2.325-.909-1.154-.194-2.321-.334-3.383-.334v-1.54h15.86l17.597 40.746 17.407-40.746h16.196v1.54c-1.595 0-2.756.092-3.53.286-.773.19-1.4.476-1.79.814-.384.382-.772.718-1.161 1.051-.528.528-.775 1.056-.775 1.538V85.71c0 .579.247 1.059.636 1.485.432.436.821.817 1.205 1.103.39.29 1.163.576 2.273.771 1.158.238 2.223.333 3.142.333v1.536z"/>
    <path d="M569.597 70.805l-8.795-22.576-8.75 22.576h17.545zm21.469 20.133h-21.803v-1.535c.82 0 1.734-.049 2.653-.096.925-.048 1.552-.147 1.89-.336.82-.286 1.305-.525 1.403-.624.333-.29.479-.576.479-.91s-.096-.817-.285-1.485c-.194-.723-.729-2.203-1.551-4.557l-3.188-7.812h-19.823l-3.142 8.245c-.434.865-.774 1.774-1.116 2.779-.333.956-.534 1.726-.534 2.254 0 .382.293.771.828 1.056.575.334 1.017.624 1.401.814.388.239 1.063.381 2.03.528.968.095 1.834.144 2.61.144v1.535h-16.871v-1.535c.913 0 1.979-.144 3.09-.383 1.159-.241 1.979-.626 2.42-1.154.194-.338.869-1.775 1.983-4.359.385-.96.773-1.917 1.206-2.925l18.034-44.628h1.447l20.207 49.713c.195.524.635 1.052 1.31 1.627.437.381.822.719 1.162 1.005.389.286 1.016.576 1.881.766.877.242 1.65.338 2.277.338v1.535zm62.995-22.244c-.774-.958-1.789-1.725-3.043-2.445-1.253-.668-2.13-1.005-2.563-1.005h-4.351V83.75c0 .667.091 1.58.285 2.679.195 1.1.441 1.774.682 2.064.288.286 1.163.527 2.658.766 1.452.187 2.705.29 3.77.29v1.389h-22.817v-1.389h1.353c.968 0 1.69 0 2.078-.104.434-.091.968-.381 1.646-.861.675-.476 1.21-.909 1.551-1.291.385-.337.571-.816.571-1.439V42.763c0-.671-.286-1.343-.772-1.965-.723-.722-1.207-1.199-1.449-1.49-.285-.285-.868-.524-1.789-.715-.92-.193-1.983-.288-3.188-.288v-1.537h23.305c6.038 0 10.778 1.25 14.261 3.691 3.432 2.445 5.174 5.943 5.174 10.5 0 3.498-1.21 6.375-3.579 8.673-2.415 2.255-5.994 3.835-10.829 4.697.434.146 1.4.862 2.948 2.302 1.551 1.342 2.661 2.544 3.292 3.545.19.146 1.789 2.735 4.783 7.769 1.017 1.627 2.516 4.124 4.547 7.526.432.667 1.158 1.294 2.222 1.965.678.429 1.4.861 2.13 1.294.385.239.821.429 1.302.528.483.144 1.066.238 1.74.29v1.389h-18.274v-1.389c1.11 0 2.031-.242 2.852-.723.773-.479 1.162-1.103 1.162-1.87 0-.479-.143-1.103-.528-1.869-.34-.767-.876-1.728-1.502-2.874-1.694-2.783-3.043-4.848-3.964-6.284-2.807-4.31-4.697-6.706-5.664-7.234zm-4.686-29.48c-.968 0-1.742.048-2.467.094-.675.048-1.163.194-1.404.434-.287.243-.579.576-.92.96-.335.382-.48.814-.48 1.291v20.71h3.043c6.287 0 10.592-.91 12.813-2.828 1.887-1.631 2.804-4.458 2.804-8.581 0-3.692-1.016-6.519-3.143-8.627-2.268-2.303-5.7-3.453-10.246-3.453zm114.391 11.984h-1.889c-.674-2.877-1.547-5.272-2.706-7.189-1.111-1.968-2.372-3.117-3.82-3.497-.483-.29-1.737-.575-3.771-.77-2.028-.194-4.443-.286-7.255-.286v46.211c0 .811.098 1.389.341 1.675.245.333.579.671 1.113.957.528.286 1.401.576 2.61.766 1.255.242 2.417.338 3.53.338v1.535H728.52v-1.535c1.154 0 2.225-.096 3.145-.243.913-.189 1.686-.381 2.27-.619a3.957 3.957 0 0 0 1.546-1.151c.481-.529.727-1.057.727-1.68V39.456c-3.482 0-5.997.046-7.543.143-1.545.095-2.806.386-3.773.957-1.016.576-1.642 1.008-1.928 1.294-.536.48-1.114 1.247-1.742 2.255-1.015 1.822-1.936 4.171-2.617 7.094h-1.929l.675-11.742c0-.481.047-1.056.099-1.679.095-.624.243-.959.382-1.008h44.675c.194 0 .341.623.534 1.87 0 .242 0 .527.045.909l.68 11.649z"/>
    <path d="M164.25 11.841h599.511v1.536H164.25z"/>
    <path d="M164.25 114.421h599.511v1.537H164.25z"/>
    <path fill-rule="evenodd" clip-rule="evenodd" d="M134.068 53.049c.103.731.103 1.302.103 1.775 0 1.928-.63 3.546-1.997 4.951-1.371 1.409-3.001 2.503-4.891 3.388-1.895.885-3.895 1.516-5.999 1.984-2.104.412-3.943.625-5.522.625L98.88 64.363c-1.208 0-2.632.052-4.206.265a27.26 27.26 0 0 0-4.631.83c-1.474.365-2.895.94-4.262 1.719-1.367.733-2.418 1.619-3.206 2.661-.37.367-.893 1.098-1.527 2.188-.682 1.15-1 1.934-1 2.401 0 .835.421 1.512 1.263 1.929.843.417 1.581.682 2.315.682 1.108-.992 2.262-2.036 3.369-3.235a40.944 40.944 0 0 1 3.469-3.337 21.41 21.41 0 0 1 3.891-2.661 9.261 9.261 0 0 1 4.419-1.095c1.895 0 3.892.259 5.999.834 2.047.575 3.942 1.409 5.624 2.554a15.767 15.767 0 0 1 4.316 4.227c1.104 1.721 1.683 3.649 1.683 5.837 0 1.725-.528 3.286-1.579 4.695a107.16 107.16 0 0 1-3.415 4.33 37.821 37.821 0 0 0-3.424 4.849c-1.051 1.822-1.578 4.014-1.578 6.62 0 1.566.42 3.342 1.212 5.372a16.048 16.048 0 0 1 1.158 5.999c0 .886-.162 1.776-.477 2.712-.316.988-.737 1.876-1.315 2.661a7.911 7.911 0 0 1-2.049 1.928 4.598 4.598 0 0 1-2.63.783c-.949-2.243-2.155-4.172-3.681-5.687-1.474-1.511-3.104-2.866-4.785-4.117-1.739-1.2-3.418-2.4-5.156-3.495a30.95 30.95 0 0 1-4.683-3.908c-1.417-1.514-2.523-3.286-3.418-5.372-.894-2.084-1.314-4.64-1.314-7.717V85.64c0-2.244-.315-4.065-.895-5.423a22.404 22.404 0 0 0-2.154-3.653 36.965 36.965 0 0 1-2.106-3.282c-.574-1.098-.895-2.453-.895-4.121 0-4.955.636-9.543 1.895-13.817 1.266-4.278 3.053-8.288 5.262-12.099 2.259-3.754 4.892-7.352 7.939-10.69a123.364 123.364 0 0 1 9.782-9.854c5.892-5.317 12.154-9.285 18.779-11.839C123.495 8.307 131.017 7 139.321 7c.899 0 1.636.157 2.316.421.686.259 1 .886 1 1.928-2.101 1.511-3.787 3.231-5.103 5.216-1.261 2.034-2.262 4.12-2.942 6.364a41.463 41.463 0 0 0-1.528 6.934c-1.051 8.34 0 16.893 1.004 25.186m-29.926-.525a44.398 44.398 0 0 1 5.202-3.491 33.55 33.55 0 0 1 6.207-2.818c2.158-.729 4.367-1.197 6.573-1.354 2.159-.158 4.21.101 6.155.834.475.209 1.053.626 1.738 1.251.682.625.893 1.302.63 2.035-.158.417-.524.677-1.154.779-2.056.259-4.16.314-6.37.208a69.689 69.689 0 0 0-6.573-.153c-2.209.051-4.367.26-6.522.626-2.157.312-4.102 1.04-5.886 2.083zm-15.258-9.331c1.316-2.035 2.946-4.227 4.948-6.726 1.945-2.503 4.099-4.798 6.465-6.991a38.13 38.13 0 0 1 7.365-5.474c2.58-1.512 5.154-2.244 7.676-2.244 1.001 0 1.843.261 2.58.784.736.522 1.106 1.307 1.106 2.345 0 .783-.634 1.512-1.894 2.245a30.054 30.054 0 0 1-4.419 1.928c-1.682.625-3.312 1.199-4.943 1.668-1.63.468-2.787.89-3.473 1.2-2.895 1.512-5.572 3.235-7.994 5.266-2.417 1.985-4.892 3.964-7.417 5.999zm-3.155 10.324a35.485 35.485 0 0 1 2.947-4.118 27.583 27.583 0 0 1 3.942-3.912c1.473-1.2 3-2.138 4.627-2.868 1.634-.784 3.265-1.145 4.946-1.145.421 0 1 .153 1.682.467.74.311 1.054.783 1.054 1.353 0 .367-.212.676-.633.941-1.468.783-3.104 1.41-4.837 1.98a96.647 96.647 0 0 0-5.049 1.72c-1.685.681-3.265 1.408-4.788 2.299a13.299 13.299 0 0 0-3.891 3.283zm-77.161-.468c-.102.731-.153 1.302-.153 1.775 0 1.928.683 3.546 2.053 4.951 1.366 1.409 2.997 2.503 4.888 3.388 1.898.885 3.895 1.516 5.998 1.984 2.103.412 3.941.625 5.522.625l16.883-1.409c1.208 0 2.63.052 4.204.265 1.581.152 3.104.412 4.581.83 1.524.365 2.948.94 4.313 1.719 1.367.733 2.418 1.619 3.206 2.661.37.367.895 1.098 1.529 2.188.68 1.15 1 1.934 1 2.401 0 .835-.42 1.512-1.264 1.929-.842.417-1.579.682-2.315.682a39.538 39.538 0 0 1-3.367-3.235c-1.104-1.15-2.261-2.296-3.471-3.337a21.307 21.307 0 0 0-3.891-2.661 9.261 9.261 0 0 0-4.419-1.095c-1.945 0-3.941.259-5.996.834-2.049.575-3.944 1.409-5.68 2.554a16.408 16.408 0 0 0-4.262 4.227c-1.154 1.721-1.682 3.649-1.682 5.837 0 1.725.528 3.286 1.58 4.695a105.409 105.409 0 0 0 3.415 4.33 37.916 37.916 0 0 1 3.423 4.849c1.052 1.822 1.579 4.014 1.579 6.62 0 1.566-.421 3.342-1.213 5.372a16.027 16.027 0 0 0-1.157 5.999c0 .886.16 1.776.475 2.712.265.988.736 1.876 1.315 2.661.524.783 1.209 1.409 1.998 1.928.786.519 1.68.783 2.681.783.951-2.243 2.155-4.172 3.683-5.687 1.473-1.511 3.104-2.866 4.786-4.117 1.735-1.2 3.418-2.4 5.154-3.495a30.909 30.909 0 0 0 4.684-3.908 19.256 19.256 0 0 0 3.418-5.372c.894-2.084 1.317-4.64 1.317-7.717V85.64c0-2.244.314-4.065.893-5.423.63-1.355 1.315-2.556 2.103-3.653.789-1.094 1.529-2.188 2.159-3.282.574-1.098.894-2.453.894-4.121 0-4.955-.634-9.543-1.895-13.817-1.264-4.278-3.051-8.288-5.262-12.099-2.26-3.754-4.891-7.352-7.938-10.69-2.999-3.387-6.314-6.675-9.783-9.854-5.891-5.317-12.154-9.285-18.777-11.839C19.142 8.307 11.621 7 3.315 7 2.418 7 1.63 7.157 1 7.421c-.686.26-1 .886-1 1.929 2.103 1.511 3.789 3.231 5.104 5.216 1.259 2.034 2.26 4.12 2.94 6.364a41.266 41.266 0 0 1 1.529 6.934c1.052 8.339.001 16.892-1.005 25.185zm29.932-.525a44.827 44.827 0 0 0-5.207-3.491c-1.945-1.145-4.053-2.086-6.207-2.818-2.21-.729-4.368-1.197-6.574-1.354-2.158-.158-4.21.101-6.155.834-.472.209-1.104.626-1.738 1.251-.682.625-.894 1.302-.629 2.035.157.417.523.677 1.153.779 2.057.259 4.159.314 6.369.208a69.302 69.302 0 0 1 6.573-.153c2.21.051 4.368.26 6.523.626 2.158.312 4.105 1.04 5.892 2.083zm15.253-9.331c-1.316-2.035-2.946-4.227-4.946-6.726-1.945-2.503-4.1-4.798-6.467-6.991a38.13 38.13 0 0 0-7.365-5.474c-2.581-1.512-5.155-2.244-7.675-2.244-1.001 0-1.845.261-2.58.784-.738.522-1.159 1.307-1.159 2.345 0 .783.686 1.512 1.946 2.245a30.04 30.04 0 0 0 4.418 1.928 61.399 61.399 0 0 0 4.943 1.668c1.579.468 2.789.89 3.475 1.2 2.894 1.512 5.575 3.235 7.939 5.266 2.422 1.985 4.947 3.964 7.471 5.999zm3.155 10.324a35.35 35.35 0 0 0-2.946-4.118 27.531 27.531 0 0 0-3.942-3.912 20.638 20.638 0 0 0-4.627-2.868c-1.634-.784-3.265-1.145-4.947-1.145-.421 0-1 .153-1.736.467-.685.311-1.051.783-1.051 1.353 0 .367.263.676.686.941 1.468.783 3.103 1.41 4.784 1.98a84.123 84.123 0 0 1 5.101 1.72c1.686.681 3.265 1.408 4.789 2.299 1.522.886 2.837 1.979 3.889 3.283zm-1.052 36.815c-.524.264-1.422.677-2.683 1.302-1.264.631-2.578 1.308-3.894 2.086a31.656 31.656 0 0 0-3.521 2.452c-1 .784-1.474 1.566-1.474 2.244 0 .728.264 1.303.788 1.822.529.524 1.107.783 1.843.783.946 0 1.946-.366 2.89-1.093.951-.729 1.845-1.668 2.682-2.712.845-1.094 1.529-2.294 2.103-3.546.58-1.252 1.002-2.397 1.266-3.338zm30.926 0c.522.264 1.421.677 2.682 1.302 1.264.631 2.579 1.308 3.896 2.086a27.043 27.043 0 0 1 3.468 2.452c1.05.784 1.524 1.566 1.524 2.244 0 .728-.265 1.303-.789 1.822-.527.524-1.158.783-1.842.783-.944 0-1.945-.366-2.891-1.093-.95-.729-1.843-1.668-2.682-2.712-.843-1.094-1.58-2.294-2.103-3.546-.578-1.252-1-2.397-1.263-3.338z"/>
</symbol><symbol id="icon-mirmd-blog" viewBox="0 0 92 79">
    <path d="M91.986 14.134l-.009-.055a1.754 1.754 0 0 0-.032-.163 1.787 1.787 0 0 0-.078-.244l-.005-.013a1.75 1.75 0 0 0-.097-.199l-.007-.013L84.521.903a1.803 1.803 0 0 0-3.125 0l-7.239 12.543-.007.014c-.036.064-.069.13-.097.199l-.005.013a1.778 1.778 0 0 0-.064.19l-.014.054a1.852 1.852 0 0 0-.032.162l-.008.056c-.009.07-.014.14-.014.213v62.848c0 .996.808 1.805 1.804 1.805h14.476C91.193 79 92 78.19 92 77.194V14.349c0-.073-.006-.144-.014-.215zm-9.028-8.72l4.113 7.13h-8.227l4.114-7.13zM81.154 75.39h-3.63V16.154h3.63V75.39zm7.238 0h-3.63V16.154h3.63V75.39z"/>
    <path d="M62.29.001H5.575c-.996 0-1.804.808-1.804 1.805v13.156H1.804a1.805 1.805 0 0 0 0 3.61H3.77v7.757H1.804a1.804 1.804 0 0 0 0 3.61H3.77v7.757H1.804a1.804 1.804 0 0 0 0 3.61H3.77v7.757H1.804a1.805 1.805 0 0 0 0 3.61H3.77v7.757H1.804a1.805 1.805 0 0 0 0 3.61H3.77v13.155c0 .997.808 1.805 1.804 1.805h56.717c.996 0 1.804-.808 1.804-1.805V1.805c0-.996-.808-1.804-1.804-1.804zm-1.803 75.39H7.377V64.04h1.965a1.804 1.804 0 0 0 0-3.61H7.378v-7.758h1.964a1.804 1.804 0 0 0 0-3.61H7.378v-7.756h1.964a1.804 1.804 0 0 0 0-3.61H7.378v-7.758h1.964a1.804 1.804 0 0 0 0-3.61H7.378v-7.757h1.964a1.804 1.804 0 0 0 0-3.61H7.378V3.612h53.109v71.78z"/>
    <path d="M41.31 60.43H19.712a1.804 1.804 0 0 0 0 3.609H41.31a1.805 1.805 0 0 0 0-3.61z"/>
    <path d="M48.154 49.062H19.712a1.804 1.804 0 0 0 0 3.61h28.442a1.805 1.805 0 0 0 0-3.61z"/>
    <path d="M48.154 37.695H19.712a1.804 1.804 0 0 0 0 3.61h28.442a1.805 1.805 0 0 0 0-3.61z"/>
    <path d="M48.154 26.328H19.712a1.804 1.804 0 0 0 0 3.61h28.442a1.805 1.805 0 0 0 0-3.61z"/>
    <path d="M48.154 14.96H19.712a1.804 1.804 0 0 0 0 3.61h28.442a1.805 1.805 0 0 0 0-3.61z"/>
    <path d="M48.164 60.346c-2.321 0-2.325 3.61 0 3.61 2.322 0 2.326-3.61 0-3.61z"/>
</symbol><symbol id="icon-mirmd-giftcard" viewBox="0 0 114 122">
    <path d="M69.215 42.67c0 1.123.91 2.034 2.035 2.034h20.357a2.034 2.034 0 1 0 0-4.068H71.25a2.034 2.034 0 0 0-2.035 2.034z"/>
    <path d="M81.43 54.875c0 1.123.91 2.034 2.035 2.034H95.68a2.034 2.034 0 1 0 0-4.068H83.465a2.034 2.034 0 0 0-2.035 2.034z"/>
    <path d="M79.392 32.5a2.034 2.034 0 1 0 0-4.069h-4.071a2.034 2.034 0 1 0 0 4.068h4.071z"/>
    <path d="M54.965 52.84a2.034 2.034 0 1 0 0 4.069h20.357a2.034 2.034 0 1 0 0-4.068H54.965z"/>
    <path d="M65.143 109.797H26.464c-3.367 0-6.107-2.738-6.107-6.102V10.124c0-1.123-.91-2.034-2.036-2.034-5.612 0-10.178 4.562-10.178 10.17a2.034 2.034 0 1 0 4.071 0 6.114 6.114 0 0 1 4.071-5.754v91.189c0 5.608 4.566 10.17 10.18 10.17h38.678a2.034 2.034 0 1 0 0-4.068z"/>
    <path d="M34.608 44.704h28.5a2.034 2.034 0 1 0 0-4.068h-28.5a2.034 2.034 0 1 0 0 4.068z"/>
    <path d="M34.608 32.5h8.143a2.034 2.034 0 1 0 0-4.069h-8.143a2.034 2.034 0 1 0 0 4.068z"/>
    <path d="M67.179 28.431H50.893a2.034 2.034 0 1 0 0 4.068h16.286a2.034 2.034 0 1 0 0-4.068z"/>
    <path d="M95.679 0H18.32C8.244 0 .04 8.175 0 18.236v.096c.026 6.487 3.53 12.53 9.159 15.785.973.561 2.216.23 2.78-.74a2.031 2.031 0 0 0-.74-2.78c-4.39-2.54-7.12-7.255-7.127-12.314.014-7.84 6.4-14.215 14.25-14.215h77.357c7.856 0 14.25 6.388 14.25 14.24v85.434a5.913 5.913 0 0 1-.833 2.99 2.034 2.034 0 0 0 3.51 2.062 9.97 9.97 0 0 0 1.394-5.052V18.307C114 8.212 105.782 0 95.679 0z"/>
    <path d="M101.786 93.524c0-6.73-5.478-12.205-12.214-12.205-6.737 0-12.215 5.474-12.215 12.205s5.478 12.205 12.215 12.205c6.736 0 12.214-5.474 12.214-12.205zm-12.214 8.137c-4.491 0-8.143-3.65-8.143-8.137s3.652-8.136 8.143-8.136c4.49 0 8.143 3.649 8.143 8.136 0 4.487-3.652 8.137-8.143 8.137z"/>
    <path d="M85.898 107.765a2.039 2.039 0 0 0-2.781.745l-4.383 7.59-.696-1.05a2.026 2.026 0 0 0-1.576-.91l-1.258-.075 4.456-7.71a2.037 2.037 0 0 0-3.528-2.034l-6.1 10.56a2.036 2.036 0 0 0 1.642 3.047l3.528.211 1.948 2.948a2.033 2.033 0 0 0 1.698.913h.063a2.046 2.046 0 0 0 1.702-1.017l6.032-10.44a2.033 2.033 0 0 0-.747-2.778z"/>
    <path d="M103.064 104.416a2.035 2.035 0 0 0-2.781-.744 2.033 2.033 0 0 0-.747 2.779l4.403 7.613-1.258.076a2.045 2.045 0 0 0-1.578.909l-.692 1.05-4.36-7.552a2.041 2.041 0 0 0-2.783-.744 2.034 2.034 0 0 0-.745 2.779l6.01 10.4c.353.61.999.995 1.701 1.018h.063c.68 0 1.321-.342 1.7-.914l1.946-2.945 3.526-.214a2.03 2.03 0 0 0 1.672-1.065c.333-.62.321-1.371-.029-1.982l-6.048-10.464z"/>
    <path d="M34.608 56.91h12.214a2.034 2.034 0 1 0 0-4.069H34.608a2.034 2.034 0 1 0 0 4.068z"/>
    <path d="M34.608 69.114h24.429a2.034 2.034 0 1 0 0-4.068h-24.43a2.034 2.034 0 1 0 0 4.068z"/>
    <path d="M34.823 94.433a2.037 2.037 0 0 0 2.73.911 2.032 2.032 0 0 0 .91-2.73c-2.016-4.027-2.467-7.64-1.213-9.668.667-1.08 1.832-1.627 3.464-1.627.971 0 1.334.333 1.562.659 1.516 2.185.075 8.838-1.433 12.866a2.035 2.035 0 0 0 3.346 2.152 48.732 48.732 0 0 1 2.633-2.433v.995a2.03 2.03 0 0 0 1.256 1.877 2.033 2.033 0 0 0 2.219-.439c.93-.927 2.009-1.837 2.917-2.492l-.073.147a2.04 2.04 0 0 0 1.824 2.941h8.142a2.034 2.034 0 1 0 0-4.068h-5.299c.165-.968.125-1.953-.366-2.746-.52-.84-1.423-1.322-2.477-1.322-1.259 0-2.738.764-4.09 1.712-.104-.887-.63-1.617-1.427-1.946-.544-.224-1.244-.517-2.944.502.67-3.505.866-7.544-.881-10.063-.764-1.1-2.233-2.41-4.908-2.41-3.05 0-5.511 1.263-6.93 3.558-2.03 3.283-1.653 8.248 1.038 13.624z"/>
    <path d="M89.571 67.08c0-1.123-.91-2.034-2.036-2.034H67.178a2.034 2.034 0 1 0 0 4.068h20.357a2.034 2.034 0 0 0 2.036-2.034z"/>
</symbol><symbol id="icon-mirmd-history" viewBox="0 0 87 87">
    <path d="M83.527 26.557c-4.586-10.7-12.38-18.481-23.164-23.082C54.973 1.175 49.327 0 43.43 0a42.296 42.296 0 0 0-16.887 3.475C15.85 8.064 8.02 15.84 3.425 26.557 1.122 31.927 0 37.551 0 43.452c0 5.902 1.122 11.574 3.425 16.944 4.595 10.717 12.425 18.54 23.117 23.13A42.298 42.298 0 0 0 43.428 87c5.898 0 11.546-1.175 16.934-3.473 10.783-4.602 18.578-12.432 23.166-23.13A42.593 42.593 0 0 0 87 43.451a42.345 42.345 0 0 0-3.473-16.895zm-6.944 36.124C73.17 68.54 68.49 73.189 62.6 76.625c-5.856 3.417-12.273 5.14-19.17 5.14-5.184 0-10.131-.999-14.84-3.046-4.71-2.046-8.776-4.735-12.178-8.138-3.402-3.403-6.109-7.512-8.133-12.232-2.019-4.703-2.997-9.708-2.997-14.897 0-6.9 1.695-13.288 5.09-19.131 3.408-5.865 8.087-10.518 13.937-13.945 5.85-3.427 12.224-5.14 19.12-5.14 6.898 0 13.313 1.723 19.17 5.14 5.892 3.437 10.56 8.09 13.984 13.944 3.425 5.854 5.137 12.231 5.137 19.132 0 6.902-1.7 13.333-5.136 19.229z"/>
    <path d="M46.188 43.072V18.418c0-1.475-1.285-2.665-2.76-2.665-1.378 0-2.616 1.19-2.616 2.665v25.034c0 .048.096.239.096.381-.095.857.143 1.57.713 2.142l14.224 14.23c.951.953 2.711.953 3.662 0 1.094-1.094 1.022-2.682 0-3.712l-13.32-13.421z"/>
</symbol><symbol id="icon-mirmd-news" viewBox="0 0 100 95">
    <path d="M100 37.51c0-.081-.007-.16-.017-.24-.002-.019-.006-.037-.009-.056a1.831 1.831 0 0 0-.04-.195c-.005-.014-.007-.027-.011-.041a1.952 1.952 0 0 0-.082-.228l-.012-.025a1.94 1.94 0 0 0-.236-.388l-.037-.049c-.004-.006-.008-.012-.014-.018a2.024 2.024 0 0 0-.148-.156l-.026-.023a1.96 1.96 0 0 0-.403-.285l-.01-.006-.01-.005-.02-.01L86.66 29.37V1.94C86.66.87 85.778 0 84.69 0h-69.4c-1.087 0-1.97.869-1.97 1.94v27.43L1.075 35.784l-.016.009-.013.006-.013.008a1.99 1.99 0 0 0-.191.118c-.016.01-.032.022-.047.033-.056.04-.11.084-.16.132l-.03.024c-.05.049-.1.1-.146.155l-.014.019c-.014.016-.026.033-.039.05a1.863 1.863 0 0 0-.234.386l-.012.026c-.033.075-.06.15-.082.227l-.01.043c-.018.064-.031.129-.041.194l-.009.057c-.01.079-.016.158-.017.238v55.55c0 .017.002.033.003.05a1.955 1.955 0 0 0 .031.305 1.633 1.633 0 0 0 .044.182 1.926 1.926 0 0 0 .2.452c.008.015.015.03.024.044l.013.018c.042.064.087.127.136.185.007.01.016.017.023.026a1.962 1.962 0 0 0 .306.282 2.026 2.026 0 0 0 .25.162l.004.002c.066.035.134.065.203.093l.052.019a1.837 1.837 0 0 0 .397.098l.057.009c.072.008.145.013.22.014h96.073c.075 0 .148-.006.22-.014l.058-.008a1.998 1.998 0 0 0 .398-.1l.05-.018c.14-.055.271-.125.393-.21.022-.014.043-.03.064-.046.04-.03.077-.06.114-.092l.062-.055c.047-.045.092-.092.135-.141l.019-.02c.05-.06.094-.123.137-.188l.012-.017.024-.042a1.756 1.756 0 0 0 .169-.359 2.004 2.004 0 0 0 .074-.277 2.008 2.008 0 0 0 .032-.304l.002-.05V37.514v-.004zm-13.34-3.747l7.86 4.11-7.86 6.467V33.763zm-69.4-3.206V3.881H82.72v43.7l-23.945 19.7-17.588-.028L17.26 47.565V30.557zm-3.94 3.209v10.559l-7.84-6.452 7.84-4.107zM3.94 41.662L37.14 68.98 3.939 89.547V41.662zm4.864 49.456l32.26-19.984 17.857.03 32.268 19.954H8.803zM96.06 89.55L62.832 69l33.23-27.339v47.89z"/>
</symbol><symbol id="icon-mirmd-sewing-machine" viewBox="0 0 116 106">
    <path d="M77.332 79.019c-1.16 0-1.934.77-1.934 1.927 0 1.156.774 1.927 1.934 1.927s1.933-.77 1.933-1.927-.773-1.927-1.933-1.927z"/>
    <path d="M77.332 46.254c-1.16 0-1.934.771-1.934 1.928 0 1.156.774 1.927 1.934 1.927s1.933-.771 1.933-1.927c0-1.157-.773-1.928-1.933-1.928z"/>
    <path d="M85.066 79.019c-1.16 0-1.933.77-1.933 1.927 0 1.156.773 1.927 1.933 1.927 1.16 0 1.933-.77 1.933-1.927s-.773-1.927-1.933-1.927z"/>
    <path d="M110.2 84.8c3.287 0 5.8-2.505 5.8-5.782V55.891c0-3.276-2.513-5.782-5.8-5.782s-5.8 2.505-5.8 5.782v9.636h-1.933v-9.443-2.12c-.58-10.022-5.8-19.08-14.114-25.055-5.124-3.554-10.891-5.696-16.82-6.287v-7.204h5.801c1.16 0 1.933-.77 1.933-1.927 0-1.156-.773-1.927-1.933-1.927H75.4v-7.71h1.933c1.16 0 1.933-.77 1.933-1.927C79.266.771 78.493 0 77.333 0H61.866c-1.16 0-1.933.77-1.933 1.927s.773 1.927 1.934 1.927H63.8v7.71h-1.933c-1.16 0-1.934.77-1.934 1.927 0 1.156.773 1.927 1.934 1.927h5.799v7.04c-3.1.047-6.216.518-9.28 1.44l-20.3 5.974c-2.32.579-4.64.964-7.153.964H29.58c-3.867 0-7.54-.964-10.633-2.89-1.74-.964-3.094-2.506-4.447-4.819-1.547-2.313-4.06-3.854-6.767-3.854C3.48 19.273 0 22.742 0 26.982v44.327c0 3.576 2.474 6.602 5.8 7.464V84.8c0 1.157.773 1.927 1.933 1.927 1.16 0 1.934-.77 1.934-1.927v-6.028c3.325-.86 5.8-3.888 5.8-7.463v-3.854c0-5.397 4.253-9.637 9.666-9.637H52.2c1.933 0 4.06.578 5.8 1.542 4.253 2.505 6.38 7.71 5.027 12.72l-4.64 18.502H7.733C3.48 90.582 0 94.05 0 98.29S3.48 106 7.733 106h100.534c4.253 0 7.733-3.469 7.733-7.709s-3.48-7.71-7.733-7.71h-5.8v-21.2h1.933v9.637c0 3.277 2.513 5.782 5.8 5.782zM67.667 3.854h3.867v7.71h-3.867v-7.71zm40.6 90.583c2.126 0 3.866 1.734 3.866 3.854s-1.74 3.855-3.866 3.855H7.733c-2.126 0-3.866-1.735-3.866-3.855s1.74-3.854 3.866-3.854H108.267zm-45.82-3.855l4.447-17.538c1.74-6.746-1.16-13.684-6.767-16.96-2.32-1.35-5.027-2.12-7.733-2.12H25.327c-7.54 0-13.534 5.974-13.534 13.49v3.855c0 2.12-1.74 3.855-3.866 3.855-2.127 0-3.867-1.735-3.867-3.855V26.982c0-2.12 1.74-3.855 3.867-3.855 1.353 0 2.513.77 3.287 1.927 1.74 2.891 3.48 4.818 5.8 6.168A24.214 24.214 0 0 0 29.58 34.69h1.354c2.9 0 5.606-.386 8.313-1.157l20.3-5.974c9.087-2.698 18.753-.964 26.487 4.433C93.574 37.196 98.02 45.29 98.6 54.156v36.425H62.447zm49.686-21.2v3.854h-3.866v-3.854h3.866zm-3.866-3.855v-3.854h3.866v3.854h-3.866zm1.933 15.418c-1.16 0-1.933-.77-1.933-1.927v-1.927h3.866v1.927c0 1.157-.773 1.927-1.933 1.927zm0-26.981c1.16 0 1.933.77 1.933 1.927v1.927h-3.866v-1.927c0-1.157.773-1.927 1.933-1.927z"/>
    <path d="M77.333 38.545c-5.414 0-9.667 4.24-9.667 9.637 0 5.396 4.253 9.636 9.667 9.636 5.413 0 9.667-4.24 9.667-9.636 0-5.397-4.254-9.637-9.667-9.637zm0 15.419c-3.287 0-5.8-2.506-5.8-5.782 0-3.277 2.513-5.782 5.8-5.782s5.8 2.505 5.8 5.782c0 3.276-2.513 5.782-5.8 5.782z"/>
    <path d="M27.066 42.4h11.6c1.16 0 1.933-.77 1.933-1.927s-.773-1.928-1.933-1.928h-11.6c-1.16 0-1.933.771-1.933 1.928 0 1.156.773 1.927 1.933 1.927z"/>
    <path d="M46.4 46.254H27.065c-1.16 0-1.933.771-1.933 1.928 0 1.156.773 1.927 1.933 1.927H46.4c1.16 0 1.934-.771 1.934-1.927 0-1.157-.774-1.928-1.934-1.928z"/>
</symbol><symbol id="icon-mirmd-stores" viewBox="0 0 108 105">
    <path d="M107.032.29a1.98 1.98 0 0 0-1.966-.055L72 17.909 38.936.235c-.026-.014-.056-.019-.082-.03a1.995 1.995 0 0 0-.294-.112c-.056-.016-.11-.034-.166-.046a2.06 2.06 0 0 0-.336-.034c-.05-.002-.1-.009-.152-.007a1.919 1.919 0 0 0-.32.051c-.06.012-.12.02-.178.038-.014.004-.028.004-.04.008l-36 12.116A2.016 2.016 0 0 0 0 14.135v86.827c0 .648.308 1.258.832 1.639a1.967 1.967 0 0 0 1.8.275l35.292-11.877 33.314 13.85c.028.012.06.008.088.018.22.078.444.133.674.133.18 0 .358-.03.532-.079.056-.016.108-.042.164-.062.08-.031.164-.053.24-.093l34-18.173A2.024 2.024 0 0 0 108 84.808V2.02c0-.71-.368-1.365-.968-1.73zM4 15.59L36 4.823v54.503c-.86.158-1.708.335-2.528.553a2.02 2.02 0 0 0-1.42 2.47 2.004 2.004 0 0 0 2.446 1.436c.48-.13 1.004-.194 1.502-.3v23.908L4 98.16V15.59zm36 47.33c.642-.051 1.264-.134 1.922-.148a2.013 2.013 0 0 0 1.958-2.062 2.01 2.01 0 0 0-2-1.977h-.044c-.62.015-1.23.049-1.836.091V5.374l30 16.034v42.796a29.637 29.637 0 0 1-4.402-.53 1.996 1.996 0 0 0-2.344 1.598 2.02 2.02 0 0 0 1.584 2.366 33.68 33.68 0 0 0 5.164.584v31.744L40 87.493V62.92zm64 20.67L74 99.625V68.004a2.007 2.007 0 0 0 1.174-1.979c-.058-.755-.538-1.361-1.174-1.658V21.408l30-16.034V83.59z"/>
</symbol><symbol id="icon-ok" viewBox="0 0 20 20">
    <path d="M10.01 8.288A1.712 1.712 0 0 0 11.72 6.56a1.715 1.715 0 0 0-1.72-1.72 1.718 1.718 0 0 0-1.726 1.741c.007.954.776 1.71 1.734 1.707z"/>
    <path d="M10 0C4.477 0 0 4.477 0 10s4.477 10 10 10 10-4.477 10-10S15.523 0 10 0zm.014 3.041c1.948.005 3.511 1.599 3.502 3.568-.01 1.924-1.6 3.483-3.544 3.476-1.925-.006-3.503-1.602-3.492-3.53a3.528 3.528 0 0 1 3.534-3.514zm3.946 8.428c-.431.443-.95.763-1.525.986-.545.21-1.141.317-1.732.388.09.097.132.144.187.2.802.806 1.607 1.607 2.405 2.415.273.275.33.617.18.936-.164.35-.531.58-.89.555-.229-.015-.407-.129-.564-.288-.605-.608-1.221-1.206-1.814-1.826-.172-.18-.255-.146-.408.011-.608.627-1.226 1.243-1.848 1.856-.28.276-.611.325-.936.168-.344-.167-.563-.518-.546-.872.012-.239.13-.421.293-.585.794-.791 1.584-1.585 2.375-2.379.053-.053.102-.108.178-.19-1.079-.113-2.052-.378-2.885-1.03-.103-.08-.21-.159-.304-.25-.365-.35-.401-.751-.113-1.164.247-.354.661-.448 1.092-.245.083.04.163.089.239.141 1.552 1.067 3.684 1.096 5.242.048.155-.118.32-.215.511-.264a.8.8 0 0 1 .918.366c.228.372.225.735-.056 1.024z"/>
</symbol><symbol id="icon-sign" viewBox="0 0 16 20">
    <g>
        <path d="M7.932 10.777h.125c1.14-.021 2.064-.448 2.746-1.264 1.5-1.797 1.25-4.878 1.223-5.173-.098-2.207-1.08-3.263-1.89-3.756C9.533.215 8.828.017 8.041 0h-.066c-.433 0-1.282.075-2.096.567-.818.493-1.815 1.55-1.913 3.773-.027.295-.276 3.376 1.224 5.173.677.816 1.6 1.243 2.742 1.264zM5.006 4.444c0-.012.004-.025.004-.033.129-2.97 2.112-3.289 2.96-3.289h.047c1.052.025 2.84.48 2.96 3.289 0 .012 0 .025.005.033.004.029.276 2.845-.962 4.328-.491.588-1.146.878-2.006.886h-.04c-.856-.008-1.515-.298-2.002-.886-1.234-1.474-.97-4.303-.966-4.328z"/>
        <path d="M15.999 15.887v-.012c0-.033-.004-.066-.004-.104-.023-.82-.074-2.737-1.764-3.35l-.04-.013c-1.756-.476-3.217-1.553-3.233-1.565a.506.506 0 0 0-.732.136.581.581 0 0 0 .129.78c.066.049 1.616 1.196 3.556 1.726.908.344 1.009 1.375 1.036 2.32 0 .037 0 .07.004.103.004.373-.02.948-.082 1.28-.63.38-3.104 1.698-6.867 1.698-3.747 0-6.236-1.321-6.871-1.702-.063-.332-.09-.907-.082-1.28 0-.033.004-.066.004-.104.027-.944.128-1.975 1.036-2.319 1.94-.53 3.49-1.682 3.556-1.727a.581.581 0 0 0 .129-.779.506.506 0 0 0-.732-.136c-.016.012-1.469 1.089-3.234 1.565-.015.004-.027.008-.038.013-1.691.617-1.742 2.534-1.765 3.35 0 .037 0 .07-.004.104v.012c-.004.216-.008 1.321.199 1.876.039.108.109.2.202.261C.52 18.103 3.32 20 8.006 20s7.486-1.901 7.603-1.98a.548.548 0 0 0 .203-.26c.195-.552.19-1.657.187-1.873z"/>
    </g>
</symbol><symbol id="icon-star" viewBox="0 0 17 16">
    <path clip-rule="evenodd" d="M8.493 1.617l1.434 4.411.112.345h5.004L11.29 9.1l-.294.213.113.346 1.434 4.41-3.756-2.726-.293-.213-.294.213-3.756 2.726 1.435-4.41.112-.346-.294-.213-3.754-2.726h5.004l.112-.345 1.435-4.411z" stroke-miterlimit="8"/>
</symbol><symbol id="icon-twitter" viewBox="0 0 49.3 40">
    <path d="M49.3 4.7c-1.8.8-3.8 1.3-5.8 1.6 2.1-1.2 3.7-3.2 4.4-5.6-2 1.2-4.1 2-6.4 2.5C39.6 1.2 37 0 34.1 0 28.5 0 24 4.5 24 10.1c0 .8.1 1.6.3 2.3C15.9 12 8.4 8 3.4 1.8c-.8 1.5-1.3 3.3-1.3 5.1 0 3.5 1.8 6.6 4.5 8.4-1.7-.1-3.2-.5-4.6-1.3v.1c0 4.9 3.5 9 8.1 9.9-.8.2-1.7.4-2.7.4-.7 0-1.3-.1-1.9-.2 1.3 4 5 6.9 9.4 7-3.5 2.7-7.8 4.3-12.6 4.3-.8 0-1.6 0-2.4-.1 4.6 3 9.9 4.6 15.6 4.6 18.6 0 28.8-15.4 28.8-28.8V9.9c1.9-1.4 3.6-3.1 5-5.2z"/>
</symbol><symbol id="icon-uhod-01" viewBox="0 0 35 36">
    <path d="M19.141 13.755c-.48-.49-1.26-.49-1.741 0L9.41 21.91c-.48.49-.48 1.286 0 1.777a1.214 1.214 0 0 0 1.742 0l7.99-8.154c.48-.49.48-1.286-.001-1.777z"/>
    <path d="M14.205 24.678c.315 0 .63-.123.87-.368l7.184-7.331c.48-.491.48-1.287 0-1.777-.481-.49-1.26-.49-1.741 0l-7.184 7.331c-.48.49-.48 1.286 0 1.777.24.245.556.368.87.368z"/>
    <path d="M8.8 19.682a1.215 1.215 0 0 0 1.74 0l7.184-7.332c.034-.034.065-.071.094-.11l.42.012c.678.018 1.246-.53 1.263-1.224a1.246 1.246 0 0 0-1.199-1.288l-5.142-.135a2.339 2.339 0 0 1-1.904-1.092l5.447-1.383c.08-.02.159-.05.234-.086l8.757-4.27 4.775 4.873A95.419 95.419 0 0 1 19.94 20.462l-1.493 1.524c-.481.49-.481 1.286 0 1.777a1.215 1.215 0 0 0 1.74 0l1.494-1.524a97.959 97.959 0 0 0 11.402-14.03 1.276 1.276 0 0 0-.146-1.598L26.819.368a1.213 1.213 0 0 0-1.401-.245l-9.43 4.599L9.372 6.4a1.255 1.255 0 0 0-.927 1.358c.264 2.422 2.264 4.295 4.65 4.358l1.34.035-5.637 5.753c-.48.49-.48 1.286 0 1.777z"/>
    <path d="M33.922 10.701a1.238 1.238 0 0 0-1.375 1.09l-1.722 13.948H4.175L2.453 11.791a1.237 1.237 0 0 0-1.376-1.09A1.251 1.251 0 0 0 .01 12.105l2.431 19.7C2.737 34.195 4.741 36 7.104 36h20.792c2.363 0 4.367-1.804 4.663-4.196l2.431-19.699a1.252 1.252 0 0 0-1.068-1.404zm-6.026 22.786H7.103c-1.124 0-2.078-.858-2.219-1.997l-.4-3.238h26.031l-.4 3.238c-.14 1.139-1.094 1.997-2.219 1.997z"/>
</symbol><symbol id="icon-uhod-02" viewBox="0 0 49 43">
    <path d="M16.995 25.627a2.212 2.212 0 0 0 2.208-2.216 2.212 2.212 0 0 0-2.208-2.216 2.212 2.212 0 0 0-2.207 2.216c0 1.223.988 2.216 2.207 2.216z"/>
    <path d="M34.212 25.627a2.212 2.212 0 0 0 2.207-2.216 2.212 2.212 0 0 0-2.207-2.216 2.212 2.212 0 0 0-2.208 2.216c0 1.223.989 2.216 2.208 2.216z"/>
    <path d="M48.957 31.366l-4.12-17.16a1.554 1.554 0 0 0-.303-.616 22.136 22.136 0 0 0-6.267-5.325L42.089 2.4a1.555 1.555 0 0 0-.446-2.148 1.542 1.542 0 0 0-2.14.449L35.452 6.92a22.032 22.032 0 0 0-8.065-1.523H11.833c-.853 0-1.545.695-1.545 1.551 0 .857.692 1.551 1.545 1.551h15.553c2.19 0 4.323.377 6.328 1.085l-2.239 3.434h-12.97a18.343 18.343 0 0 0-12.501 4.905A18.485 18.485 0 0 0 .131 30.04l-.126 1.566c-.035.432.112.858.405 1.176.292.319.704.5 1.135.5h16.721l-4.77 7.317a1.555 1.555 0 0 0 .446 2.148 1.542 1.542 0 0 0 2.139-.448l5.878-9.018h25.496c.473 0 .92-.218 1.214-.591.293-.374.399-.861.288-1.324zM36.568 10.87a18.9 18.9 0 0 1 3.105 2.147h-4.504l1.4-2.147zM3.22 30.179c.69-7.893 7.382-14.06 15.285-14.06h10.948L20.29 30.18H3.219zm20.762 0l9.164-14.06h8.972l3.375 14.06H23.981z"/>
</symbol><symbol id="icon-uhod-03" viewBox="0 0 42 36">
    <path d="M40.707.012a1.478 1.478 0 0 0-1.65 1.28l-.7 5.544a5.575 5.575 0 0 0-.553-.03c-.88 0-1.764.206-2.706.63-.798.358-1.555.839-2.288 1.304-.673.428-1.31.832-1.913 1.104-.553.248-1.042.369-1.495.369-.453 0-.942-.12-1.495-.37-.604-.27-1.24-.675-1.915-1.103-.732-.466-1.49-.947-2.286-1.304-.692-.311-1.543-.63-2.612-.63-.904 0-1.898.224-2.8.63-.797.357-1.555.839-2.288 1.305-.674.428-1.31.832-1.914 1.103-.552.248-1.041.37-1.494.37-.453 0-.942-.122-1.495-.37-.604-.271-1.24-.675-1.914-1.103-.732-.466-1.49-.947-2.287-1.305-.942-.423-1.827-.629-2.707-.629a5.64 5.64 0 0 0-.553.03l-.699-5.545a1.478 1.478 0 0 0-2.931.37L2.93 24.805a5.647 5.647 0 0 0 5.594 4.93h24.952c2.835 0 5.24-2.12 5.594-4.93L41.988 1.66a1.478 1.478 0 0 0-1.281-1.65zm-4.569 24.424a2.688 2.688 0 0 1-2.663 2.347H8.524a2.688 2.688 0 0 1-2.663-2.347L4.011 9.768c.062-.004.124-.009.184-.009.453 0 .942.12 1.495.37.603.27 1.24.674 1.913 1.103.733.465 1.49.946 2.288 1.305 1.883.846 3.53.846 5.412 0 .799-.359 1.556-.84 2.289-1.306.674-.428 1.31-.832 1.913-1.103.514-.231 1.108-.37 1.588-.37.417 0 .81.104 1.401.37.603.27 1.24.675 1.914 1.103.732.466 1.49.947 2.287 1.305.942.423 1.827.629 2.707.629.88 0 1.764-.206 2.706-.629.798-.358 1.555-.84 2.287-1.305.674-.428 1.31-.832 1.914-1.103.553-.249 1.042-.37 1.495-.37.06 0 .122.005.183.01l-1.849 14.668z"/>
    <path d="M36.195 33.048H5.805a1.477 1.477 0 1 0 0 2.952h30.39a1.477 1.477 0 1 0 0-2.952z"/>
</symbol><symbol id="icon-vk" viewBox="0 0 20 20">
    <path d="M10 0C4.477 0 0 4.477 0 10s4.477 10 10 10 10-4.477 10-10S15.523 0 10 0zm5.072 11.082c.467.455.96.883 1.378 1.385.186.223.36.452.493.71.19.37.019.774-.311.795h-2.049c-.529.044-.95-.17-1.305-.531-.283-.289-.546-.597-.82-.895a1.911 1.911 0 0 0-.368-.328c-.28-.182-.522-.126-.682.166-.163.297-.2.626-.216.956-.022.483-.168.61-.653.632-1.035.049-2.018-.108-2.931-.63-.806-.461-1.43-1.111-1.973-1.847-1.058-1.435-1.869-3.01-2.597-4.63-.164-.364-.044-.56.358-.567a57.006 57.006 0 0 1 2.006 0c.272.004.453.16.557.416.361.89.804 1.735 1.36 2.52.147.208.298.417.513.564.238.163.419.11.53-.156.072-.168.103-.348.119-.529a7.896 7.896 0 0 0-.033-1.851c-.057-.385-.274-.634-.658-.707-.196-.037-.167-.11-.072-.221.165-.193.32-.313.63-.313h2.314c.365.071.446.235.496.602l.002 2.573c-.004.142.072.563.327.656.204.068.34-.096.462-.226.555-.589.95-1.284 1.305-2.003.156-.318.29-.646.422-.975.097-.244.248-.363.523-.36l2.229.004c.066 0 .132 0 .197.011.376.065.479.226.363.593-.183.576-.538 1.055-.886 1.536-.372.515-.77 1.011-1.138 1.529-.339.472-.312.71.108 1.12z"/>
</symbol></svg>