<svg xmlns="http://www.w3.org/2000/svg" width="785.199" height="126.891"><path d="M302.765 70.807l-8.796-22.579-8.801 22.579h17.597zm104.092-6.379c0-3.831-.525-7.479-1.597-10.88-1.059-3.402-2.653-6.182-4.729-8.293-4.113-4.077-9.579-6.134-16.445-6.134H377.9v49.371h6.432c7.009 0 12.42-1.825 16.199-5.513 4.25-4.121 6.326-10.258 6.326-18.551zm100.425-26.12c-.872 0-1.889.14-3.099.377-1.158.243-2.034.576-2.563 1.012-.482.381-1.206 1.195-2.126 2.445a95.758 95.758 0 0 0-2.269 3.355l-12.334 19.602v19.892c0 .861.146 1.584.386 2.111.241.576.627 1.005 1.114 1.39.242.242 1.111.433 2.515.624 1.405.191 2.806.285 4.301.285v1.536h-24.706l-.143-1.536c1.209 0 2.416-.047 3.578-.19 1.161-.142 1.983-.385 2.368-.718.674-.529 1.162-.96 1.356-1.199.626-.719.913-1.488.913-2.303V66.156L461.69 43.624a13.01 13.01 0 0 0-1.79-1.87 18.812 18.812 0 0 0-2.034-1.629 12.744 12.744 0 0 0-2.323-1.246c-.865-.384-1.734-.571-2.509-.571v-1.54h23.156v1.54c-1.885 0-3.384.092-4.546.286-1.163.19-1.735.668-1.789 1.438 0 .427.146 1.056.535 1.818.34.77.969 1.775 1.936 3.072l11.071 16.919 11.072-17.785c.334-.576.723-1.341 1.106-2.301.389-.958.583-1.529.583-1.723 0-.528-.675-.961-1.983-1.247a20.774 20.774 0 0 0-4.352-.476v-1.54h17.458v1.539zM415.901 63.71c0 8.097-2.465 14.573-7.396 19.507-5.318 5.128-12.765 7.72-22.29 7.72h-23.884v-1.536c1.113 0 2.174-.094 3.141-.242 1.016-.19 1.651-.425 1.984-.714.773-.814 1.205-1.343 1.306-1.584.582-.814.821-1.724.821-2.684v-40.07c0-.964-.239-1.921-.727-2.831-.195-.337-.627-.96-1.302-1.821-.242-.334-.872-.577-1.936-.814a17.584 17.584 0 0 0-3.288-.334v-1.54h24.123c7.983 0 14.649 2.064 20.016 6.137 6.291 4.796 9.432 11.7 9.432 20.806zm-91.664 27.228h-21.81v-1.536c.825 0 1.693-.047 2.662-.094.92-.044 1.547-.147 1.887-.338.821-.286 1.255-.524 1.401-.624.29-.285.48-.575.48-.91 0-.333-.092-.813-.286-1.483-.194-.719-.727-2.205-1.596-4.557l-3.188-7.81h-19.775l-3.189 8.242a29.7 29.7 0 0 0-1.066 2.779c-.389.96-.536 1.727-.536 2.255 0 .381.292.77.828 1.056.524.334 1.012.622 1.4.817.386.235 1.061.382 2.028.528.968.091 1.789.139 2.563.139v1.536h-16.876v-1.536c.968 0 1.98-.139 3.142-.381 1.162-.241 1.936-.622 2.368-1.15.246-.337.921-1.775 1.992-4.362.38-.961.813-1.917 1.252-2.927l18.034-44.627h1.447l20.161 49.711c.242.526.682 1.054 1.309 1.629.48.385.868.719 1.21 1.004.385.29.964.576 1.832.771.922.238 1.694.333 2.325.333v1.535zm-92.588 0h-22.623v-1.536c1.594 0 2.753-.094 3.427-.242.731-.19 1.31-.425 1.643-.714.876-.675 1.407-1.203 1.697-1.538.238-.333.385-.766.385-1.197V42.714l-20.255 48.224h-1.167l-19.871-46.83v39.828c0 .77.25 1.536.775 2.306.535.716.923 1.291 1.209 1.676.341.38 1.016.714 2.083 1.052 1.059.293 2.269.432 3.577.432v1.536H164.25v-1.536c1.305 0 2.467-.139 3.435-.381 1.016-.241 1.741-.622 2.178-1.15.433-.576.865-1.151 1.352-1.87.432-.671.675-1.342.675-2.064V42.091c0-.477-.193-1.004-.626-1.58-.243-.243-.535-.576-.968-.96-.39-.381-1.21-.672-2.325-.909-1.154-.194-2.321-.334-3.383-.334v-1.54h15.86l17.597 40.746 17.407-40.746h16.196v1.54c-1.595 0-2.756.092-3.53.286-.773.19-1.4.476-1.79.814-.384.382-.772.718-1.161 1.051-.528.528-.775 1.056-.775 1.538V85.71c0 .579.247 1.059.636 1.485.432.436.821.817 1.205 1.103.39.29 1.163.576 2.273.771 1.158.238 2.223.333 3.142.333v1.536zM569.597 70.805l-8.795-22.576-8.75 22.576h17.545zm21.469 20.133h-21.803v-1.535c.82 0 1.734-.049 2.653-.096.925-.048 1.552-.147 1.89-.336.82-.286 1.305-.525 1.403-.624.333-.29.479-.576.479-.91s-.096-.817-.285-1.485c-.194-.723-.729-2.203-1.551-4.557l-3.188-7.812h-19.823l-3.142 8.245c-.434.865-.774 1.774-1.116 2.779-.333.956-.534 1.726-.534 2.254 0 .382.293.771.828 1.056.575.334 1.017.624 1.401.814.388.239 1.063.381 2.03.528.968.095 1.834.144 2.61.144v1.535h-16.871v-1.535c.913 0 1.979-.144 3.09-.383 1.159-.241 1.979-.626 2.42-1.154.194-.338.869-1.775 1.983-4.359.385-.96.773-1.917 1.206-2.925l18.034-44.628h1.447l20.207 49.713c.195.524.635 1.052 1.31 1.627.437.381.822.719 1.162 1.005.389.286 1.016.576 1.881.766.877.242 1.65.338 2.277.338v1.535zm62.995-22.244c-.774-.958-1.789-1.725-3.043-2.445-1.253-.668-2.13-1.005-2.563-1.005h-4.351V83.75c0 .667.091 1.58.285 2.679.195 1.1.441 1.774.682 2.064.288.286 1.163.527 2.658.766 1.452.187 2.705.29 3.77.29v1.389h-22.817v-1.389h1.353c.968 0 1.69 0 2.078-.104.434-.091.968-.381 1.646-.861.675-.476 1.21-.909 1.551-1.291.385-.337.571-.816.571-1.439V42.763c0-.671-.286-1.343-.772-1.965-.723-.722-1.207-1.199-1.449-1.49-.285-.285-.868-.524-1.789-.715-.92-.193-1.983-.288-3.188-.288v-1.537h23.305c6.038 0 10.778 1.25 14.261 3.691 3.432 2.445 5.174 5.943 5.174 10.5 0 3.498-1.21 6.375-3.579 8.673-2.415 2.255-5.994 3.835-10.829 4.697.434.146 1.4.862 2.948 2.302 1.551 1.342 2.661 2.544 3.292 3.545.19.146 1.789 2.735 4.783 7.769 1.017 1.627 2.516 4.124 4.547 7.526.432.667 1.158 1.294 2.222 1.965.678.429 1.4.861 2.13 1.294.385.239.821.429 1.302.528.483.144 1.066.238 1.74.29v1.389h-18.274v-1.389c1.11 0 2.031-.242 2.852-.723.773-.479 1.162-1.103 1.162-1.87 0-.479-.143-1.103-.528-1.869-.34-.767-.876-1.728-1.502-2.874-1.694-2.783-3.043-4.848-3.964-6.284-2.807-4.31-4.697-6.706-5.664-7.234zm-4.686-29.48c-.968 0-1.742.048-2.467.094-.675.048-1.163.194-1.404.434-.287.243-.579.576-.92.96-.335.382-.48.814-.48 1.291v20.71h3.043c6.287 0 10.592-.91 12.813-2.828 1.887-1.631 2.804-4.458 2.804-8.581 0-3.692-1.016-6.519-3.143-8.627-2.268-2.303-5.7-3.453-10.246-3.453zm114.391 11.984h-1.889c-.674-2.877-1.547-5.272-2.706-7.189-1.111-1.968-2.372-3.117-3.82-3.497-.483-.29-1.737-.575-3.771-.77-2.028-.194-4.443-.286-7.255-.286v46.211c0 .811.098 1.389.341 1.675.245.333.579.671 1.113.957.528.286 1.401.576 2.61.766 1.255.242 2.417.338 3.53.338v1.535H728.52v-1.535c1.154 0 2.225-.096 3.145-.243.913-.189 1.686-.381 2.27-.619a3.957 3.957 0 0 0 1.546-1.151c.481-.529.727-1.057.727-1.68V39.456c-3.482 0-5.997.046-7.543.143-1.545.095-2.806.386-3.773.957-1.016.576-1.642 1.008-1.928 1.294-.536.48-1.114 1.247-1.742 2.255-1.015 1.822-1.936 4.171-2.617 7.094h-1.929l.675-11.742c0-.481.047-1.056.099-1.679.095-.624.243-.959.382-1.008h44.675c.194 0 .341.623.534 1.87 0 .242 0 .527.045.909l.68 11.649zM164.25 11.841h599.511v1.536H164.25zM164.25 114.421h599.511v1.537H164.25z"/><path fill-rule="evenodd" clip-rule="evenodd" d="M134.068 53.049c.103.731.103 1.302.103 1.775 0 1.928-.63 3.546-1.997 4.951-1.371 1.409-3.001 2.503-4.891 3.388-1.895.885-3.895 1.516-5.999 1.984-2.104.412-3.943.625-5.522.625L98.88 64.363c-1.208 0-2.632.052-4.206.265a27.26 27.26 0 0 0-4.631.83c-1.474.365-2.895.94-4.262 1.719-1.367.733-2.418 1.619-3.206 2.661-.37.367-.893 1.098-1.527 2.188-.682 1.15-1 1.934-1 2.401 0 .835.421 1.512 1.263 1.929.843.417 1.581.682 2.315.682 1.108-.992 2.262-2.036 3.369-3.235a40.944 40.944 0 0 1 3.469-3.337 21.41 21.41 0 0 1 3.891-2.661 9.261 9.261 0 0 1 4.419-1.095c1.895 0 3.892.259 5.999.834 2.047.575 3.942 1.409 5.624 2.554a15.767 15.767 0 0 1 4.316 4.227c1.104 1.721 1.683 3.649 1.683 5.837 0 1.725-.528 3.286-1.579 4.695a107.16 107.16 0 0 1-3.415 4.33 37.821 37.821 0 0 0-3.424 4.849c-1.051 1.822-1.578 4.014-1.578 6.62 0 1.566.42 3.342 1.212 5.372a16.048 16.048 0 0 1 1.158 5.999c0 .886-.162 1.776-.477 2.712-.316.988-.737 1.876-1.315 2.661a7.911 7.911 0 0 1-2.049 1.928 4.598 4.598 0 0 1-2.63.783c-.949-2.243-2.155-4.172-3.681-5.687-1.474-1.511-3.104-2.866-4.785-4.117-1.739-1.2-3.418-2.4-5.156-3.495a30.95 30.95 0 0 1-4.683-3.908c-1.417-1.514-2.523-3.286-3.418-5.372-.894-2.084-1.314-4.64-1.314-7.717V85.64c0-2.244-.315-4.065-.895-5.423a22.404 22.404 0 0 0-2.154-3.653 36.965 36.965 0 0 1-2.106-3.282c-.574-1.098-.895-2.453-.895-4.121 0-4.955.636-9.543 1.895-13.817 1.266-4.278 3.053-8.288 5.262-12.099 2.259-3.754 4.892-7.352 7.939-10.69a123.364 123.364 0 0 1 9.782-9.854c5.892-5.317 12.154-9.285 18.779-11.839C123.495 8.307 131.017 7 139.321 7c.899 0 1.636.157 2.316.421.686.259 1 .886 1 1.928-2.101 1.511-3.787 3.231-5.103 5.216-1.261 2.034-2.262 4.12-2.942 6.364a41.463 41.463 0 0 0-1.528 6.934c-1.051 8.34 0 16.893 1.004 25.186m-29.926-.525a44.398 44.398 0 0 1 5.202-3.491 33.55 33.55 0 0 1 6.207-2.818c2.158-.729 4.367-1.197 6.573-1.354 2.159-.158 4.21.101 6.155.834.475.209 1.053.626 1.738 1.251.682.625.893 1.302.63 2.035-.158.417-.524.677-1.154.779-2.056.259-4.16.314-6.37.208a69.689 69.689 0 0 0-6.573-.153c-2.209.051-4.367.26-6.522.626-2.157.312-4.102 1.04-5.886 2.083zm-15.258-9.331c1.316-2.035 2.946-4.227 4.948-6.726 1.945-2.503 4.099-4.798 6.465-6.991a38.13 38.13 0 0 1 7.365-5.474c2.58-1.512 5.154-2.244 7.676-2.244 1.001 0 1.843.261 2.58.784.736.522 1.106 1.307 1.106 2.345 0 .783-.634 1.512-1.894 2.245a30.054 30.054 0 0 1-4.419 1.928c-1.682.625-3.312 1.199-4.943 1.668-1.63.468-2.787.89-3.473 1.2-2.895 1.512-5.572 3.235-7.994 5.266-2.417 1.985-4.892 3.964-7.417 5.999zm-3.155 10.324a35.485 35.485 0 0 1 2.947-4.118 27.583 27.583 0 0 1 3.942-3.912c1.473-1.2 3-2.138 4.627-2.868 1.634-.784 3.265-1.145 4.946-1.145.421 0 1 .153 1.682.467.74.311 1.054.783 1.054 1.353 0 .367-.212.676-.633.941-1.468.783-3.104 1.41-4.837 1.98a96.647 96.647 0 0 0-5.049 1.72c-1.685.681-3.265 1.408-4.788 2.299a13.299 13.299 0 0 0-3.891 3.283zm-77.161-.468c-.102.731-.153 1.302-.153 1.775 0 1.928.683 3.546 2.053 4.951 1.366 1.409 2.997 2.503 4.888 3.388 1.898.885 3.895 1.516 5.998 1.984 2.103.412 3.941.625 5.522.625l16.883-1.409c1.208 0 2.63.052 4.204.265 1.581.152 3.104.412 4.581.83 1.524.365 2.948.94 4.313 1.719 1.367.733 2.418 1.619 3.206 2.661.37.367.895 1.098 1.529 2.188.68 1.15 1 1.934 1 2.401 0 .835-.42 1.512-1.264 1.929-.842.417-1.579.682-2.315.682a39.538 39.538 0 0 1-3.367-3.235c-1.104-1.15-2.261-2.296-3.471-3.337a21.307 21.307 0 0 0-3.891-2.661 9.261 9.261 0 0 0-4.419-1.095c-1.945 0-3.941.259-5.996.834-2.049.575-3.944 1.409-5.68 2.554a16.408 16.408 0 0 0-4.262 4.227c-1.154 1.721-1.682 3.649-1.682 5.837 0 1.725.528 3.286 1.58 4.695a105.409 105.409 0 0 0 3.415 4.33 37.916 37.916 0 0 1 3.423 4.849c1.052 1.822 1.579 4.014 1.579 6.62 0 1.566-.421 3.342-1.213 5.372a16.027 16.027 0 0 0-1.157 5.999c0 .886.16 1.776.475 2.712.265.988.736 1.876 1.315 2.661.524.783 1.209 1.409 1.998 1.928.786.519 1.68.783 2.681.783.951-2.243 2.155-4.172 3.683-5.687 1.473-1.511 3.104-2.866 4.786-4.117 1.735-1.2 3.418-2.4 5.154-3.495a30.909 30.909 0 0 0 4.684-3.908 19.256 19.256 0 0 0 3.418-5.372c.894-2.084 1.317-4.64 1.317-7.717V85.64c0-2.244.314-4.065.893-5.423.63-1.355 1.315-2.556 2.103-3.653.789-1.094 1.529-2.188 2.159-3.282.574-1.098.894-2.453.894-4.121 0-4.955-.634-9.543-1.895-13.817-1.264-4.278-3.051-8.288-5.262-12.099-2.26-3.754-4.891-7.352-7.938-10.69-2.999-3.387-6.314-6.675-9.783-9.854-5.891-5.317-12.154-9.285-18.777-11.839C19.142 8.307 11.621 7 3.315 7 2.418 7 1.63 7.157 1 7.421c-.686.26-1 .886-1 1.929 2.103 1.511 3.789 3.231 5.104 5.216 1.259 2.034 2.26 4.12 2.94 6.364a41.266 41.266 0 0 1 1.529 6.934c1.052 8.339.001 16.892-1.005 25.185zm29.932-.525a44.827 44.827 0 0 0-5.207-3.491c-1.945-1.145-4.053-2.086-6.207-2.818-2.21-.729-4.368-1.197-6.574-1.354-2.158-.158-4.21.101-6.155.834-.472.209-1.104.626-1.738 1.251-.682.625-.894 1.302-.629 2.035.157.417.523.677 1.153.779 2.057.259 4.159.314 6.369.208a69.302 69.302 0 0 1 6.573-.153c2.21.051 4.368.26 6.523.626 2.158.312 4.105 1.04 5.892 2.083zm15.253-9.331c-1.316-2.035-2.946-4.227-4.946-6.726-1.945-2.503-4.1-4.798-6.467-6.991a38.13 38.13 0 0 0-7.365-5.474c-2.581-1.512-5.155-2.244-7.675-2.244-1.001 0-1.845.261-2.58.784-.738.522-1.159 1.307-1.159 2.345 0 .783.686 1.512 1.946 2.245a30.04 30.04 0 0 0 4.418 1.928 61.399 61.399 0 0 0 4.943 1.668c1.579.468 2.789.89 3.475 1.2 2.894 1.512 5.575 3.235 7.939 5.266 2.422 1.985 4.947 3.964 7.471 5.999zm3.155 10.324a35.35 35.35 0 0 0-2.946-4.118 27.531 27.531 0 0 0-3.942-3.912 20.638 20.638 0 0 0-4.627-2.868c-1.634-.784-3.265-1.145-4.947-1.145-.421 0-1 .153-1.736.467-.685.311-1.051.783-1.051 1.353 0 .367.263.676.686.941 1.468.783 3.103 1.41 4.784 1.98a84.123 84.123 0 0 1 5.101 1.72c1.686.681 3.265 1.408 4.789 2.299 1.522.886 2.837 1.979 3.889 3.283zm-1.052 36.815c-.524.264-1.422.677-2.683 1.302-1.264.631-2.578 1.308-3.894 2.086a31.656 31.656 0 0 0-3.521 2.452c-1 .784-1.474 1.566-1.474 2.244 0 .728.264 1.303.788 1.822.529.524 1.107.783 1.843.783.946 0 1.946-.366 2.89-1.093.951-.729 1.845-1.668 2.682-2.712.845-1.094 1.529-2.294 2.103-3.546.58-1.252 1.002-2.397 1.266-3.338zm30.926 0c.522.264 1.421.677 2.682 1.302 1.264.631 2.579 1.308 3.896 2.086a27.043 27.043 0 0 1 3.468 2.452c1.05.784 1.524 1.566 1.524 2.244 0 .728-.265 1.303-.789 1.822-.527.524-1.158.783-1.842.783-.944 0-1.945-.366-2.891-1.093-.95-.729-1.843-1.668-2.682-2.712-.843-1.094-1.58-2.294-2.103-3.546-.578-1.252-1-2.397-1.263-3.338z"/></svg>
