<svg width="19" height="20" viewBox="0 0 19 20" version="1.1" xmlns="http://www.w3.org/2000/svg" xmlns:xlink="http://www.w3.org/1999/xlink">
<g id="Canvas" fill="none">
<g id="Vector">
<path d="M 18.9945 18.7022L 17.7088 5.85045C 17.6479 5.19034 17.0638 4.65325 16.4066 4.65325L 14.7832 4.65325C 14.5158 2.03081 12.3041 3.40286e-07 9.67716 3.40286e-07C 7.05007 3.40286e-07 4.83829 2.03081 4.57115 4.65325L 2.59331 4.65325C 1.92505 4.65325 1.35309 5.17909 1.2914 5.84903L 0.00544297 18.7034C -0.0260062 19.0442 0.079577 19.3682 0.302781 19.616C 0.525985 19.8636 0.835913 20 1.17558 20L 17.8246 20C 18.1646 20 18.4747 19.8638 18.6979 19.6164C 18.9207 19.369 19.0261 19.0449 18.9945 18.7022ZM 9.67716 1.0707C 11.7162 1.0707 13.4546 2.62918 13.7166 4.65304L 5.63751 4.65304C 5.89949 2.62918 7.63797 1.0707 9.67716 1.0707ZM 2.34608 5.95086L 2.3221 5.94842L 2.34618 5.94954C 2.35701 5.83134 2.47473 5.72374 2.59321 5.72374L 4.54231 5.72374L 4.54231 6.89408C 3.91016 7.11927 3.4796 7.72404 3.4796 8.40979C 3.4796 9.29711 4.19401 10.019 5.07213 10.019C 5.95015 10.019 6.66445 9.29711 6.66445 8.40979C 6.66445 7.72404 6.23394 7.11927 5.60195 6.89408L 5.60195 5.72374L 13.7521 5.72374L 13.7521 6.89408C 13.1199 7.11927 12.6893 7.72404 12.6893 8.40979C 12.6893 9.29711 13.4037 10.019 14.2818 10.019C 15.1599 10.019 15.8742 9.29711 15.8742 8.40979C 15.8742 7.72404 15.4437 7.11932 14.8116 6.89408L 14.8116 5.72374L 16.4065 5.72374C 16.5206 5.72374 16.643 5.83555 16.6537 5.95086L 17.9395 18.803C 17.942 18.8297 17.9397 18.8674 17.9144 18.8952C 17.8891 18.9234 17.8514 18.9293 17.8243 18.9293L 1.17553 18.9293C 1.14885 18.9293 1.11153 18.9233 1.08615 18.8953C 1.06042 18.8667 1.05791 18.8289 1.06017 18.804L 2.34608 5.95086ZM 4.69765 8.78835C 4.79771 8.88946 4.93068 8.94511 5.07218 8.94511C 5.3643 8.94511 5.602 8.70497 5.602 8.40979L 5.602 8.35226C 5.60406 8.37127 5.60511 8.39043 5.60511 8.40979C 5.60511 8.70675 5.36606 8.94831 5.07218 8.94831C 4.77845 8.94831 4.53945 8.70675 4.53945 8.40979C 4.53945 8.39048 4.5405 8.37122 4.54256 8.35221L 4.54256 8.40959C 4.54241 8.55272 4.59748 8.68718 4.69765 8.78835ZM 13.9074 8.78835C 14.0074 8.88941 14.1404 8.94511 14.2819 8.94511C 14.5741 8.94511 14.8118 8.70497 14.8118 8.40979L 14.8118 8.35201C 14.8138 8.37107 14.8149 8.39038 14.8149 8.40979C 14.8149 8.70675 14.5758 8.94831 14.282 8.94831C 13.9883 8.94831 13.7493 8.70675 13.7493 8.40979C 13.7493 8.39038 13.7503 8.37112 13.7524 8.35201L 13.7524 8.40959C 13.7522 8.55272 13.8072 8.68718 13.9074 8.78835Z" fill="#333333"/>
</g>
</g>
</svg>

