<svg width="17" height="18" viewBox="0 0 17 18" version="1.1" xmlns="http://www.w3.org/2000/svg" xmlns:xlink="http://www.w3.org/1999/xlink">
<g id="Canvas" fill="none">
<g id="Vector">
<path d="M 16.9951 16.832L 15.8447 5.26541C 15.7902 4.67131 15.2676 4.18792 14.6796 4.18792L 13.2271 4.18792C 12.9878 1.82773 11.0089 3.06257e-07 8.65851 3.06257e-07C 6.30796 3.06257e-07 4.329 1.82773 4.08997 4.18792L 2.32033 4.18792C 1.72241 4.18792 1.21066 4.66118 1.15546 5.26413L 0.00487003 16.833C -0.0232687 17.1397 0.0712004 17.4314 0.270909 17.6544C 0.470618 17.8772 0.747922 18 1.05184 18L 15.9483 18C 16.2525 18 16.53 17.8774 16.7297 17.6547C 16.9291 17.4321 17.0234 17.1404 16.9951 16.832ZM 8.65851 0.96363C 10.483 0.96363 12.0383 2.36626 12.2727 4.18774L 5.04409 4.18774C 5.27849 2.36626 6.83398 0.96363 8.65851 0.96363ZM 2.09912 5.35577L 2.07767 5.35358L 2.09921 5.35459C 2.10891 5.24821 2.21424 5.15137 2.32024 5.15137L 4.06417 5.15137L 4.06417 6.20468C 3.49857 6.40735 3.11333 6.95163 3.11333 7.56881C 3.11333 8.3674 3.75253 9.01711 4.53822 9.01711C 5.32382 9.01711 5.96293 8.3674 5.96293 7.56881C 5.96293 6.95163 5.57774 6.40735 5.01227 6.20468L 5.01227 5.15137L 12.3045 5.15137L 12.3045 6.20468C 11.7389 6.40735 11.3536 6.95163 11.3536 7.56881C 11.3536 8.3674 11.9928 9.01711 12.7785 9.01711C 13.5641 9.01711 14.2032 8.3674 14.2032 7.56881C 14.2032 6.95163 13.818 6.40739 13.2525 6.20468L 13.2525 5.15137L 14.6795 5.15137C 14.7816 5.15137 14.8911 5.252 14.9006 5.35577L 16.0511 16.9227C 16.0534 16.9467 16.0513 16.9806 16.0287 17.0057C 16.0061 17.0311 15.9723 17.0364 15.948 17.0364L 1.05179 17.0364C 1.02792 17.0364 0.994529 17.0309 0.971821 17.0058C 0.948798 16.98 0.946554 16.9461 0.948574 16.9236L 2.09912 5.35577ZM 4.20316 7.90951C 4.29269 8.00052 4.41166 8.0506 4.53826 8.0506C 4.79964 8.0506 5.01232 7.83448 5.01232 7.56881L 5.01232 7.51704C 5.01416 7.53414 5.0151 7.55139 5.0151 7.56881C 5.0151 7.83607 4.80121 8.05348 4.53826 8.05348C 4.27546 8.05348 4.06161 7.83607 4.06161 7.56881C 4.06161 7.55143 4.06255 7.5341 4.06439 7.51699L 4.06439 7.56863C 4.06426 7.69745 4.11354 7.81847 4.20316 7.90951ZM 12.4434 7.90951C 12.533 8.00047 12.6519 8.0506 12.7786 8.0506C 13.0399 8.0506 13.2526 7.83448 13.2526 7.56881L 13.2526 7.51681C 13.2545 7.53396 13.2555 7.55134 13.2555 7.56881C 13.2555 7.83607 13.0415 8.05348 12.7786 8.05348C 12.5158 8.05348 12.302 7.83607 12.302 7.56881C 12.302 7.55134 12.3029 7.53401 12.3048 7.51681L 12.3048 7.56863C 12.3046 7.69745 12.3538 7.81847 12.4434 7.90951Z" fill="white"/>
</g>
</g>
</svg>

